<?xml version="1.0" encoding="UTF-8" standalone="no"?>
<svg
   width="552"
   height="552"
   xml:space="preserve"
   overflow="hidden"
   version="1.1"
   id="svg25"
   xmlns="http://www.w3.org/2000/svg"
   xmlns:svg="http://www.w3.org/2000/svg"><defs
     id="defs1" /><g
     id="g46"
     transform="translate(-6202,-1302)"><rect
       x="2677"
       y="1524"
       width="552"
       height="552"
       fill="#ffffff"
       id="rect30"
       style="overflow:hidden"
       transform="translate(3525,-222)" /><path
       d="m 2923.12,1890.4 c -33.01,0 -59.76,29.06 -59.76,64.9 0,35.84 26.75,64.89 59.76,64.89 33,0 59.76,-29.05 59.76,-64.89 v -64.9 z m 0,-58.4 v 0 h 122.12 v 122 0 0 l 1.21,12.82 c 4.78,24.84 23.16,44.4 46.51,49.48 l 12.04,1.3 v 58.4 c -37.94,0 -71.83,-17.28 -94.23,-44.4 l -4.63,-6.18 -10.71,13.81 c -20.58,22.68 -49.31,36.77 -81.1,36.77 -62.59,0 -113.33,-54.62 -113.33,-122 v 0 c 0,-63.17 48.05,-115.12 109.63,-121.37 z"
       fill-rule="evenodd"
       id="path31"
       style="overflow:hidden"
       transform="translate(3525,-222)" /><rect
       x="2920"
       y="1524"
       width="65"
       height="270"
       id="rect31"
       style="overflow:hidden"
       transform="translate(3525,-222)" /></g></svg>
