<?xml version="1.0" encoding="UTF-8" standalone="no"?>
<svg
   width="552"
   height="552"
   xml:space="preserve"
   overflow="hidden"
   version="1.1"
   id="svg25"
   xmlns="http://www.w3.org/2000/svg"
   xmlns:svg="http://www.w3.org/2000/svg"><defs
     id="defs1" /><g
     id="g76"
     transform="translate(-1861.021,-1953)"><rect
       x="2057"
       y="222"
       width="552"
       height="552"
       fill="#ffffff"
       id="rect7-5"
       style="overflow:hidden"
       transform="translate(-195.979,1731)" /><path
       d="m 2182,267 c 0,-24.853 20.15,-45 45,-45 24.85,0 45,20.147 45,45 0,24.853 -20.15,45 -45,45 -24.85,0 -45,-20.147 -45,-45 z"
       fill-rule="evenodd"
       id="path7-5"
       style="overflow:hidden"
       transform="translate(-195.979,1731)" /><path
       d="m 2393,267 c 0,-24.853 20.15,-45 45,-45 24.85,0 45,20.147 45,45 0,24.853 -20.15,45 -45,45 -24.85,0 -45,-20.147 -45,-45 z"
       fill-rule="evenodd"
       id="path8-3"
       style="overflow:hidden"
       transform="translate(-195.979,1731)" /><path
       d="m 2276.32,671.179 3.46,9.281 c 6.22,13.45 13.82,23.903 22.79,31.36 8.98,7.456 19,11.184 30.04,11.184 11.05,0 21.03,-3.728 29.93,-11.184 8.9,-7.457 16.46,-17.91 22.68,-31.36 l 3.46,-9.281 z m -15.97,-99.931 -0.02,0.439 4.12,49.35 h 136.1 l 4.12,-49.35 -0.02,-0.439 z m 4.13,-100.638 -4.15,49.703 0.02,0.439 h 144.3 l 0.02,-0.439 -4.15,-49.703 z m 67.9,-101.613 c -11.04,0 -21.02,3.728 -29.92,11.184 -8.9,7.456 -16.46,17.91 -22.68,31.36 l -3.33,8.926 h 112.1 l -3.33,-8.926 c -6.22,-13.45 -13.82,-23.904 -22.79,-31.36 -8.98,-7.456 -19,-11.184 -30.05,-11.184 z M 2332.28,318 c 21,0 40.04,4.981 57.11,14.943 17.06,9.962 31.5,23.928 43.32,41.898 5.9,8.985 11.14,18.824 15.7,29.519 l 5.41,16.107 H 2561 v 50.143 h -95.08 l 1.36,7.292 c 1.6,13.526 2.4,27.615 2.4,42.264 l -0.03,0.586 H 2561 v 50.142 h -94.45 l 3.1,0.354 0.03,0.586 c 0,14.65 -0.8,28.738 -2.4,42.265 l -1.29,6.938 H 2561 v 50.142 h -107.06 l -5.54,16.461 c -4.55,10.695 -9.79,20.535 -15.69,29.52 -11.82,17.97 -26.19,31.936 -43.11,41.897 -16.92,9.962 -35.88,14.943 -56.88,14.943 -21.01,0 -40.04,-4.981 -57.11,-14.943 -17.06,-9.961 -31.5,-23.927 -43.32,-41.897 -5.9,-8.985 -11.14,-18.825 -15.7,-29.52 l -5.53,-16.461 H 2104 v -50.142 h 95.01 l -1.29,-6.938 c -1.6,-13.527 -2.4,-27.615 -2.4,-42.265 0.01,-0.195 0.02,-0.39 0.03,-0.586 l 0.95,-0.354 H 2104 v -50.142 h 91.35 l -0.03,-0.586 c 0,-14.649 0.8,-28.738 2.4,-42.264 l 1.36,-7.292 H 2104 v -50.143 h 107.18 l 5.41,-16.107 c 4.56,-10.695 9.8,-20.534 15.7,-29.519 11.82,-17.97 26.18,-31.936 43.11,-41.898 16.91,-9.962 35.88,-14.943 56.88,-14.943 z"
       fill-rule="evenodd"
       id="path10-3"
       style="overflow:hidden"
       transform="translate(-195.979,1731)" /></g></svg>
