<?xml version="1.0" encoding="UTF-8" standalone="no"?>
<svg
   width="552"
   height="552"
   xml:space="preserve"
   overflow="hidden"
   version="1.1"
   id="svg25"
   xmlns="http://www.w3.org/2000/svg"
   xmlns:svg="http://www.w3.org/2000/svg"><defs
     id="defs1" /><g
     id="g154"
     transform="translate(-8989.3887,-3093.3518)"><rect
       x="8989.3887"
       y="3093.3518"
       width="552"
       height="552"
       fill="#ffffff"
       id="rect7-5-4-7"
       style="overflow:hidden" /><path
       d="m 9114.3885,3138.3519 c 0,-24.853 20.15,-45 45,-45 24.85,0 45,20.147 45,45 0,24.853 -20.15,45 -45,45 -24.85,0 -45,-20.147 -45,-45 z"
       fill-rule="evenodd"
       id="path7-5-4-8"
       style="overflow:hidden" /><path
       d="m 9325.3885,3138.3519 c 0,-24.853 20.15,-45 45,-45 24.85,0 45,20.147 45,45 0,24.853 -20.15,45 -45,45 -24.85,0 -45,-20.147 -45,-45 z"
       fill-rule="evenodd"
       id="path8-3-3-3"
       style="overflow:hidden" /><path
       id="path64-6"
       style="stroke-width:1"
       d="m 9265.1699,3189.3516 c -21.0044,0 -39.966,5.6002 -56.8847,16.8027 -16.9198,11.2026 -31.2872,26.9095 -43.1016,47.1172 -11.3023,19.3311 -20.1057,42.2212 -26.4688,68.5879 h -102.3261 v 58.4785 h 93.207 c -0.9211,11.7573 -1.3867,23.8731 -1.3867,36.3555 0,12.9764 0.4993,25.5253 1.4687,37.6718 h -93.289 v 58.4805 h 102.4883 c 6.3507,26.0865 15.0991,48.7589 26.3066,67.9277 11.8144,20.2086 26.1818,36.0239 43.1016,47.4454 16.9187,11.4212 35.8803,17.1328 56.8847,17.1328 21.0045,0 40.0407,-5.7116 57.1035,-17.1328 17.063,-11.4215 31.506,-27.2368 43.3204,-47.4454 11.2069,-19.1688 19.9564,-41.8412 26.3066,-67.9277 h 101.4883 v -58.4805 h -92.2891 c 0.9697,-12.1465 1.4688,-24.6954 1.4688,-37.6718 0,-12.4824 -0.4654,-24.5982 -1.3868,-36.3555 h 92.2071 v -58.4785 h -101.3262 c -6.3624,-26.3667 -15.167,-49.2568 -26.4687,-68.5879 -11.8144,-20.2077 -26.2574,-35.9146 -43.3204,-47.1172 -17.0628,-11.2025 -36.099,-16.8027 -57.1035,-16.8027 z m 0.1035,58.4804 c 11.0636,0 21.0907,4.165 30.0782,12.4942 8.9875,8.3292 16.5954,20.0047 22.8183,35.0293 3.3147,8.0029 6.1951,16.8785 8.7031,26.5039 h -122.9687 c 2.5085,-9.6254 5.3902,-18.501 8.7051,-26.5039 6.2229,-15.0246 13.7892,-26.7001 22.7011,-35.0293 8.9116,-8.3292 18.8994,-12.4942 29.9629,-12.4942 z m -70.7597,132.5059 h 141.75 c 0.9066,11.6786 1.3808,23.8372 1.3808,36.5234 0,13.0804 -0.4989,25.5572 -1.4375,37.5039 h -141.6367 c -0.9384,-11.9467 -1.4375,-24.4235 -1.4375,-37.5039 0,-12.6862 0.4744,-24.8448 1.3809,-36.5234 z m 9.5078,132.5078 h 122.7344 c -2.4797,9.4392 -5.3262,18.1412 -8.586,26.0117 -6.2229,15.0253 -13.8308,26.7834 -22.8183,35.2754 -8.9875,8.4919 -19.0146,12.7383 -30.0782,12.7383 -11.0635,0 -21.0513,-4.2464 -29.9629,-12.7383 -8.9119,-8.492 -16.4782,-20.2501 -22.7011,-35.2754 -3.26,-7.8705 -6.1078,-16.5725 -8.5879,-26.0117 z" /></g></svg>
