<?xml version="1.0" encoding="UTF-8" standalone="no"?>
<svg
   width="570"
   height="552"
   xml:space="preserve"
   overflow="hidden"
   version="1.1"
   id="svg25"
   xmlns="http://www.w3.org/2000/svg"
   xmlns:svg="http://www.w3.org/2000/svg"><defs
     id="defs1" /><g
     id="g64"
     transform="translate(-2481.021,-1953)"><rect
       x="2677"
       y="222"
       width="552"
       height="552"
       fill="#ffffff"
       id="rect25-2"
       style="overflow:hidden"
       transform="translate(-195.979,1731)" /><path
       id="path26"
       style="overflow:hidden"
       d="m 2794,238 v 230.79883 h -117 v 58.40234 h 117 V 758 h 79.0508 l 32.5,-17.32031 18.3887,-11.86133 19.3906,-12.51172 c 73.6018,-52.28629 121.2455,-117.57797 131.5273,-189.10547 h 86.0332 L 3086.3809,602.7207 3135.5605,641 3247,497.98633 3135.5605,355 l -49.1796,38.28125 74.5097,75.51758 h -86.0332 c -10.2818,-71.528 -57.9255,-136.81918 -131.5273,-189.10547 l -19.3906,-12.51172 -18.3887,-11.86133 -32.5,-17.32031 z m 64.9707,58.5 h 0.059 l 0.3711,0.1875 c 82.3171,45.05927 137.1632,105.1528 149.625,172.11133 h -150.0547 z m 0,230.70117 h 150.0547 c -12.4618,66.95853 -67.3079,127.05206 -149.625,172.11133 l -0.3711,0.1875 h -0.059 z"
       transform="translate(-195.979,1731)" /></g></svg>
