<?xml version="1.0" encoding="UTF-8" standalone="no"?>
<svg
   width="552.00012"
   height="552"
   xml:space="preserve"
   overflow="hidden"
   version="1.1"
   id="svg25"
   xmlns="http://www.w3.org/2000/svg"
   xmlns:svg="http://www.w3.org/2000/svg"><defs
     id="defs1" /><g
     id="g77"
     transform="translate(-3101.021,-1953)"><rect
       x="3297"
       y="222"
       width="552"
       height="552"
       fill="#ffffff"
       id="rect6-2"
       style="overflow:hidden"
       transform="translate(-195.979,1731)" /><path
       d="m 134.342,58.3808 c 17.761,0 35.522,7.2364 49.074,21.7091 l 49.073,52.4101 -49.073,52.41 c -27.103,28.946 -71.045,28.946 -98.1479,0 -27.1028,-28.945 -27.1028,-75.875 0,-104.8201 C 98.8196,65.6172 116.581,58.3808 134.342,58.3808 Z m 283.316,0 c 17.761,0 35.523,7.2364 49.074,21.7091 27.103,28.9451 27.103,75.8751 0,104.8201 -27.103,28.946 -71.045,28.946 -98.147,0 L 319.511,132.5 368.585,80.0899 C 382.136,65.6172 399.897,58.3808 417.658,58.3808 Z M 419.655,0 C 385.784,0 351.914,12.9362 326.072,38.8082 L 276,88.9387 225.928,38.8082 C 200.086,12.9362 166.216,0 132.345,0 98.475,0 64.6049,12.9362 38.7627,38.8082 c -51.6838,51.7444 -51.6838,135.6388 0,187.3838 51.6841,51.744 135.4813,51.744 187.1653,0 L 276,176.061 l 50.072,50.131 c 51.684,51.744 135.481,51.744 187.165,0 51.684,-51.745 51.684,-135.6394 0,-187.3838 C 487.395,12.9362 453.525,0 419.655,0 Z"
       fill-rule="evenodd"
       transform="matrix(-1,0,0,1,3653.021,2097)"
       id="path6-9"
       style="overflow:hidden" /></g></svg>
