<?xml version="1.0" encoding="UTF-8" standalone="no"?>
<svg
   width="552"
   height="552"
   xml:space="preserve"
   overflow="hidden"
   version="1.1"
   id="svg25"
   xmlns="http://www.w3.org/2000/svg"
   xmlns:svg="http://www.w3.org/2000/svg"><defs
     id="defs1" /><g
     id="g208"
     transform="translate(-620.02106,-6510.1836)"><rect
       x="620.02106"
       y="6510.1836"
       width="552"
       height="552"
       fill="#ffffff"
       id="rect197"
       style="overflow:hidden" /><path
       d="m 846.02106,6661.1836 c 0,-27.6112 22.38539,-50 50,-50 27.61461,0 50,22.3888 50,50 0,27.6111 -22.38539,50 -50,50 -27.61461,0 -50,-22.3889 -50,-50 z"
       fill-rule="evenodd"
       id="path206"
       style="overflow:hidden;stroke-width:0.999995" /><path
       d="m 846.02106,6911.1836 c 0,-27.6112 22.38539,-50 50,-50 27.61461,0 50,22.3888 50,50 0,27.6111 -22.38539,50 -50,50 -27.61461,0 -50,-22.3889 -50,-50 z"
       fill-rule="evenodd"
       id="path207"
       style="overflow:hidden;stroke-width:0.999995" /></g></svg>
