<?xml version="1.0" encoding="UTF-8" standalone="no"?>
<svg
   width="552"
   height="552"
   xml:space="preserve"
   overflow="hidden"
   version="1.1"
   id="svg25"
   xmlns="http://www.w3.org/2000/svg"
   xmlns:svg="http://www.w3.org/2000/svg"><defs
     id="defs1" /><g
     id="g194"
     transform="translate(-1239.8496,-6510.1836)"><rect
       x="1239.8496"
       y="6510.1836"
       width="552"
       height="552"
       fill="#ffffff"
       id="rect100"
       style="overflow:hidden" /><path
       d="m 1703.1696,6785.1836 62.68,14.36 -10.27,37.47 c -39.55,105.88 -132.15,180.17 -240.06,180.17 -107.92,0 -200.51,-74.29 -240.06,-180.17 l -9.61,-35.04 62.64,-14.35 6.83,26.63 c 29.69,84.89 99.19,144.45 180.2,144.45 81,0 150.5,-59.56 180.19,-144.45 z"
       fill-rule="evenodd"
       id="path110"
       style="overflow:hidden" /><rect
       x="1482.8496"
       y="6555.1836"
       width="65"
       height="161"
       id="rect151"
       style="overflow:hidden" /><path
       d="m 1689.5496,6587.8556 54.01,31.181 -80.55,139.519 -54.01,-31.182 z"
       fill-rule="evenodd"
       id="path167"
       style="overflow:hidden" /><path
       d="m 1287.5896,6619.0366 54.01,-31.181 80.55,139.518 -54.01,31.182 z"
       fill-rule="evenodd"
       id="path168"
       style="overflow:hidden" /></g></svg>
