<?xml version="1.0" encoding="UTF-8" standalone="no"?>
<svg
   width="552.00177"
   height="552.00098"
   xml:space="preserve"
   overflow="hidden"
   version="1.1"
   id="svg25"
   xmlns="http://www.w3.org/2000/svg"
   xmlns:svg="http://www.w3.org/2000/svg"><defs
     id="defs1" /><g
     id="g67"
     transform="translate(-1860.801,-2603.909)"><path
       d="m 2056.78,872.909 h 552 v 552.001 h -552 z"
       fill="#ffffff"
       fill-rule="evenodd"
       id="path21-2"
       style="overflow:hidden"
       transform="translate(-195.979,1731)" /><path
       d="m 2488.21,876.911 c -3.82,-0.024 -7.69,0.136 -11.59,0.494 -12.56,1.154 -25.35,4.37 -37.8,10.116 -12.19,5.626 -23.83,13.581 -34.4,24.064 -15.8,15.859 -29.21,33.613 -40.76,52.622 -11.44,18.822 -21.04,38.843 -29.34,59.403 -2.65,6.6 -5.15,13.28 -7.57,20.01 -19.91,-6.53 -40.35,-14.04 -60.86,-22.76 -37.33,-15.87 -69.86,-33.454 -97.86,-51.904 -27.73,-18.263 -47.57,-35.128 -60.86,-47.459 l -41.81,45.44 c 15.47,14.148 38.22,33.017 69.45,53.113 31.48,20.25 67.44,39.12 108.03,55.89 22.39,9.25 44.59,17.18 66.15,24.02 -3.73,13.25 -7.29,26.46 -10.59,39.41 -0.86,3.38 -1.72,6.76 -2.57,10.14 -2.48,9.86 -4.9,19.19 -7.32,28.83 -13.73,-2.52 -27.51,-4.67 -41.35,-6.07 -10.13,-1.02 -19.75,-1.55 -28.85,-1.68 -8.48,-0.12 -17,0.1 -25.45,0.75 -17.99,1.39 -35.94,4.77 -52.8,11.15 -17.38,6.6 -33.41,16.32 -46.83,29.97 -14.24,14.47 -24.38,32.18 -30.48,52.27 -3.61,12 -5.49,23.63 -5.89,34.77 -0.12,3.3 -0.1,6.55 0.03,9.72 0.65,14.97 3.99,28.51 9,40.37 10.72,25.34 29.43,44.2 50.4,56.11 17.24,9.79 38.06,16.07 60.5,16.21 3.73,0.02 7.51,-0.13 11.32,-0.46 12.42,-1.09 25.18,-4.16 37.72,-9.72 12.17,-5.38 23.92,-13.03 34.71,-23.17 14.43,-13.67 26.45,-29.56 36.69,-46.83 10.16,-17.12 18.62,-35.68 25.94,-54.89 4.46,-11.68 8.48,-23.89 12.34,-36.26 30.55,10.15 59.8,23.61 86.68,40.15 33.89,20.84 59.92,44.03 79.31,66.34 19.21,22.12 30.67,41.95 37.43,55.42 l 55.03,-27.98 c -8.72,-17.01 -23.2,-41.23 -46.78,-67.71 -23.71,-26.64 -54.72,-53.42 -94.03,-77.07 -31.76,-19.1 -66.05,-34.35 -101.65,-45.73 2.51,-9.63 4.94,-19.2 7.32,-28.56 -1.32,5.16 3.85,-15.19 2.54,-10.03 3.27,-12.87 6.6,-25.53 10,-38.07 15.67,3.77 30.69,7 44.61,9.63 14.37,2.72 27.88,3.93 40.25,4.06 5.27,0.06 10.5,-0.07 15.71,-0.4 18.69,-1.17 36.95,-4.91 53.88,-11.73 17.6,-7.11 33.58,-17.48 46.82,-31.4 13.98,-14.69 24.14,-32.5 30.24,-52.63 3.3,-10.95 5.16,-21.67 5.73,-32.04 0.23,-4.313 0.24,-8.529 0.04,-12.644 -0.71,-14.933 -4.11,-28.537 -9.24,-40.528 -10.8,-25.275 -29.56,-44.293 -50.7,-56.373 -17.44,-9.968 -38.27,-16.236 -60.49,-16.374 z m -0.45,58.504 c 10.95,0.123 21.33,3.786 29.87,9.486 10.36,6.911 18.35,16.971 22.63,28.817 2.02,5.605 3.37,11.993 3.57,19.159 0.06,1.996 0.03,4.081 -0.1,6.252 -0.32,5.211 -1.25,10.961 -3.07,17.251 -3.28,11.45 -8.23,20.85 -14.66,28.51 -6.15,7.31 -14.08,13.55 -24.07,18.28 -9.7,4.6 -21.23,7.72 -34.28,8.88 -3.61,0.31 -7.3,0.47 -11.08,0.48 -8.87,0.01 -18.85,-0.84 -29.7,-2.94 -12.06,-2.31 -24.95,-5.11 -38.43,-8.38 1.68,-4.82 3.27,-9.69 5.05,-14.39 6.94,-18.32 14.66,-35.4 23.58,-50.984 8.97,-15.691 19.09,-29.759 30.67,-42.003 5.3,-5.806 10.92,-9.987 16.57,-12.88 5.81,-2.967 11.82,-4.679 17.83,-5.288 1.88,-0.189 3.75,-0.27 5.62,-0.25 z m -270.01,293.675 c 7.24,0.03 15.09,0.44 23.53,1.3 10.76,1.1 21.47,2.75 32.13,4.63 -3.03,10.28 -6.18,20.31 -9.58,29.91 -6.05,17.04 -12.63,32.4 -20.13,45.93 -7.53,13.59 -15.82,25.03 -25.13,34.37 -5.58,5.74 -11.45,9.88 -17.31,12.73 -6.07,2.96 -12.28,4.64 -18.39,5.22 -1.88,0.17 -3.75,0.25 -5.6,0.23 -11.28,-0.14 -21.65,-3.88 -29.99,-9.43 -10.14,-6.75 -17.92,-16.58 -22.09,-28.24 -1.94,-5.45 -3.27,-11.76 -3.45,-18.94 -0.04,-1.54 -0.03,-3.14 0.04,-4.81 0.25,-5.55 1.18,-11.8 3.2,-18.75 3.24,-11.31 8.04,-20.18 14.2,-27.25 5.95,-6.83 13.62,-12.53 23.67,-17.02 9.9,-4.43 21.74,-7.46 35.28,-8.92 6.3,-0.67 12.87,-0.99 19.62,-0.96 z"
       fill-rule="evenodd"
       id="path22-3"
       style="overflow:hidden"
       transform="translate(-195.979,1731)" /></g></svg>
