<?xml version="1.0" encoding="UTF-8" standalone="no"?>
<svg
   width="552"
   height="552"
   xml:space="preserve"
   overflow="hidden"
   version="1.1"
   id="svg25"
   xmlns="http://www.w3.org/2000/svg"
   xmlns:svg="http://www.w3.org/2000/svg"><defs
     id="defs1" /><g
     id="g39"
     transform="translate(-620)"><rect
       x="816"
       y="222"
       width="552"
       height="552"
       fill="#ffffff"
       id="rect6"
       transform="translate(-196,-222)" /><path
       d="m 1091.66,280.447 c -32.31,0 -61.49,5.344 -87.52,16.034 -26.029,10.689 -48.133,25.675 -66.31,44.956 -18.178,19.282 -32.204,42.232 -42.077,68.85 -9.874,26.618 -14.812,55.646 -14.812,87.084 0,31.858 4.938,61.095 14.812,87.713 9.873,26.618 23.899,49.567 42.077,68.85 18.177,19.282 40.281,34.373 66.31,45.271 26.03,10.898 55.21,16.348 87.52,16.348 32.32,0 61.6,-5.45 87.86,-16.348 26.26,-10.898 48.47,-25.989 66.65,-45.271 18.18,-19.283 32.2,-42.232 42.08,-68.85 9.87,-26.618 14.81,-55.855 14.81,-87.713 0,-31.438 -4.94,-60.466 -14.81,-87.084 -9.88,-26.618 -23.9,-49.568 -42.08,-68.85 -18.18,-19.281 -40.39,-34.267 -66.65,-44.956 -26.26,-10.69 -55.54,-16.034 -87.86,-16.034 z M 1091.56,222 c 42.26,0 80.56,6.78 114.89,20.341 34.33,13.561 63.39,32.573 87.16,57.035 23.77,24.462 42.11,53.578 55.02,87.347 12.91,33.769 19.37,70.595 19.37,110.479 0,40.417 -6.46,77.509 -19.37,111.278 -12.91,33.768 -31.25,62.884 -55.02,87.346 -23.77,24.463 -52.83,43.608 -87.16,57.434 -34.33,13.826 -72.63,20.74 -114.89,20.74 -42.26,0 -80.41,-6.914 -114.45,-20.74 C 943.068,739.434 914.163,720.289 890.393,695.826 866.622,671.364 848.281,642.248 835.369,608.48 822.456,574.711 816,537.619 816,497.202 c 0,-39.884 6.456,-76.71 19.369,-110.479 12.912,-33.769 31.253,-62.885 55.024,-87.347 23.77,-24.462 52.675,-43.474 86.717,-57.035 C 1011.15,228.78 1049.3,222 1091.56,222 Z"
       fill-rule="evenodd"
       id="path7"
       transform="translate(-196,-222)" /></g></svg>
