<?xml version="1.0" encoding="UTF-8" standalone="no"?>
<svg
   width="552"
   height="552"
   xml:space="preserve"
   overflow="hidden"
   version="1.1"
   id="svg25"
   xmlns="http://www.w3.org/2000/svg"
   xmlns:svg="http://www.w3.org/2000/svg"><defs
     id="defs1" /><g
     id="g66"
     transform="translate(0,-3254.84)"><path
       d="m 195.979,1523.84 h 552 v 552 h -552 z"
       fill="#ffffff"
       fill-rule="evenodd"
       id="path23-1"
       style="overflow:hidden"
       transform="translate(-195.979,1731)" /><path
       d="m 419.832,1543.85 c -20.922,-0.24 -42.626,2.64 -63.579,7.92 -20.953,5.28 -40.988,13.24 -57.935,26.07 -16.948,12.84 -31.402,32.58 -33.106,56.72 -1.384,19.62 0.788,47.16 6.585,78.45 -41.115,42 -56.751,100.55 -50.482,161.62 10.047,97.88 87.052,166.82 177.253,179.64 31.546,4.48 70.414,3.6 107.392,-6.59 36.979,-10.2 74.614,-31.03 90.641,-70.74 11.055,-27.39 1.948,-57.44 -13.334,-76.46 -2.192,-2.73 -4.501,-5.32 -6.865,-7.84 20.512,-25.95 31.306,-57.21 30.996,-87.4 -0.356,-34.5 -13.579,-71.19 -36.849,-102.18 -5.426,-7.23 -11.6,-14.12 -18.347,-20.53 11.41,-3.62 23.487,-5.61 36.266,-5.07 22.136,0.93 40.573,17.65 55.589,48.06 15.016,30.4 22.943,71.47 22.383,102.21 -1.027,56.32 -20.937,139.99 -36.01,189.59 l 55.981,16.98 c 16.082,-52.9 37.282,-137.29 38.526,-205.51 0.743,-40.79 -8.183,-88.18 -28.417,-129.15 -20.234,-40.96 -55.444,-78.48 -105.581,-80.6 -39.072,-1.65 -73.285,10.92 -101.386,29.46 -7.275,-1.49 -14.824,-2.33 -22.654,-2.33 -55.774,0.01 -102.925,9.83 -140.767,28.26 -2.119,-16.48 -2.999,-29.52 -2.558,-35.75 0.304,-4.31 2.131,-8.23 10.075,-14.25 7.945,-6.01 21.411,-12.06 36.911,-15.97 31.001,-7.81 70.801,-5.88 86.367,0.37 l 21.799,-54.26 c -17.828,-7.15 -37.972,-10.49 -58.894,-10.72 z m 10.445,162.72 c -6.934,9.89 -12.851,19.86 -17.529,29.6 -8.579,17.86 -14.26,33.93 -12.856,52.65 2.197,29.33 19.073,52.05 37.443,69.45 12.9,12.23 26.973,22.41 40.788,32.04 -10.178,2.36 -21.486,3.75 -34.274,3.7 -17.059,-0.08 -32.02,-8.46 -47.958,-26.88 -15.938,-18.4 -30.576,-46.13 -41.89,-76.29 -6.776,-18.07 -12.197,-37.24 -16.63,-55.85 22.704,-14.3 53.265,-24.49 92.906,-28.42 z m 69.399,8.41 c 8.728,5.7 16.824,13.51 24.076,23.17 15.66,20.85 24.954,49.24 25.143,67.69 0.172,16.77 -4.833,35.29 -16.57,51.02 -1.151,-0.8 -2.299,-1.62 -3.446,-2.42 -19.31,-13.39 -38.295,-26.26 -51.277,-38.57 -12.982,-12.31 -18.685,-22.32 -19.366,-31.41 0.017,0.22 1.391,-10.79 7.257,-22.99 5.867,-12.21 15.302,-26.6 27.35,-39.64 2.179,-2.36 4.512,-4.6 6.833,-6.85 z m -208.944,72.04 c 2.634,8.09 5.44,16.22 8.486,24.34 12.875,34.32 29.5,67.54 52.425,94.02 22.924,26.48 54.426,46.92 91.956,47.08 34.413,0.15 63.859,-8.16 88.014,-21.76 2.296,2.23 4.449,4.4 6.03,6.37 7.452,9.27 7.996,9.83 4.696,18.01 -6.479,16.05 -24.849,28.78 -51.943,36.25 -27.094,7.47 -60.365,8.37 -83.587,5.07 -66.605,-9.47 -120.006,-56.75 -127.292,-127.73 -3.226,-31.42 0.564,-58.64 11.215,-81.65 z"
       fill-rule="evenodd"
       id="path24-9"
       style="overflow:hidden"
       transform="translate(-195.979,1731)" /></g></svg>
