<?xml version="1.0" encoding="UTF-8" standalone="no"?>
<svg
   width="552"
   height="552"
   xml:space="preserve"
   overflow="hidden"
   version="1.1"
   id="svg25"
   xmlns="http://www.w3.org/2000/svg"
   xmlns:svg="http://www.w3.org/2000/svg"><defs
     id="defs1" /><g
     id="g71"
     transform="translate(-620.021,-3255)"><rect
       x="816"
       y="1524"
       width="552"
       height="552"
       fill="#ffffff"
       id="rect15-1"
       style="overflow:hidden"
       transform="translate(-195.979,1731)" /><path
       d="m 1092.23,1582.45 c -25.64,0 -48.79,4.27 -69.45,12.82 -20.65,8.56 -38.194,20.54 -52.618,35.97 -14.425,15.42 -25.554,33.78 -33.39,55.08 -7.835,21.29 -11.753,44.52 -11.753,69.67 0,25.48 3.918,48.87 11.753,70.17 7.836,21.29 18.965,39.65 33.39,55.08 14.424,15.42 31.968,27.49 52.618,36.21 20.66,8.72 43.81,13.08 69.45,13.08 25.65,0 48.88,-4.36 69.72,-13.08 20.83,-8.72 38.46,-20.79 52.89,-36.21 14.42,-15.43 25.55,-33.79 33.39,-55.08 7.83,-21.3 11.75,-44.69 11.75,-70.17 0,-25.15 -3.92,-48.38 -11.75,-69.67 -7.84,-21.3 -18.97,-39.66 -33.39,-55.08 -14.43,-15.43 -32.06,-27.41 -52.89,-35.97 -20.84,-8.55 -44.07,-12.82 -69.72,-12.82 z m -0.1,-58.45 c 35.58,0 67.83,5.71 96.74,17.13 28.91,11.43 53.37,27.44 73.39,48.05 20.01,20.6 35.46,45.13 46.33,73.57 10.87,28.45 16.31,59.47 16.31,93.07 0,34.04 -5.44,65.29 -16.31,93.73 -10.87,28.45 -26.32,52.97 -46.33,73.58 l -9.68,7.99 83.42,106.4 -49.03,38.48 -86.62,-110.47 -11.48,5.98 c -28.91,11.65 -61.16,17.47 -96.74,17.47 -35.58,0 -67.71,-5.82 -96.369,-17.47 L 984.562,1965.64 898.034,2076 849,2037.52 l 83.413,-106.38 -9.669,-8.01 c -20.016,-20.61 -35.459,-45.13 -46.331,-73.58 -10.873,-28.44 -16.309,-59.69 -16.309,-93.73 0,-33.6 5.436,-64.62 16.309,-93.07 10.872,-28.44 26.315,-52.97 46.331,-73.57 20.015,-20.61 44.354,-36.62 73.017,-48.05 28.659,-11.42 60.789,-17.13 96.369,-17.13 z"
       fill-rule="evenodd"
       id="path16-0"
       style="overflow:hidden"
       transform="translate(-195.979,1731)" /></g></svg>
