<?xml version="1.0" encoding="UTF-8" standalone="no"?>
<svg
   width="553"
   height="552"
   xml:space="preserve"
   overflow="hidden"
   version="1.1"
   id="svg25"
   xmlns="http://www.w3.org/2000/svg"
   xmlns:svg="http://www.w3.org/2000/svg"><defs
     id="defs1" /><g
     id="g70"
     transform="translate(-1240.021,-3255)"><rect
       x="1436"
       y="1524"
       width="553"
       height="552"
       fill="#ffffff"
       id="rect16-0"
       style="overflow:hidden"
       transform="translate(-195.979,1731)" /><path
       d="m 1720.49,1861.15 -8.21,0.7 -7.79,-0.67 -100.1,142.97 h 216.22 v 0 0 z m -8.11,-213.6 c -11.73,0 -22.31,1.94 -31.76,5.83 -9.44,3.9 -17.46,9.35 -24.06,16.38 -6.6,7.02 -11.68,15.38 -15.27,25.07 -3.58,9.69 -5.37,20.27 -5.37,31.71 0,11.61 1.79,22.25 5.37,31.95 3.59,9.69 8.67,18.05 15.27,25.07 6.6,7.02 14.62,12.52 24.06,16.49 9.45,3.97 20.03,5.95 31.76,5.95 11.72,0 22.35,-1.98 31.88,-5.95 9.52,-3.97 17.58,-9.47 24.18,-16.49 6.6,-7.02 11.68,-15.38 15.27,-25.07 3.58,-9.7 5.37,-20.34 5.37,-31.95 0,-11.44 -1.79,-22.02 -5.37,-31.71 -3.59,-9.69 -8.67,-18.05 -15.27,-25.07 -6.6,-7.03 -14.66,-12.48 -24.18,-16.38 -9.53,-3.89 -20.16,-5.83 -31.88,-5.83 z M 1680.05,1525 h 64.9 v 70.06 l 23.53,6.59 c 16.79,6.64 31,15.94 42.63,27.91 11.62,11.98 20.59,26.23 26.91,42.75 l 6.92,25.24 H 1942 V 1756 h -97.2 l -6.78,24.84 c -6.32,16.53 -15.29,30.78 -26.91,42.75 -5.82,5.99 -12.28,11.32 -19.38,16.01 l -7.82,4.07 146.67,216.33 h -436.16 l 146.65,-216.29 -7.85,-4.11 c -7.07,-4.69 -13.51,-10.02 -19.33,-16.01 -11.62,-11.97 -20.59,-26.22 -26.91,-42.75 L 1580.19,1756 H 1483 v -58.45 h 97.06 l 6.92,-25.24 c 6.32,-16.52 15.29,-30.77 26.91,-42.75 11.63,-11.97 25.77,-21.27 42.42,-27.91 l 23.74,-6.69 z"
       fill-rule="evenodd"
       id="path17-3"
       style="overflow:hidden"
       transform="translate(-195.979,1731)" /></g></svg>
