<?xml version="1.0" encoding="UTF-8" standalone="no"?>
<svg
   width="552"
   height="552"
   xml:space="preserve"
   overflow="hidden"
   version="1.1"
   id="svg25"
   xmlns="http://www.w3.org/2000/svg"
   xmlns:svg="http://www.w3.org/2000/svg"><defs
     id="defs1" /><g
     id="g95"
     transform="translate(-5582,-1953)"><rect
       x="2057"
       y="222"
       width="552"
       height="552"
       fill="#ffffff"
       id="rect7-0"
       style="overflow:hidden"
       transform="translate(3525,1731)" /><rect
       x="2300"
       y="270"
       width="65"
       height="161"
       id="rect8-5"
       style="overflow:hidden"
       transform="translate(3525,1731)" /><path
       d="m 2506.7,276.672 54.01,31.181 -80.55,139.519 -54.01,-31.182 z"
       fill-rule="evenodd"
       id="path8-1"
       style="overflow:hidden"
       transform="translate(3525,1731)" /><path
       d="m 2104.74,307.853 54.01,-31.181 80.55,139.518 -54.01,31.182 z"
       fill-rule="evenodd"
       id="path9-1"
       style="overflow:hidden"
       transform="translate(3525,1731)" /><path
       d="m 2185.55,552.911 10.3,22.331 c 33.26,63.854 82.37,104.246 137.15,104.246 54.78,0 103.89,-40.392 137.15,-104.246 l 10.3,-22.331 z M 2107,497 h 28.95 30.49 333.12 12.52 46.92 l -4.36,21.023 C 2518.12,647.294 2432.64,738 2333,738 c -99.64,0 -185.13,-90.706 -221.64,-219.977 z"
       fill-rule="evenodd"
       id="path10-16"
       style="overflow:hidden"
       transform="translate(3525,1731)" /></g></svg>
