<?xml version="1.0" encoding="UTF-8" standalone="no"?>
<svg
   width="552"
   height="552"
   xml:space="preserve"
   overflow="hidden"
   version="1.1"
   id="svg25"
   xmlns="http://www.w3.org/2000/svg"
   xmlns:svg="http://www.w3.org/2000/svg"><defs
     id="defs1" /><g
     id="g68"
     transform="translate(-3101.021,-3255)"><rect
       x="3297"
       y="1524"
       width="552"
       height="552"
       fill="#ffffff"
       id="rect19-8"
       style="overflow:hidden"
       transform="translate(-195.979,1731)" /><path
       d="m 3662.57,1700.46 c -67.77,0 -132.03,29.73 -189.63,82.95 l -16.62,17.09 16.62,17.09 c 57.6,53.22 121.86,82.95 189.63,82.95 l 0.65,-0.07 v 0.07 l 24.62,-2.04 c 55.66,-9.32 97.54,-49.66 97.54,-98 0,-48.34 -41.88,-88.68 -97.54,-98 l -24.62,-2.04 v 0.07 z m 0,-58.46 0.65,0.06 V 1642 c 102.6,0 185.78,70.96 185.78,158.5 0,87.54 -83.18,158.5 -185.78,158.5 v -0.06 l -0.65,0.06 c -70.93,0 -138.49,-26.48 -199.95,-74.38 l -44.79,-39.75 -10.62,13.28 c -10.35,14.21 -20.39,29.25 -30.08,45.09 l -28.3,50.88 -51.83,-30.17 2.34,-4.74 c 23.24,-42.82 48.69,-81.55 76.02,-115.57 l 2.81,-3.14 -2.81,-3.14 c -27.33,-34.02 -52.78,-72.75 -76.02,-115.57 l -2.34,-4.74 51.83,-30.17 28.3,50.88 c 9.69,15.84 19.73,30.88 30.08,45.09 l 10.62,13.28 44.79,-39.75 c 61.46,-47.9 129.02,-74.38 199.95,-74.38 z"
       fill-rule="evenodd"
       id="path20-8"
       style="overflow:hidden"
       transform="translate(-195.979,1731)" /></g></svg>
