<?xml version="1.0" encoding="UTF-8" standalone="no"?>
<svg
   width="552"
   height="552"
   xml:space="preserve"
   overflow="hidden"
   version="1.1"
   id="svg25"
   xmlns="http://www.w3.org/2000/svg"
   xmlns:svg="http://www.w3.org/2000/svg"><defs
     id="defs1" /><g
     id="g89"
     transform="translate(-3721,-2604)"><rect
       x="196"
       y="873"
       width="552"
       height="552"
       fill="#ffffff"
       id="rect17"
       style="overflow:hidden"
       transform="translate(3525,1731)" /><path
       d="m 652.026,1011.81 -6.109,0.06 c -27.17,0.78 -51.893,7.19 -72.477,19.1 -29.371,16.98 -52.117,44.52 -64.81,90.64 13.78,14.05 27.933,20.4 42.563,22.26 18.457,2.37 38.701,-3.09 57.72,-16 32.321,-21.94 58.709,-64.46 61.905,-115.04 -6.351,-0.56 -12.637,-0.95 -18.792,-1.02 z m -358.483,0 c -6.156,0.07 -12.441,0.46 -18.792,1.02 3.196,50.58 29.583,93.1 61.905,115.04 19.019,12.91 39.263,18.37 57.72,16 14.63,-1.86 28.783,-8.21 42.562,-22.26 -12.692,-46.12 -35.438,-73.66 -64.81,-90.64 -20.583,-11.91 -45.307,-18.32 -72.477,-19.1 -2.02,-0.06 -4.058,-0.07 -6.108,-0.06 z M 649.217,953 l 0.055,0.003 6.684,0.412 v -0.069 l 21.27,1.093 c 9.379,0.924 18.785,2.283 28.176,4.047 l 23.543,4.422 2.717,23.841 c 9.391,82.401 -31.717,154.871 -90.275,191.581 -21.958,13.76 -46.812,22.67 -72.594,24.53 l -12.366,-0.27 -14.951,-0.69 c -12.603,-3.06 -25.127,-10.14 -37.216,-21.01 l 0.958,188.11 h -64.893 c -10e-4,-62.7 -10e-4,-125.4 -10e-4,-188.11 -12.089,10.87 -24.613,17.95 -37.216,21.01 l -15.968,0.73 -9.988,0.23 c -25.719,-1.86 -50.505,-10.78 -72.388,-24.57 -43.766,-27.55 -77.703,-75.19 -87.994,-132.03 L 214,1020.33 v -11.75 l 0.872,-21.815 2.704,-23.836 23.531,-4.439 c 10.695,-2.018 21.409,-3.505 32.08,-4.419 l 15.442,-0.473 v 0.119 l 16.377,-0.602 c 35.07,1.113 68.954,10.468 99.302,30.015 27.025,17.41 50.508,43.23 68.525,76.52 18.101,-33.31 41.689,-59.15 68.823,-76.55 30.451,-19.529 64.441,-28.876 99.627,-29.988 l 7.709,-0.109 z"
       fill-rule="evenodd"
       id="path18-6"
       style="overflow:hidden;fill:#ff0000;fill-opacity:1"
       transform="translate(3525,1731)" /></g></svg>
