<?xml version="1.0" encoding="UTF-8" standalone="no"?>
<svg
   width="552"
   height="552"
   xml:space="preserve"
   overflow="hidden"
   version="1.1"
   id="svg25"
   xmlns="http://www.w3.org/2000/svg"
   xmlns:svg="http://www.w3.org/2000/svg"><defs
     id="defs1" /><g
     id="g149"
     transform="translate(-9664.5342,-3644.176)"><rect
       x="9664.5342"
       y="3644.176"
       width="552"
       height="552"
       fill="#ffffff"
       id="rect138"
       style="overflow:hidden" /><path
       id="path138"
       style="overflow:hidden"
       d="m 9758.9043,3660.1758 v 199.0508 h 188.3301 v 53.789 l -6.8614,0.5801 c -12.3499,2.19 -24.029,5.4809 -35.039,9.8809 -22.04,8.78 -40.7509,21.0897 -56.1309,36.9296 -15.39,15.84 -27.2591,34.7004 -35.6191,56.5704 -4.18,10.93 -7.3104,22.3593 -9.4004,34.2793 l -2.0195,23.9785 5.8125,41.6426 -47.8243,-84.545 -44.6484,-56.6465 -48.9707,38.6309 126,159.8594 h 73.5 v -80.9102 h 0.3398 l -0.3593,-4.5801 c 0,-17.3799 2.6607,-33.4189 7.9707,-48.1289 5.32,-14.7099 12.8799,-27.4008 22.6699,-38.0507 9.79,-10.66 21.6988,-18.9397 35.7187,-24.8497 14.02,-5.9099 29.7307,-8.8593 47.1407,-8.8593 17.4,0 33.1803,2.9494 47.3203,8.8593 14.14,5.91 26.11,14.1897 35.9,24.8497 9.79,10.6499 17.351,23.3408 22.661,38.0507 5.32,14.71 7.978,30.749 7.978,48.1289 l -0.359,4.5801 h 0.39 v 80.9102 h 45.641 19.289 v -80.9102 h -0.391 l 0.391,-4.75 c 0,-25.8299 -4.179,-49.6791 -12.529,-71.539 -8.36,-21.87 -20.231,-40.7304 -35.621,-56.5704 -15.38,-15.8399 -34.191,-28.1496 -56.411,-36.9296 -11.11,-4.4 -22.869,-7.6909 -35.259,-9.8809 l -6.321,-0.5391 v -53.83 h 188.34 v -199.0508 h -188.34 -64.9586 z m 64.9102,58.5801 h 123.4199 v 81.8906 h -123.4199 z m 188.3785,0 h 123.43 v 81.8906 h -123.43 z" /></g></svg>
