<?xml version="1.0" encoding="UTF-8" standalone="no"?>
<svg
   width="552.00171"
   height="552"
   xml:space="preserve"
   overflow="hidden"
   version="1.1"
   id="svg25"
   xmlns="http://www.w3.org/2000/svg"
   xmlns:svg="http://www.w3.org/2000/svg"><defs
     id="defs1" /><g
     id="g108"
     transform="translate(-3100.999,-3906)"><path
       d="M 0,0 H 552 V 552 H 0 Z"
       fill="#ffffff"
       fill-rule="evenodd"
       transform="matrix(-1,0,0,1,3653,3906)"
       id="path22-1"
       style="overflow:hidden" /><path
       d="m 3435.19,359.925 -1.1,0.021 c -31.52,0.022 -61.79,29.192 -67.49,62.467 l -0.13,0.692 c -2.53,13.144 -3.97,26.594 -4.43,40.219 l 0.07,2.301 -0.07,0.664 c -0.47,13.104 0.02,26.377 1.36,39.693 l 5.59,34.871 0.82,5.286 c 2.89,13.807 6.5,27.529 10.7,41.037 l 0.03,0.097 c 17.29,56.196 62.01,103.506 116,117.921 l 0.2,0.053 c 59.44,16.279 124.16,14.373 179.04,-10.443 l 0.05,-0.018 c 53.45,-24.073 88.46,-83.977 99.82,-146.984 l 1.01,-6.948 4.91,-32.407 c 1.45,-12.883 2.28,-25.561 2.2,-37.851 l -0.1,-1.053 0.1,-1.741 c -0.17,-25.559 -3.99,-49.509 -13.81,-70.351 -14.06,-29.561 -54.23,-44.604 -85.53,-34.242 l -0.9,0.282 c -34.28,10.221 -66.1,28.006 -85.11,53.516 l -0.48,0.004 -25.64,27.135 -25.77,-27.277 h 0.44 l -20.08,-20.575 c -23.17,-19.099 -53.07,-31.731 -83.16,-36.08 -3,-0.261 -5.88,-0.385 -8.54,-0.289 z M 3540.87,222 h 64.95 v 123.473 l 11.34,-8.994 c 15.67,-10.849 31.89,-19.202 47.85,-25.671 15.31,-6.794 31.24,-9.751 47,-9.02 l -0.65,10e-4 0.65,-0.033 c 47.55,1.57 93.56,26.931 116.07,72.509 l 0.04,0.084 c 30.44,62.089 21.46,129.206 11.25,184.945 l -0.02,0.126 c -14.37,76.749 -58.78,154.725 -137.75,188.936 -70.56,30.681 -149.58,32.155 -221.24,13.305 -77.93,-20.038 -137.71,-81.984 -161.53,-156.38 -19.12,-59.183 -28.85,-124.945 -15.99,-189.895 11.2,-62.295 64.69,-113.06 130.81,-113.311 l 4.78,0.153 -4.78,0.008 c 5.73,-0.233 11.28,0.06 16.61,0.744 l 1.37,0.219 c 21.66,4.091 43.31,12.215 63.84,24.495 l 25.4,18.354 z"
       fill-rule="evenodd"
       id="path23-69"
       style="overflow:hidden"
       transform="translate(-196,3684)" /></g></svg>
