<?xml version="1.0" encoding="UTF-8" standalone="no"?>
<svg
   width="552"
   height="552"
   xml:space="preserve"
   overflow="hidden"
   version="1.1"
   id="svg25"
   xmlns="http://www.w3.org/2000/svg"
   xmlns:svg="http://www.w3.org/2000/svg"><defs
     id="defs1" /><g
     id="g285"
     transform="translate(-11202.901,-9401.5781)"><rect
       x="11202.901"
       y="9401.5781"
       width="552"
       height="552"
       fill="#ffffff"
       id="rect280"
       style="overflow:hidden" /><rect
       x="11445.901"
       y="9401.5781"
       width="65"
       height="270"
       id="rect281"
       style="overflow:hidden" /><path
       id="path281"
       style="fill:#000000;fill-opacity:1;stroke-width:58.48;stroke-miterlimit:3"
       d="m 11447.721,9700.5781 4.951,86.8008 -68.692,-48.8184 v -0.01 l -0.02,-0.014 -12.342,21.375 -5.966,10.334 -10.893,18.8652 0.104,0.053 75.546,37.2031 -1.382,0.707 1.382,0.7071 -75.546,37.2031 -0.104,0.053 10.688,18.5117 18.513,32.0625 0.03,-0.02 68.69,-48.8184 -4.951,86.8008 h 62.359 l -4.949,-86.8008 68.707,48.8301 0.01,0.01 29.201,-50.5742 -0.104,-0.053 -75.547,-37.2031 1.383,-0.7071 -1.383,-0.707 75.547,-37.2031 0.104,-0.053 -10.893,-18.8652 -5.967,-10.334 -12.341,-21.375 -0.02,0.014 v 0.01 l -68.689,48.8184 4.949,-86.8008 z" /></g></svg>
