<?xml version="1.0" encoding="UTF-8" standalone="no"?>
<svg
   width="552"
   height="552.00201"
   xml:space="preserve"
   overflow="hidden"
   version="1.1"
   id="svg25"
   xmlns="http://www.w3.org/2000/svg"
   xmlns:svg="http://www.w3.org/2000/svg"><defs
     id="defs1" /><g
     id="g288"
     transform="translate(-6231.025,-8607.2156)"><path
       d="m 6231.025,8607.2156 h 552 v 552.002 h -552 z"
       fill="#ffffff"
       fill-rule="evenodd"
       id="path285"
       style="overflow:hidden" /><path
       d="m 6595.8553,9016.0468 c 0,-24.85 19.923,-45 44.5,-45 24.577,0 44.5,20.15 44.5,45 0,24.85 -19.923,45 -44.5,45 -24.577,0 -44.5,-20.15 -44.5,-45 z"
       fill-rule="evenodd"
       id="path286"
       style="overflow:hidden" /><path
       d="m 6329.1943,8750.3857 c 0,-24.85 19.923,-45 44.5,-45 24.577,0 44.5,20.15 44.5,45 0,24.85 -19.923,45 -44.5,45 -24.577,0 -44.5,-20.15 -44.5,-45 z"
       fill-rule="evenodd"
       id="path287"
       style="overflow:hidden" /><rect
       x="10851.693"
       y="1433.5818"
       width="61.702148"
       height="493.27917"
       id="rect287"
       style="overflow:hidden;stroke-width:1"
       transform="rotate(45)" /></g></svg>
