<?xml version="1.0" encoding="UTF-8" standalone="no"?>
<svg
   width="552.0025"
   height="552.00201"
   xml:space="preserve"
   overflow="hidden"
   version="1.1"
   id="svg25"
   xmlns="http://www.w3.org/2000/svg"
   xmlns:svg="http://www.w3.org/2000/svg"><defs
     id="defs1" /><g
     id="g113"
     transform="translate(-619.914,-4556.908)"><path
       d="M 815.914,872.908 H 1367.91 V 1424.91 H 815.914 Z"
       fill="#ffffff"
       fill-rule="evenodd"
       id="path10-0"
       style="overflow:hidden"
       transform="translate(-196,3684)" /><path
       d="m 988.983,970.539 c 25.407,-31.57 70.257,-34.444 107.867,-35.093 48.69,1.691 101.45,12.132 138.18,46.309 21.17,18.042 12.31,46.795 2.67,68.315 -14.39,32.34 -13.82,70.71 5.83,100.83 17.07,32.68 45.85,58.85 58.1,93.96 7.64,26.49 -6.91,60.06 -37.5,60.22 -31.94,-3.37 -63.65,-20.26 -96.23,-9.27 -47.09,10.75 -75.52,59.22 -123.68,66.36 -35.15,8.49 -39.56,-32.36 -50.372,-55.15 -20.814,-50.06 -79.019,-66.27 -109.301,-108.22 -12.625,-29.12 6.581,-61.82 32.552,-76.05 32.436,-22.4 74.106,-46.46 75.965,-90.76 1.439,-20.61 -3.746,-40.934 -4.081,-61.451 z m -48.104,-32.871 c -21.75,24.744 -16.323,59.047 -12.326,88.762 -4.558,25.8 -36.18,34.97 -53.982,50.95 -48.842,29.72 -75.763,98.32 -46.592,150.44 24.279,42.86 75.307,59.69 104.547,97.89 14.903,31.82 25.991,71 61.136,86.4 49.618,21.49 106.228,0.69 146.628,-30.78 20.78,-14.16 43.05,-38.1 70.74,-28.56 32.63,11.29 70.27,16.51 101.58,-1.58 51.58,-23.19 68.78,-91.36 44.39,-140 -18.54,-39.08 -56.46,-68.83 -64.86,-112.48 5.63,-33.8 26.96,-65.55 20.14,-101.137 -8.63,-54.934 -60.58,-89.004 -109.97,-104.427 -66.82,-20.384 -141.81,-23.639 -207.63,2.188 -21.188,9.087 -40.729,23.093 -53.801,42.334 z"
       fill-rule="evenodd"
       id="path11-42"
       style="overflow:hidden"
       transform="translate(-196,3684)" /></g></svg>
