<?xml version="1.0" encoding="UTF-8" standalone="no"?>
<svg
   width="552"
   height="552"
   xml:space="preserve"
   overflow="hidden"
   version="1.1"
   id="svg25"
   xmlns="http://www.w3.org/2000/svg"
   xmlns:svg="http://www.w3.org/2000/svg"><defs
     id="defs1" /><g
     id="g295"
     transform="translate(-8878.9023,-9025.4531)"><rect
       x="8878.9023"
       y="9025.4531"
       width="552"
       height="552"
       fill="#ffffff"
       id="rect292"
       style="overflow:hidden" /><rect
       x="9130.9023"
       y="9025.4531"
       width="65"
       height="136"
       id="rect293"
       style="overflow:hidden" /><path
       d="m 9327.3822,9039.8951 54.01,31.181 -67.89,117.591 -54.01,-31.181 z"
       fill-rule="evenodd"
       id="path293"
       style="overflow:hidden" /><rect
       x="-3269.8723"
       y="12326.235"
       width="62.362179"
       height="135.78096"
       transform="matrix(-0.8660253,0.50000017,0.50000017,0.8660253,0,0)"
       id="rect294"
       style="overflow:hidden" /><path
       id="path294"
       style="overflow:hidden"
       d="m 9154.582,9198.4531 c -31.0899,0 -59.1397,4.6558 -84.1797,13.9668 -25.0399,9.311 -46.2993,22.3622 -63.7793,39.1582 -17.4899,16.795 -30.9807,36.7867 -40.4707,59.9727 -9.4999,23.185 -14.25,48.4695 -14.25,75.8535 0,26.941 4.5166,51.7132 13.4707,74.3516 l -68.832,39.7402 30.8496,53.4355 70.2364,-40.5507 c 2.8842,3.2239 5.8536,6.3808 8.996,9.3984 17.48,16.797 38.7394,29.9406 63.7793,39.4336 25.04,9.493 53.0898,14.2402 84.1797,14.2402 31.08,0 59.2501,-4.7472 84.5,-14.2402 25.25,-9.493 46.6197,-22.6366 64.0996,-39.4336 17.49,-16.795 30.9808,-36.7857 40.4707,-59.9707 9.5,-23.185 14.25,-48.6543 14.25,-76.4043 0,-26.4092 -4.4631,-50.8457 -13.2988,-73.3496 l 68.6621,-39.6426 -30.8515,-53.4355 -69.9161,40.3652 c -2.9821,-3.3526 -6.0563,-6.6331 -9.3164,-9.7637 -17.4799,-16.796 -38.8496,-29.8472 -64.0996,-39.1582 -25.2499,-9.311 -53.42,-13.9668 -84.5,-13.9668 z m 0.1,58.4082 c 21.12,0 40.26,3.2192 57.42,9.6602 17.1599,6.441 31.6805,15.4708 43.5605,27.0898 0.1165,0.114 0.2239,0.2353 0.3399,0.3496 l -233.4004,134.7539 c -3.7491,-12.7981 -5.6387,-26.5076 -5.6387,-41.1406 0,-18.944 3.2297,-36.4346 9.6797,-52.4746 6.46,-16.039 15.62,-29.8693 27.5,-41.4883 11.88,-11.619 26.3298,-20.6488 43.3398,-27.0898 17.01,-6.441 36.0793,-9.6602 57.1992,-9.6602 z m 132.6289,90.2696 c 3.6822,12.6532 5.5313,26.1326 5.5313,40.4433 0,19.197 -3.2297,36.8146 -9.6797,52.8535 -6.46,16.039 -15.62,29.8693 -27.5,41.4883 -11.88,11.619 -26.4006,20.7123 -43.5605,27.2793 -17.16,6.567 -36.3,9.8516 -57.42,9.8516 -21.1199,0 -40.1892,-3.2846 -57.1992,-9.8516 -17.01,-6.567 -31.4598,-15.6603 -43.3398,-27.2793 -0.035,-0.034 -0.067,-0.071 -0.1016,-0.1055 z" /></g></svg>
