<?xml version="1.0" encoding="UTF-8" standalone="no"?>
<svg
   width="553"
   height="552.00201"
   xml:space="preserve"
   overflow="hidden"
   version="1.1"
   id="svg25"
   xmlns="http://www.w3.org/2000/svg"
   xmlns:svg="http://www.w3.org/2000/svg"><defs
     id="defs1" /><g
     id="g112"
     transform="translate(-1239.85,-4556.908)"><path
       d="m 1435.85,872.908 h 553 v 552.002 h -553 z"
       fill="#ffffff"
       fill-rule="evenodd"
       id="path12-6"
       style="overflow:hidden"
       transform="translate(-196,3684)" /><path
       d="m 1671.3,893.968 c 0,0 0.4,-0.133 0,0 -13.04,4.387 -34.01,12.193 -54.64,24.946 -14.86,9.18 -28.78,20.414 -40.61,34.317 -11.35,13.336 -19.67,27.823 -25.45,43.022 -6.58,17.257 -9.34,34.007 -10.35,48.097 -0.27,3.85 -0.39,7.5 -0.4,10.96 -0.01,11.22 1.28,21.26 3.31,30.22 3.04,13.34 7.82,24.66 12.99,34.18 5.52,10.19 11.91,19.12 18.07,26.97 6.09,7.76 12.43,15.05 18.52,22.24 12.31,14.59 21.27,26.3 27.52,39.66 2.88,6.16 5.3,12.97 6.86,20.72 1.16,5.71 1.95,12.48 1.91,20.55 -0.01,1.68 -0.05,3.45 -0.14,5.32 -0.39,8.08 -2.12,17.7 -6.6,28.3 -3.89,9.19 -9.55,18.34 -17.01,26.89 -9.43,10.82 -20.46,19.24 -31.57,25.34 -10.98,6.05 -20.76,9.13 -27.14,10.73 -0.23,0.06 0,0 0,0 l 13.63,58.45 c 0,0 -0.34,0.07 0,0 9.79,-2.18 24.77,-6.32 41.76,-14.86 17.1,-8.6 34.53,-20.82 49.88,-37.23 12.15,-13.01 22.02,-27.63 29.13,-43.23 8.26,-18.15 11.92,-35.68 12.67,-51.26 0.14,-2.86 0.2,-5.63 0.21,-8.28 0.01,-12.94 -1.47,-24.41 -3.79,-34.56 -3.16,-13.77 -7.99,-25.49 -13.25,-35.46 -10.77,-20.42 -25.24,-36.88 -37.06,-50.87 -6.3,-7.47 -11.41,-13.68 -16.01,-20.04 -4.58,-6.33 -8.35,-12.42 -11.31,-18.6 -2.71,-5.67 -4.91,-11.8 -6.26,-18.65 -0.91,-4.62 -1.54,-10.02 -1.5,-16.39 0.01,-1.99 0.08,-4.15 0.25,-6.49 0.7,-9.82 2.33,-20.25 5.88,-30.45 3.07,-8.82 7.47,-17.18 13.72,-25.086 6.58,-8.349 14.95,-15.855 25.13,-22.628 14.46,-9.621 30.16,-16.133 41.27,-20.118 0.32,-0.116 0,0 0,0 z"
       fill-rule="evenodd"
       id="path13-19"
       style="overflow:hidden"
       transform="translate(-196,3684)" /><path
       d="m 1753.4,1404.85 c 0,0 -0.4,0.14 0,0 13.04,-4.39 34.01,-12.2 54.65,-24.95 14.86,-9.18 28.77,-20.41 40.6,-34.32 11.35,-13.33 19.68,-27.81 25.46,-43.01 6.58,-17.26 9.33,-34.01 10.34,-48.1 0.28,-3.85 0.4,-7.5 0.4,-10.96 0.01,-11.23 -1.27,-21.26 -3.3,-30.22 -3.04,-13.35 -7.84,-24.66 -12.99,-34.18 -5.53,-10.2 -11.91,-19.13 -18.07,-26.98 -6.09,-7.76 -12.45,-15.05 -18.52,-22.24 -12.32,-14.58 -21.28,-26.29 -27.52,-39.66 -2.89,-6.15 -5.31,-12.96 -6.88,-20.71 -1.15,-5.71 -1.94,-12.49 -1.9,-20.56 0.01,-1.67 0.06,-3.44 0.15,-5.31 0.39,-8.08 2.1,-17.71 6.59,-28.3 3.89,-9.19 9.55,-18.342 17,-26.894 9.44,-10.822 20.47,-19.237 31.58,-25.344 10.99,-6.039 20.76,-9.126 27.14,-10.729 0.22,-0.056 0,0 0,0 l -13.63,-58.44 c 0,0 0.34,-0.077 0,0 -9.78,2.176 -24.77,6.319 -41.76,14.86 -17.1,8.596 -34.53,20.808 -49.87,37.223 -12.17,13.008 -22.03,27.633 -29.14,43.233 -8.27,18.151 -11.92,35.671 -12.67,51.261 -0.14,2.86 -0.21,5.63 -0.21,8.27 -0.01,12.95 1.46,24.41 3.79,34.57 3.16,13.76 7.99,25.49 13.24,35.46 10.77,20.42 25.26,36.88 37.07,50.86 6.31,7.47 11.41,13.69 16,20.05 4.59,6.33 8.37,12.41 11.32,18.59 2.71,5.68 4.91,11.81 6.27,18.66 0.9,4.61 1.52,10.02 1.49,16.39 -0.01,1.99 -0.08,4.14 -0.25,6.48 -0.7,9.83 -2.32,20.26 -5.88,30.45 -3.08,8.82 -7.48,17.18 -13.71,25.09 -6.59,8.35 -14.96,15.86 -25.14,22.63 -14.46,9.62 -30.16,16.13 -41.27,20.12 -0.33,0.12 0,0 0,0 z"
       fill-rule="evenodd"
       id="path14-6"
       style="overflow:hidden"
       transform="translate(-196,3684)" /></g></svg>
