<?xml version="1.0" encoding="UTF-8" standalone="no"?>
<svg
   width="552"
   height="552"
   xml:space="preserve"
   overflow="hidden"
   version="1.1"
   id="svg25"
   xmlns="http://www.w3.org/2000/svg"
   xmlns:svg="http://www.w3.org/2000/svg"><defs
     id="defs1" /><g
     id="g323"
     transform="translate(-14768.582,-8038.5586)"><rect
       x="14768.582"
       y="8038.5586"
       width="552"
       height="552"
       fill="#ffffff"
       id="rect322"
       style="overflow:hidden" /><path
       id="path322"
       style="overflow:hidden;fill:#ff0101;fill-opacity:1"
       d="m 14817.583,8054.5584 v 0.1856 519.8144 h 454 v -519.8144 -0.1856 z m 64.923,58.4785 h 269.834 l -110.793,75.6426 -38,25.9453 -26.923,18.3809 v 37.2734 37.4395 208.3613 h -94.118 z m 324.153,37.6289 v 146.8399 l -145.047,-54.9317 z m -165.112,146.1055 165.112,67.377 v 151.9316 h -165.112 z" /><path
       d="m 15079.106,8426.2622 c 0,-24.85 19.923,-45 44.5,-45 24.577,0 44.5,20.15 44.5,45 0,24.85 -19.923,45 -44.5,45 -24.577,0 -44.5,-20.15 -44.5,-45 z"
       fill-rule="evenodd"
       id="path323"
       style="overflow:hidden" /></g></svg>
