<?xml version="1.0" encoding="UTF-8" standalone="no"?>
<svg
   width="553"
   height="552"
   xml:space="preserve"
   overflow="hidden"
   version="1.1"
   id="svg25"
   xmlns="http://www.w3.org/2000/svg"
   xmlns:svg="http://www.w3.org/2000/svg"><defs
     id="defs1" /><g
     id="g104"
     transform="translate(-3100,-4557)"><rect
       x="3296"
       y="873"
       width="552"
       height="552"
       fill="#ffffff"
       id="rect26-3"
       style="overflow:hidden"
       transform="translate(-196,3684)" /><path
       d="m 3572.4,946.057 c -9.48,0 -18.04,1.682 -25.68,5.045 -7.63,3.363 -14.12,8.077 -19.45,14.143 -5.34,6.066 -9.45,13.286 -12.35,21.66 -2.9,8.375 -4.34,17.505 -4.34,27.395 0,10.02 1.44,19.22 4.34,27.6 2.9,8.37 7.01,15.59 12.35,21.66 5.33,6.06 11.82,10.81 19.45,14.24 7.64,3.43 16.2,5.14 25.68,5.14 9.48,0 18.08,-1.71 25.78,-5.14 7.7,-3.43 14.22,-8.18 19.55,-14.24 5.34,-6.07 9.45,-13.29 12.35,-21.66 2.9,-8.38 4.34,-17.58 4.34,-27.6 0,-9.89 -1.44,-19.02 -4.34,-27.395 -2.9,-8.374 -7.01,-15.594 -12.35,-21.66 -5.33,-6.066 -11.85,-10.78 -19.55,-14.143 -7.7,-3.363 -16.3,-5.045 -25.78,-5.045 z M 3572.3,890 c 19.06,0 36.34,3.058 51.83,9.176 15.48,6.117 28.59,14.693 39.31,25.727 10.73,11.035 19,24.168 24.82,39.401 5.83,15.233 8.74,31.845 8.74,49.836 0,18.23 -2.91,34.96 -8.74,50.2 -5.82,15.23 -14.09,28.36 -24.82,39.4 -10.72,11.03 -23.83,19.67 -39.31,25.9 -15.49,6.24 -32.77,9.36 -51.83,9.36 -19.06,0 -36.27,-3.12 -51.62,-9.36 -15.36,-6.23 -28.4,-14.87 -39.12,-25.9 -10.72,-11.04 -19,-24.17 -24.82,-39.4 -5.83,-15.24 -8.74,-31.97 -8.74,-50.2 0,-17.991 2.91,-34.603 8.74,-49.836 5.82,-15.233 14.1,-28.366 24.82,-39.401 10.72,-11.034 23.76,-19.61 39.12,-25.727 15.35,-6.118 32.56,-9.176 51.62,-9.176 z"
       fill-rule="evenodd"
       id="path27-6"
       style="overflow:hidden"
       transform="translate(-196,3684)" /><path
       d="m 3419.9,1215.83 c -9.44,0 -17.97,1.68 -25.57,5.03 -7.61,3.35 -14.07,8.04 -19.38,14.08 -5.31,6.04 -9.41,13.24 -12.3,21.58 -2.88,8.34 -4.33,17.43 -4.33,27.28 0,9.99 1.45,19.15 4.33,27.49 2.89,8.34 6.99,15.53 12.3,21.57 5.31,6.04 11.77,10.77 19.38,14.19 7.6,3.41 16.13,5.12 25.57,5.12 9.44,0 18,-1.71 25.67,-5.12 7.68,-3.42 14.17,-8.15 19.48,-14.19 5.31,-6.04 9.41,-13.23 12.3,-21.57 2.88,-8.34 4.33,-17.5 4.33,-27.49 0,-9.85 -1.45,-18.94 -4.33,-27.28 -2.89,-8.34 -6.99,-15.54 -12.3,-21.58 -5.31,-6.04 -11.8,-10.73 -19.48,-14.08 -7.67,-3.35 -16.23,-5.03 -25.67,-5.03 z m -0.1,-55.83 c 18.99,0 36.19,3.05 51.62,9.14 15.43,6.09 28.48,14.63 39.16,25.62 10.68,10.99 18.92,24.07 24.72,39.25 5.8,15.17 8.7,31.71 8.7,49.63 0,18.16 -2.9,34.82 -8.7,50 -5.8,15.17 -14.04,28.25 -24.72,39.24 -10.68,10.99 -23.73,19.59 -39.16,25.8 -15.43,6.21 -32.63,9.32 -51.62,9.32 -18.98,0 -36.12,-3.11 -51.42,-9.32 -15.29,-6.21 -28.28,-14.81 -38.96,-25.8 -10.68,-10.99 -18.92,-24.07 -24.72,-39.24 -5.8,-15.18 -8.7,-31.84 -8.7,-50 0,-17.92 2.9,-34.46 8.7,-49.63 5.8,-15.18 14.04,-28.26 24.72,-39.25 10.68,-10.99 23.67,-19.53 38.96,-25.62 15.3,-6.09 32.44,-9.14 51.42,-9.14 z"
       fill-rule="evenodd"
       id="path28-7"
       style="overflow:hidden"
       transform="translate(-196,3684)" /><path
       d="m 3724.9,1215.83 c -9.44,0 -17.97,1.68 -25.57,5.03 -7.61,3.35 -14.07,8.04 -19.38,14.08 -5.31,6.04 -9.41,13.24 -12.3,21.58 -2.88,8.34 -4.33,17.43 -4.33,27.28 0,9.99 1.45,19.15 4.33,27.49 2.89,8.34 6.99,15.53 12.3,21.57 5.31,6.04 11.77,10.77 19.38,14.19 7.6,3.41 16.13,5.12 25.57,5.12 9.44,0 18,-1.71 25.68,-5.12 7.67,-3.42 14.16,-8.15 19.47,-14.19 5.31,-6.04 9.41,-13.23 12.3,-21.57 2.88,-8.34 4.33,-17.5 4.33,-27.49 0,-9.85 -1.45,-18.94 -4.33,-27.28 -2.89,-8.34 -6.99,-15.54 -12.3,-21.58 -5.31,-6.04 -11.8,-10.73 -19.47,-14.08 -7.68,-3.35 -16.24,-5.03 -25.68,-5.03 z m -0.1,-55.83 c 18.99,0 36.19,3.05 51.62,9.14 15.43,6.09 28.48,14.63 39.16,25.62 10.68,10.99 18.92,24.07 24.72,39.25 5.8,15.17 8.7,31.71 8.7,49.63 0,18.16 -2.9,34.82 -8.7,50 -5.8,15.17 -14.04,28.25 -24.72,39.24 -10.68,10.99 -23.73,19.59 -39.16,25.8 -15.43,6.21 -32.63,9.32 -51.62,9.32 -18.98,0 -36.12,-3.11 -51.42,-9.32 -15.29,-6.21 -28.28,-14.81 -38.96,-25.8 -10.68,-10.99 -18.92,-24.07 -24.72,-39.24 -5.8,-15.18 -8.7,-31.84 -8.7,-50 0,-17.92 2.9,-34.46 8.7,-49.63 5.8,-15.18 14.04,-28.26 24.72,-39.25 10.68,-10.99 23.67,-19.53 38.96,-25.62 15.3,-6.09 32.44,-9.14 51.42,-9.14 z"
       fill-rule="evenodd"
       id="path29-1"
       style="overflow:hidden"
       transform="translate(-196,3684)" /></g></svg>
