<?xml version="1.0" encoding="UTF-8" standalone="no"?>
<svg
   width="552"
   height="552"
   xml:space="preserve"
   overflow="hidden"
   version="1.1"
   id="svg25"
   xmlns="http://www.w3.org/2000/svg"
   xmlns:svg="http://www.w3.org/2000/svg"><defs
     id="defs1" /><g
     id="g103"
     transform="translate(-1860.78,-5207.84)"><path
       d="m 2056.78,1523.84 h 552 v 552 h -552 z"
       fill="#ffffff"
       fill-rule="evenodd"
       id="path30-1"
       style="overflow:hidden"
       transform="translate(-196,3684)" /><path
       d="m 2221.52,1659.3 c 0,0 -0.14,0.12 0,0 9.58,-7.87 21.08,-17.97 30.67,-25.84 9.62,-7.91 20.85,-16.68 33.08,-24.5 11.48,-7.34 23.48,-13.62 36.12,-18.12 13.38,-4.77 26.63,-7.24 40,-7.5 0.69,-0.02 1.36,-0.02 2.03,-0.02 11.69,-0.01 21.13,1.93 28.63,4.94 7.8,3.13 13.81,7.53 18.48,12.65 4.71,5.17 8.43,11.47 11.17,18.76 2.8,7.45 4.57,15.93 5.26,25.18 0.6,7.19 0.88,14.52 0.84,21.97 -0.11,22.79 -3.18,48.22 -9.99,75.98 -8.45,34.4 -22.07,69.88 -40.08,104.66 -23.15,44.76 -51.04,83.56 -78.67,114.78 -27.39,30.97 -52.08,51.78 -68.42,64.28 -0.41,0.32 0,0 0,0 l 37.34,49.16 c 0,0 -0.47,0.35 0,0 18.88,-14.23 46.9,-37.38 77.85,-71.64 31.08,-34.42 62.51,-77.19 88.74,-126.88 20.39,-38.61 36.25,-78.81 46.24,-118.76 8.07,-32.29 11.92,-62.92 11.97,-91.37 0.01,-9.32 -0.38,-18.62 -1.22,-27.84 -1.44,-15.04 -5.08,-30.05 -11.34,-44.13 -6.19,-13.92 -14.93,-26.85 -26.44,-37.76 -11.54,-10.92 -25.39,-19.37 -41.32,-24.9 -15.13,-5.25 -31.66,-7.71 -49.37,-7.55 -1.01,0.01 -2.03,0.03 -3.06,0.05 -19.73,0.51 -38.98,4.07 -57.93,10.55 -17.76,6.08 -33.82,14.24 -48.28,23.04 -15.26,9.3 -28.85,19.41 -39.44,27.63 -15.16,11.77 -25.59,20.41 -31.54,25.08 -0.13,0.1 0,0 0,0 z"
       fill-rule="evenodd"
       id="path31-4"
       style="overflow:hidden"
       transform="translate(-196,3684)" /><path
       d="m 2286.2,1724.84 c -10.96,44.77 -26.15,74.85 -53.42,110.41 l 50.31,38.59 c 31.21,-40.71 51.91,-81.74 64.69,-133.9 z"
       fill-rule="evenodd"
       id="path32-3"
       style="overflow:hidden"
       transform="translate(-196,3684)" /></g></svg>
