<?xml version="1.0" encoding="UTF-8" standalone="no"?>
<svg
   width="552"
   height="552"
   xml:space="preserve"
   overflow="hidden"
   version="1.1"
   id="svg25"
   xmlns="http://www.w3.org/2000/svg"
   xmlns:svg="http://www.w3.org/2000/svg"><defs
     id="defs1" /><g
     id="g54"
     transform="translate(-6819,-651)"><rect
       x="3294"
       y="873"
       width="552"
       height="552"
       fill="#ffffff"
       id="rect11-6"
       style="overflow:hidden"
       transform="translate(3525,-222)" /><path
       d="m 3697.8,1059.5 c -12.73,0 -24.22,2.2 -34.47,6.6 -10.25,4.39 -18.96,10.56 -26.12,18.49 -7.15,7.93 -12.68,17.38 -16.57,28.33 -3.89,10.95 -5.83,22.89 -5.83,35.82 0,13.11 1.94,25.14 5.83,36.09 3.89,10.95 9.42,20.39 16.57,28.32 7.16,7.93 15.87,14.14 26.12,18.62 10.25,4.49 21.74,6.73 34.47,6.73 12.73,0 24.26,-2.24 34.6,-6.73 10.34,-4.48 19.09,-10.69 26.25,-18.62 7.16,-7.93 12.69,-17.37 16.58,-28.32 3.88,-10.95 5.83,-22.98 5.83,-36.09 0,-12.93 -1.95,-24.87 -5.83,-35.82 -3.89,-10.95 -9.42,-20.4 -16.58,-28.33 -7.16,-7.93 -15.91,-14.1 -26.25,-18.49 -10.34,-4.4 -21.87,-6.6 -34.6,-6.6 z m -0.1,-58.5 c 22.67,0 43.21,3.64 61.63,10.91 18.42,7.27 34.01,17.46 46.76,30.58 12.75,13.12 22.59,28.73 29.52,46.84 6.93,18.11 10.39,37.85 10.39,59.24 0,21.67 -3.46,41.56 -10.39,59.67 -6.93,18.11 -16.77,33.72 -29.52,46.84 -12.75,13.12 -28.34,23.38 -46.76,30.8 -18.42,7.41 -38.96,11.12 -61.63,11.12 -22.67,0 -43.14,-3.71 -61.4,-11.12 -18.26,-7.42 -33.77,-17.68 -46.52,-30.8 -12.75,-13.12 -22.59,-28.73 -29.52,-46.84 -3.46,-9.05 -6.06,-18.55 -7.79,-28.5 l -0.13,-1.56 H 3294 v -58.36 h 258.29 l 0.18,-2.1 c 1.73,-9.87 4.33,-19.34 7.79,-28.39 6.93,-18.11 16.77,-33.72 29.52,-46.84 12.75,-13.12 28.26,-23.31 46.52,-30.58 18.26,-7.27 38.73,-10.91 61.4,-10.91 z"
       fill-rule="evenodd"
       id="path12-2"
       style="overflow:hidden"
       transform="translate(3525,-222)" /></g></svg>
