<?xml version="1.0" encoding="UTF-8" standalone="no"?>
<svg
   width="552"
   height="552"
   xml:space="preserve"
   overflow="hidden"
   version="1.1"
   id="svg25"
   xmlns="http://www.w3.org/2000/svg"
   xmlns:svg="http://www.w3.org/2000/svg"><defs
     id="defs1" /><g
     id="g88"
     transform="translate(-5582,-2604)"><rect
       x="2057"
       y="873"
       width="552"
       height="552"
       fill="#ffffff"
       id="rect18-6"
       style="overflow:hidden"
       transform="translate(3525,1731)" /><path
       d="m 2333,1198.6 -108.27,154.51 h 216.54 z m 178.87,-260.802 -6.12,0.055 c -27.22,0.785 -51.99,7.193 -72.62,19.091 -29.43,16.981 -52.22,44.516 -64.93,90.616 13.8,14.05 27.98,20.39 42.64,22.26 18.5,2.37 38.78,-3.09 57.83,-16 32.39,-21.93 58.83,-64.439 62.03,-115.005 -6.37,-0.564 -12.66,-0.951 -18.83,-1.017 z m -359.17,0 c -6.17,0.066 -12.47,0.453 -18.83,1.017 3.2,50.566 29.64,93.075 62.02,115.005 19.06,12.91 39.34,18.37 57.83,16 14.66,-1.87 28.84,-8.21 42.65,-22.26 -12.72,-46.1 -35.51,-73.635 -64.94,-90.616 -20.62,-11.898 -45.39,-18.306 -72.61,-19.091 -2.03,-0.055 -4.07,-0.066 -6.12,-0.055 z M 2509.06,879 l 0.05,0.003 6.7,0.412 v -0.069 l 21.31,1.092 c 9.4,0.924 18.82,2.283 28.23,4.046 l 23.59,4.421 2.72,23.835 c 9.41,82.374 -31.78,154.83 -90.45,191.53 -22,13.76 -46.9,22.66 -72.73,24.52 l -12.39,-0.27 -14.98,-0.69 c -12.63,-3.05 -25.18,-10.14 -37.29,-21 l 2.09,30.08 184.65,272.09 h -435.12 l 184.32,-271.6 c 0,-10.19 0,-20.38 0,-30.57 -12.11,10.86 -24.66,17.95 -37.29,21 l -16,0.74 -10,0.22 c -25.77,-1.86 -50.61,-10.78 -72.53,-24.56 -43.85,-27.55 -77.85,-75.17 -88.16,-131.993 L 2073,946.31 v -11.745 l 0.87,-21.809 2.71,-23.83 23.58,-4.438 c 10.71,-2.017 21.45,-3.504 32.14,-4.417 l 15.47,-0.473 v 0.119 l 16.41,-0.602 c 35.14,1.113 69.09,10.466 99.49,30.007 27.08,17.403 50.61,43.22 68.66,76.498 18.14,-33.302 41.77,-59.132 68.96,-76.528 30.51,-19.523 64.56,-28.869 99.82,-29.98 l 7.72,-0.109 z"
       fill="#ff0000"
       fill-rule="evenodd"
       id="path19-10"
       style="overflow:hidden"
       transform="translate(3525,1731)" /></g></svg>
