<?xml version="1.0" encoding="UTF-8" standalone="no"?>
<svg
   width="552"
   height="552"
   xml:space="preserve"
   overflow="hidden"
   version="1.1"
   id="svg25"
   xmlns="http://www.w3.org/2000/svg"
   xmlns:svg="http://www.w3.org/2000/svg"><defs
     id="defs1" /><g
     id="g119"
     transform="translate(-3101,-5208)"><rect
       x="3297"
       y="1524"
       width="552"
       height="552"
       fill="#ffffff"
       id="rect2-6"
       style="overflow:hidden"
       transform="translate(-196,3684)" /><path
       d="m 3364.08,1762.59 -2.14,36.78 c 0,31.86 3.51,61.1 10.53,87.71 7.02,26.62 16.99,49.57 29.91,68.85 12.92,19.29 28.63,34.38 47.13,45.27 18.5,10.9 39.24,16.35 62.21,16.35 22.96,0 43.78,-5.45 62.44,-16.35 18.66,-10.89 34.46,-25.98 47.38,-45.27 12.92,-19.28 22.88,-42.23 29.9,-68.85 7.02,-26.61 10.53,-55.85 10.53,-87.71 l -2.13,-36.78 z m 147.64,-180.14 c -22.97,0 -43.71,5.34 -62.21,16.03 -18.5,10.69 -34.21,25.68 -47.13,44.96 -6.46,9.64 -12.19,20.2 -17.17,31.67 l -10.84,31.64 h 275.17 l -10.84,-31.64 c -4.98,-11.47 -10.71,-22.03 -17.16,-31.67 -12.92,-19.28 -28.72,-34.27 -47.38,-44.96 -18.66,-10.69 -39.48,-16.03 -62.44,-16.03 z m -0.11,-58.45 c 32.91,0 62.74,6.78 89.48,20.34 26.74,13.56 49.37,32.57 67.88,57.04 18.52,24.46 32.8,53.57 42.86,87.34 l 3.29,15.43 H 3849 v 58.44 h -124.49 l 2.4,36.61 c 0,40.42 -5.03,77.51 -15.08,111.28 -10.06,33.77 -24.34,62.88 -42.86,87.35 -18.51,24.46 -41.14,43.6 -67.88,57.43 -26.74,13.83 -56.57,20.74 -89.48,20.74 -32.91,0 -62.62,-6.91 -89.13,-20.74 -26.52,-13.83 -49.03,-32.97 -67.54,-57.43 -18.51,-24.47 -32.8,-53.58 -42.86,-87.35 -10.05,-33.77 -15.08,-70.86 -15.08,-111.28 0,-39.88 5.03,-76.71 15.08,-110.48 10.06,-33.77 24.35,-62.88 42.86,-87.34 18.51,-24.47 41.02,-43.48 67.54,-57.04 26.51,-13.56 56.22,-20.34 89.13,-20.34 z"
       fill-rule="evenodd"
       id="path2-2"
       style="overflow:hidden"
       transform="translate(-196,3684)" /></g></svg>
