<?xml version="1.0" encoding="UTF-8" standalone="no"?>
<svg
   width="552.00012"
   height="552"
   xml:space="preserve"
   overflow="hidden"
   version="1.1"
   id="svg25"
   xmlns="http://www.w3.org/2000/svg"
   xmlns:svg="http://www.w3.org/2000/svg"><defs
     id="defs1" /><g
     id="g244"
     transform="translate(-12445.619,-42.8396)"><rect
       x="12445.619"
       y="42.8396"
       width="552"
       height="552"
       fill="#ffffff"
       id="rect48"
       style="overflow:hidden" /><path
       id="rect101"
       style="fill:#000000;fill-opacity:1;stroke-width:37.678;stroke-miterlimit:3"
       d="m 12610.338,64.390625 -53.436,30.851563 70.881,122.769532 52.254,77.68164 -92.926,-6.09375 h -141.492 v 58.48047 h 141.492 l 92.926,-5.85742 -52.254,77.44531 -70.881,122.76953 53.436,30.85156 70.803,-122.63476 40.476,-84.85547 40.483,84.85351 70.802,122.63477 53.436,-30.84961 -70.883,-122.76953 -52.258,-77.44531 92.93,5.85742 h 141.492 v -58.48047 h -141.172 l -93.25,6.09375 52.377,-77.88672 70.764,-122.564452 -53.436,-30.851563 -70.752,122.546875 -40.533,85.17969 -40.474,-85.0918 z" /></g></svg>
