<?xml version="1.0" encoding="UTF-8" standalone="no"?>
<svg
   width="552"
   height="552"
   xml:space="preserve"
   overflow="hidden"
   version="1.1"
   id="svg25"
   xmlns="http://www.w3.org/2000/svg"
   xmlns:svg="http://www.w3.org/2000/svg"><defs
     id="defs1" /><g
     id="g124"
     transform="translate(-5582,-3906)"><rect
       x="2057"
       y="222"
       width="552"
       height="552"
       fill="#ffffff"
       id="rect18-8"
       style="overflow:hidden"
       transform="translate(3525,3684)" /><path
       d="M 2222,243 2333,451.159 2444,243 l 54,31.22 v 0 l -0.1,0.161 -123.32,200.354 c 78.12,-2 154.53,-6.582 234.37,-6.002 0.02,19.512 0.03,39.024 0.05,58.535 -77.28,0.58 -156.28,-4.002 -234.42,-6.004 l 123.32,200.355 0.1,0.161 v 10e-4 L 2444,753 2333,544.841 2222,753 2168,721.781 v -10e-4 0 l 0.11,-0.164 123.31,-200.352 c -78.12,2.001 -156.25,6.583 -234.37,6.003 L 2057,468.732 v 0 l 0.05,10e-4 c 80.7,-0.58 156.25,4.002 234.37,6.002 L 2168.11,274.388 2168,274.22 v 0 0 z"
       fill-rule="evenodd"
       id="path19-12"
       style="overflow:hidden;fill:#ff0000;fill-opacity:1"
       transform="translate(3525,3684)" /></g></svg>
