<?xml version="1.0" encoding="UTF-8" standalone="no"?>
<svg
   width="552"
   height="552"
   xml:space="preserve"
   overflow="hidden"
   version="1.1"
   id="svg25"
   xmlns="http://www.w3.org/2000/svg"
   xmlns:svg="http://www.w3.org/2000/svg"><defs
     id="defs1" /><g
     id="g110"
     transform="translate(-2481,-4557)"><path
       d="M 0,0 H 552 V 552 H 0 Z"
       fill="#ffffff"
       fill-rule="evenodd"
       transform="matrix(-1,0,0,1,3033,4557)"
       id="path18-7"
       style="overflow:hidden" /><path
       d="m 2694.77,1084.08 c 0,0 -0.12,-0.45 0,0 4.3,16.28 12.04,42.09 24.64,67.07 9.03,17.94 20.15,34.68 34.04,48.75 13.4,13.6 28.16,23.46 43.92,30.09 18.03,7.59 35.43,10.13 49.87,10.79 2.49,0.11 4.88,0.15 7.2,0.12 13.37,-0.13 25.19,-2.31 35.6,-5.6 13.67,-4.33 25.29,-10.7 35.03,-17.37 10.35,-7.1 19.53,-15.19 27.63,-23.18 8.03,-7.91 15.5,-16.15 22.9,-24.46 7.52,-8.43 13.81,-15.6 20.5,-22.46 6.58,-6.78 13.05,-12.74 19.76,-17.64 6.28,-4.61 13.04,-8.48 20.58,-11.12 6.35,-2.22 13.92,-3.81 23.15,-3.88 0.58,0 1.17,0 1.77,0.01 7.34,0.09 16.33,1.93 26.37,7.48 8.68,4.79 17.56,12.08 25.93,22.07 10.56,12.62 18.74,27.68 24.57,43.19 5.77,15.35 8.46,29.06 9.87,38.12 0.04,0.29 0,0 0,0 l 62.59,-10.35 c 0,0 0.07,0.37 0,0 -2.09,-11.83 -6.19,-30.02 -14.57,-50.44 -8.43,-20.56 -20.47,-41.55 -36.79,-59.86 -13.01,-14.57 -27.76,-26.36 -43.76,-34.66 -18.86,-9.79 -37.1,-13.56 -53.34,-13.82 -1,-0.02 -1.97,-0.02 -2.94,-0.02 -15.71,0.06 -29.44,2.58 -41.44,6.42 -14.09,4.5 -26.14,10.93 -36.36,17.78 -10.8,7.23 -20.32,15.44 -28.72,23.56 -8.35,8.08 -16.02,16.49 -23.42,24.81 -7.76,8.69 -13.78,15.64 -20.35,22.54 -6.44,6.77 -12.58,12.57 -18.83,17.28 -5.81,4.38 -11.89,7.93 -18.53,10.26 -5,1.73 -10.84,2.97 -17.86,3.07 -1.24,0.01 -2.54,0 -3.92,-0.06 -9.41,-0.42 -19.33,-2.23 -28.89,-6.57 -8.21,-3.74 -16.19,-9.35 -23.87,-17.67 -8.13,-8.82 -15.46,-20.22 -22,-34.14 -9.24,-19.71 -15.19,-40.9 -18.84,-55.7 -0.1,-0.39 0,0 0,0 z"
       fill-rule="evenodd"
       id="path19-0"
       style="overflow:hidden"
       transform="translate(-196,3684)" /></g></svg>
