<?xml version="1.0" encoding="UTF-8" standalone="no"?>
<svg
   width="552"
   height="552"
   xml:space="preserve"
   overflow="hidden"
   version="1.1"
   id="svg25"
   xmlns="http://www.w3.org/2000/svg"
   xmlns:svg="http://www.w3.org/2000/svg"><defs
     id="defs1" /><g
     id="g90"
     transform="translate(-4341,-3255)"><rect
       x="816"
       y="1524"
       width="552"
       height="552"
       fill="#ffffff"
       id="rect15-7"
       style="overflow:hidden"
       transform="translate(3525,1731)" /><path
       d="m 958.592,1595.91 h -10e-4 l 18.134,36.96 c 29.735,50 70.815,80.92 116.185,80.92 45.38,0 86.46,-30.92 116.19,-80.92 l 18.14,-36.96 z M 878,1540 h 428 l -5.75,27.31 -10.52,28.6 -10.31,28.05 C 1238.8,1712.67 1170.02,1771 1092,1771 c -78.02,0 -146.8,-58.33 -187.416,-147.04 l -10.319,-28.05 -10.52,-28.6 z"
       fill-rule="evenodd"
       id="path16-63"
       style="overflow:hidden"
       transform="translate(3525,1731)" /><path
       d="M 1092.5,1843.29 984.188,1998.03 H 1200.81 Z M 1046.58,1800 h 91.84 l 12.64,18.07 122,179.96 L 1311,2054 H 1239.99 945.013 874 l 37.94,-55.97 121.97,-179.93 z"
       fill-rule="evenodd"
       id="path17-4"
       style="overflow:hidden"
       transform="translate(3525,1731)" /></g></svg>
