<?xml version="1.0" encoding="UTF-8" standalone="no"?>
<svg
   width="552"
   height="552"
   xml:space="preserve"
   overflow="hidden"
   version="1.1"
   id="svg25"
   xmlns="http://www.w3.org/2000/svg"
   xmlns:svg="http://www.w3.org/2000/svg"><defs
     id="defs1" /><g
     id="g2"
     transform="translate(-3721,-1953)"><rect
       x="3721"
       y="1953"
       width="552"
       height="552"
       fill="#ffffff"
       id="rect6-2-4"
       style="overflow:hidden" /><path
       id="path101"
       style="overflow:hidden"
       d="m 4055.9586,1997 c -30.732,0 -58.4765,4.9308 -83.2324,14.8008 -24.757,9.87 -45.7805,23.7 -63.0664,41.5 -17.288,17.7899 -30.6247,38.9788 -40.0157,63.5488 -4.695,12.28 -8.2164,25.1215 -10.5644,38.5215 l -3.4571,41.0801 h -0.066 v 0.7792 157.1329 l 6.8868,49.3379 -48.252,-85.3028 0.7852,0.582 -45.0098,-57.0996 L 3721,2300.5097 3847.5098,2461 h 60.3925 12.6133 v -263.5996 -0.9492 h 0.076 l 2.3066,-28.7208 c 1.588,-9.4999 3.9686,-18.6007 7.1446,-27.3007 6.351,-17.42 15.3734,-32.4291 27.0664,-45.0391 11.692,-12.62 25.9112,-22.4202 42.6562,-29.4102 16.745,-6.9999 35.5099,-10.4902 56.2969,-10.4902 20.787,0 39.6257,3.4903 56.5137,10.4902 16.89,6.99 31.181,16.7902 42.873,29.4102 11.693,12.61 20.7135,27.6191 27.0645,45.0391 3.176,8.7 5.5585,17.8008 7.1465,27.3007 l 2.3066,28.7208 h 0.076 v 0.9492 V 2461 h 64.957 v -263.7696 -0.7792 h -0.064 l -3.4571,-41.0801 c -2.347,-13.4 -5.8694,-26.2415 -10.5644,-38.5215 -9.39,-24.57 -22.7287,-45.7589 -40.0157,-63.5488 -17.2869,-17.8 -38.4167,-31.63 -63.3867,-41.5 -24.97,-9.87 -52.8197,-14.8008 -83.5527,-14.8008 z" /></g></svg>
