<?xml version="1.0" encoding="UTF-8" standalone="no"?>
<svg
   width="552"
   height="552"
   xml:space="preserve"
   overflow="hidden"
   version="1.1"
   id="svg25"
   xmlns="http://www.w3.org/2000/svg"
   xmlns:svg="http://www.w3.org/2000/svg"><defs
     id="defs1" /><g
     id="g47"
     transform="translate(-5582,-1302)"><rect
       x="2057"
       y="1524"
       width="552"
       height="552"
       fill="#ffffff"
       id="rect29"
       style="overflow:hidden"
       transform="translate(3525,-222)" /><path
       d="M 0,45 C 0,20.1472 20.1472,0 45,0 69.8529,0 90.0001,20.1472 90.0001,45 90.0001,69.8529 69.8529,90.0001 45,90.0001 20.1472,90.0001 0,69.8529 0,45 Z"
       fill-rule="evenodd"
       transform="matrix(-1,0,0,1,5903,1533)"
       id="path29"
       style="overflow:hidden" /><path
       d="m 2332.66,1693.46 c -32.31,0 -61.49,2.62 -87.52,7.86 -26.03,5.23 -48.13,12.57 -66.31,22.01 -18.18,9.44 -32.2,20.68 -42.08,33.72 -9.87,13.03 -14.81,27.25 -14.81,42.64 0,15.6 4.94,29.92 14.81,42.96 9.88,13.03 23.9,24.27 42.08,33.71 18.18,9.44 40.28,16.83 66.31,22.17 26.03,5.34 55.21,8.01 87.52,8.01 32.32,0 61.6,-2.67 87.86,-8.01 26.26,-5.34 48.47,-12.73 66.65,-22.17 18.18,-9.44 32.2,-20.68 42.08,-33.71 9.87,-13.04 14.81,-27.36 14.81,-42.96 0,-15.39 -4.94,-29.61 -14.81,-42.64 -9.88,-13.04 -23.9,-24.28 -42.08,-33.72 -18.18,-9.44 -40.39,-16.78 -66.65,-22.01 -26.26,-5.24 -55.54,-7.86 -87.86,-7.86 z m -0.1,-58.46 c 42.26,0 80.55,4.05 114.89,12.16 34.33,8.11 63.39,19.47 87.16,34.1 23.77,14.62 42.11,32.03 55.02,52.22 12.91,20.18 19.37,42.2 19.37,66.04 0,24.16 -6.46,46.34 -19.37,66.53 -12.91,20.19 -31.25,37.59 -55.02,52.22 -23.77,14.62 -52.83,26.07 -87.16,34.33 -34.34,8.27 -72.63,12.4 -114.89,12.4 -42.26,0 -80.41,-4.13 -114.45,-12.4 -34.04,-8.26 -62.95,-19.71 -86.72,-34.33 -23.77,-14.63 -42.11,-32.03 -55.02,-52.22 -12.91,-20.19 -19.37,-42.37 -19.37,-66.53 0,-23.84 6.46,-45.86 19.37,-66.04 12.91,-20.19 31.25,-37.6 55.02,-52.22 23.77,-14.63 52.68,-25.99 86.72,-34.1 34.04,-8.11 72.19,-12.16 114.45,-12.16 z"
       fill-rule="evenodd"
       id="path30"
       style="overflow:hidden"
       transform="translate(3525,-222)" /></g></svg>
