<?xml version="1.0" encoding="UTF-8" standalone="no"?>
<svg
   width="552"
   height="552"
   xml:space="preserve"
   overflow="hidden"
   version="1.1"
   id="svg25"
   xmlns="http://www.w3.org/2000/svg"
   xmlns:svg="http://www.w3.org/2000/svg"><defs
     id="defs1" /><g
     id="g92"
     transform="translate(-6202,-2604)"><rect
       x="2677"
       y="873"
       width="552"
       height="552"
       fill="#ffffff"
       id="rect13-0"
       style="overflow:hidden"
       transform="translate(3525,1731)" /><path
       d="m 2726,888 h 64.86 v 268.29 0 0.05 c 0,30.75 3.79,58.97 11.38,84.66 7.58,25.69 18.36,47.84 32.32,66.46 13.97,18.61 30.95,33.17 50.95,43.69 19.99,10.52 42.41,15.78 67.23,15.78 24.83,0 47.33,-5.26 67.5,-15.78 20.17,-10.52 37.24,-25.08 51.2,-43.69 13.96,-18.62 24.74,-40.77 32.32,-66.46 3.8,-12.85 6.64,-26.32 8.54,-40.44 l 2.84,-44.22 v -0.01 -0.04 0 V 888 H 3180 v 269.15 h -0.1 l -3.88,55.13 c -2.66,18.04 -6.64,35.27 -11.95,51.7 -10.62,32.85 -25.7,61.17 -45.25,84.97 -19.55,23.8 -43.45,42.42 -71.69,55.87 -28.24,13.45 -59.74,20.18 -94.49,20.18 -34.76,0 -66.13,-6.73 -94.13,-20.18 -28,-13.45 -51.77,-32.07 -71.32,-55.87 -19.55,-23.8 -34.64,-52.12 -45.26,-84.97 -5.31,-16.43 -9.29,-33.66 -11.95,-51.7 l -3.88,-55.13 h -0.1 z"
       fill-rule="evenodd"
       id="path14-2"
       style="overflow:hidden"
       transform="translate(3525,1731)" /></g></svg>
