<?xml version="1.0" encoding="UTF-8" standalone="no"?>
<svg
   width="552"
   height="552"
   xml:space="preserve"
   overflow="hidden"
   version="1.1"
   id="svg25"
   xmlns="http://www.w3.org/2000/svg"
   xmlns:svg="http://www.w3.org/2000/svg"><defs
     id="defs1" /><g
     id="g26"
     transform="translate(-1861,-651)"><rect
       x="2057"
       y="873"
       width="552"
       height="552"
       fill="#ffffff"
       id="rect24"
       transform="translate(-196,-222)" /><path
       d="m 2362.22,1176.92 v 187.02 l 16.64,-1.47 c 14.65,-2.73 28.53,-6.82 41.66,-12.27 26.26,-10.89 48.47,-25.98 66.65,-45.27 18.18,-19.28 32.2,-42.23 42.08,-68.85 4.94,-13.3 8.64,-27.27 11.11,-41.89 l 1.39,-17.27 z m -237.97,0 1.39,17.27 c 2.47,14.62 6.18,28.59 11.11,41.89 9.88,26.62 23.9,49.57 42.08,68.85 18.18,19.29 40.28,34.38 66.31,45.27 13.02,5.45 26.82,9.54 41.41,12.27 l 17.23,1.52 v -187.07 z m 237.97,-242.908 v 187.068 h 179.61 l -1.47,-18.06 c -2.47,-14.51 -6.17,-28.42 -11.11,-41.73 -9.88,-26.62 -23.9,-49.57 -42.08,-68.853 -18.18,-19.281 -40.39,-34.267 -66.65,-44.956 -13.13,-5.345 -27.01,-9.353 -41.66,-12.026 z m -58.44,-0.054 -17.23,1.497 c -14.59,2.673 -28.39,6.681 -41.41,12.026 -26.03,10.689 -48.13,25.675 -66.31,44.956 -18.18,19.283 -32.2,42.233 -42.08,68.853 -4.93,13.31 -8.64,27.22 -11.11,41.73 l -1.47,18.06 h 179.61 z M 2332.56,873 c 42.26,0 80.55,6.78 114.89,20.341 34.33,13.561 63.39,32.573 87.16,57.035 23.77,24.462 42.11,53.574 55.02,87.344 12.91,33.77 19.37,70.6 19.37,110.48 0,40.42 -6.46,77.51 -19.37,111.28 -12.91,33.77 -31.25,62.88 -55.02,87.35 -23.77,24.46 -52.83,43.6 -87.16,57.43 -34.34,13.83 -72.63,20.74 -114.89,20.74 -42.26,0 -80.41,-6.91 -114.45,-20.74 -34.04,-13.83 -62.95,-32.97 -86.72,-57.43 -23.77,-24.47 -42.11,-53.58 -55.02,-87.35 -12.91,-33.77 -19.37,-70.86 -19.37,-111.28 0,-39.88 6.46,-76.71 19.37,-110.48 12.91,-33.77 31.25,-62.882 55.02,-87.344 23.77,-24.462 52.68,-43.474 86.72,-57.035 C 2252.15,879.78 2290.3,873 2332.56,873 Z"
       fill-rule="evenodd"
       id="path25"
       transform="translate(-196,-222)" /></g></svg>
