<?xml version="1.0" encoding="UTF-8" standalone="no"?>
<svg
   width="552"
   height="552"
   xml:space="preserve"
   overflow="hidden"
   version="1.1"
   id="svg25"
   xmlns="http://www.w3.org/2000/svg"
   xmlns:svg="http://www.w3.org/2000/svg"><defs
     id="defs1" /><g
     id="g131"
     transform="translate(-4341,-4557)"><rect
       x="816"
       y="873"
       width="552"
       height="552"
       fill="#ffffff"
       id="rect8-8"
       style="overflow:hidden"
       transform="translate(3525,3684)" /><path
       d="m 1091.92,1266.54 c -7.96,0 -15.14,1.33 -21.55,3.98 -6.4,2.64 -11.85,6.36 -16.32,11.13 -4.47,4.78 -7.93,10.47 -10.36,17.06 -2.43,6.6 -3.64,13.79 -3.64,21.58 0,7.89 1.21,15.14 3.64,21.73 2.43,6.6 5.89,12.28 10.36,17.06 4.47,4.78 9.92,8.52 16.32,11.22 6.41,2.7 13.59,4.05 21.55,4.05 7.95,0 15.16,-1.35 21.62,-4.05 6.47,-2.7 11.94,-6.44 16.41,-11.22 4.48,-4.78 7.93,-10.46 10.36,-17.06 2.43,-6.59 3.64,-13.84 3.64,-21.73 0,-7.79 -1.21,-14.98 -3.64,-21.58 -2.43,-6.59 -5.88,-12.28 -10.36,-17.06 -4.47,-4.77 -9.94,-8.49 -16.41,-11.13 -6.46,-2.65 -13.67,-3.98 -21.62,-3.98 z m -0.18,-335.093 c -24.66,0 -46.92,3.398 -66.78,10.195 -19.87,6.796 -36.735,16.324 -50.606,28.584 -13.871,12.26 -24.574,26.852 -32.109,43.774 -7.535,16.93 -11.303,35.38 -11.303,55.37 0,20.26 3.768,38.85 11.303,55.77 7.535,16.93 18.238,31.52 32.109,43.78 13.871,12.26 30.736,21.85 50.606,28.78 19.86,6.93 42.12,10.4 66.78,10.4 24.66,0 47.01,-3.47 67.05,-10.4 20.03,-6.93 36.99,-16.52 50.86,-28.78 13.87,-12.26 24.57,-26.85 32.1,-43.78 7.54,-16.92 11.31,-35.51 11.31,-55.77 0,-19.99 -3.77,-38.44 -11.31,-55.37 -7.53,-16.922 -18.23,-31.514 -32.1,-43.774 -13.87,-12.26 -30.83,-21.788 -50.86,-28.584 -20.04,-6.797 -42.39,-10.195 -67.05,-10.195 z M 1091.64,873 c 34.6,0 65.96,4.834 94.08,14.502 28.11,9.668 51.9,23.222 71.36,40.662 19.47,17.441 34.49,38.198 45.06,62.274 10.57,24.072 15.86,50.332 15.86,78.762 0,28.82 -5.29,55.26 -15.86,79.34 -10.57,24.07 -25.59,44.83 -45.06,62.27 -19.46,17.44 -43.25,31.09 -71.36,40.95 l -14.06,3.49 11.97,13.9 c 3.61,5.22 6.68,10.86 9.21,16.92 5.08,12.11 7.61,25.33 7.61,39.63 0,14.5 -2.53,27.81 -7.61,39.92 -5.07,12.12 -12.28,22.56 -21.62,31.34 -9.34,8.77 -20.76,15.64 -34.25,20.6 -13.49,4.96 -28.54,7.44 -45.14,7.44 -16.61,0 -31.6,-2.48 -44.98,-7.44 -13.37,-4.96 -24.73,-11.83 -34.07,-20.6 -9.34,-8.78 -16.549,-19.22 -21.623,-31.34 -5.074,-12.11 -7.611,-25.42 -7.611,-39.92 0,-14.3 2.537,-27.52 7.611,-39.63 2.537,-6.06 5.607,-11.7 9.213,-16.92 l 11.89,-13.81 -14.337,-3.58 c -27.874,-9.86 -51.543,-23.51 -71.007,-40.95 -19.465,-17.44 -34.483,-38.2 -45.056,-62.27 -10.573,-24.08 -15.86,-50.52 -15.86,-79.34 0,-28.43 5.287,-54.69 15.86,-78.762 10.573,-24.076 25.591,-44.833 45.056,-62.274 19.464,-17.44 43.133,-30.994 71.007,-40.662 C 1025.8,877.834 1057.04,873 1091.64,873 Z"
       fill-rule="evenodd"
       id="path8-8"
       style="overflow:hidden"
       transform="translate(3525,3684)" /></g></svg>
