<?xml version="1.0" encoding="UTF-8" standalone="no"?>
<svg
   width="553"
   height="552"
   xml:space="preserve"
   overflow="hidden"
   version="1.1"
   id="svg25"
   xmlns="http://www.w3.org/2000/svg"
   xmlns:svg="http://www.w3.org/2000/svg"><defs
     id="defs1" /><g
     id="g130"
     transform="translate(-4961,-4557)"><rect
       x="1436"
       y="873"
       width="553"
       height="552"
       fill="#ffffff"
       id="rect9-30"
       style="overflow:hidden"
       transform="translate(3525,3684)" /><path
       d="m 1712.23,1018.47 c -25.7,0 -48.9,4.27 -69.6,12.83 -20.7,8.55 -38.28,20.54 -52.74,35.96 -14.46,15.43 -25.61,33.79 -33.46,55.08 -7.86,21.29 -11.78,44.52 -11.78,69.67 0,25.48 3.92,48.87 11.78,70.17 7.85,21.29 19,39.65 33.46,55.08 14.46,15.42 32.04,27.5 52.74,36.21 20.7,8.72 43.9,13.08 69.6,13.08 25.7,0 48.99,-4.36 69.87,-13.08 20.88,-8.71 38.55,-20.79 53.01,-36.21 14.46,-15.43 25.61,-33.79 33.46,-55.08 7.86,-21.3 11.78,-44.69 11.78,-70.17 0,-25.15 -3.92,-48.38 -11.78,-69.67 -7.85,-21.29 -19,-39.65 -33.46,-55.08 -14.46,-15.42 -32.13,-27.41 -53.01,-35.96 -20.88,-8.56 -44.17,-12.83 -69.87,-12.83 z M 1923.94,873 H 1989 c 0,62.541 -27.2,119.532 -71.83,162.43 l -15.84,13.52 7.95,10.1 c 7.74,12.26 14.34,25.5 19.79,39.73 10.89,28.44 16.34,59.46 16.34,93.06 0,34.04 -5.45,65.29 -16.34,93.73 -10.9,28.45 -26.38,52.97 -46.44,73.58 -20.06,20.61 -44.57,36.73 -73.55,48.38 -28.97,11.65 -61.29,17.47 -96.95,17.47 -35.66,0 -67.86,-5.82 -96.58,-17.47 -28.73,-11.65 -53.12,-27.77 -73.18,-48.38 -20.06,-20.61 -35.54,-45.13 -46.44,-73.58 -10.89,-28.44 -16.34,-59.69 -16.34,-93.73 0,-33.6 5.45,-64.62 16.34,-93.06 5.45,-14.23 12.05,-27.47 19.78,-39.73 l 7.96,-10.1 -15.84,-13.52 C 1463.2,992.533 1436,935.542 1436,873 h 65.06 c 0,47.411 20.8,90.614 54.93,123.136 l 11.33,8.504 8.39,-6.906 c 12.19,-8.008 25.47,-14.867 39.84,-20.578 28.72,-11.424 60.92,-17.135 96.58,-17.135 35.66,0 67.98,5.711 96.95,17.135 14.49,5.711 27.86,12.57 40.12,20.578 l 8.44,6.936 11.37,-8.535 c 34.13,-32.522 54.93,-75.724 54.93,-123.135 z"
       fill-rule="evenodd"
       id="path9-5"
       style="overflow:hidden;fill:#fe0000;fill-opacity:1"
       transform="translate(3525,3684)" /></g></svg>
