<?xml version="1.0" encoding="UTF-8" standalone="no"?>
<svg
   width="552"
   height="552"
   xml:space="preserve"
   overflow="hidden"
   version="1.1"
   id="svg25"
   xmlns="http://www.w3.org/2000/svg"
   xmlns:svg="http://www.w3.org/2000/svg"><defs
     id="defs1" /><g
     id="g152"
     transform="translate(-8756.5967,-3868)"><rect
       x="8756.5967"
       y="3868"
       width="552"
       height="552"
       fill="#ffffff"
       id="rect14-9-3"
       style="overflow:hidden" /><path
       id="path15-3-8"
       style="overflow:hidden"
       d="m 9032.2363,3868 c -34.2298,0 -65.1387,5.4888 -92.7187,16.4688 -27.58,10.9788 -50.99,26.3709 -70.25,46.1757 -19.26,19.806 -34.1201,43.3789 -44.5801,70.7149 -10.46,27.3398 -15.6914,57.1613 -15.6914,89.4511 0,32.72 5.2314,62.7499 15.6914,90.0899 9.6662,25.2653 23.139,47.276 40.3203,66.1035 l 26.3262,11.5859 -29.5957,-2.1406 h -89.1406 V 4404 h 65 v -89.0898 h 390 V 4404 h 65 v -147.5508 h -89.5293 l -29.5977,2.1406 26.6055,-11.707 0.078,0.1563 c 17.1964,-18.835 30.6793,-40.8577 40.3516,-66.1387 10.4598,-27.34 15.6914,-57.3699 15.6914,-90.0899 0,-32.2898 -5.2316,-62.1113 -15.6914,-89.4511 -10.46,-27.336 -25.3182,-50.9089 -44.5782,-70.7149 -19.2598,-19.8048 -42.7913,-35.1969 -70.6113,-46.1757 -27.82,-10.98 -58.8401,-16.4688 -93.0801,-16.4688 z m 0.1114,58.4629 c 24.2798,0 46.2895,4.0533 66.0195,12.1601 19.73,8.106 36.4201,19.4728 50.0801,34.0958 13.66,14.6238 24.1991,32.0309 31.6191,52.2109 7.42,20.19 11.1309,42.2108 11.1309,66.0508 0,24.1598 -3.7109,46.3395 -11.1309,66.5195 -7.42,20.19 -17.9591,37.5907 -31.6191,52.2207 -13.66,14.62 -30.3501,26.0701 -50.0801,34.3301 -19.73,8.27 -41.7397,12.3984 -66.0195,12.3984 -24.29,0 -46.2115,-4.1284 -65.7715,-12.3984 -19.56,-8.26 -36.1701,-19.7101 -49.8301,-34.3301 -13.66,-14.63 -24.1993,-32.0307 -31.6191,-52.2207 -7.42,-20.18 -11.1309,-42.3597 -11.1309,-66.5195 0,-23.84 3.7109,-45.8608 11.1309,-66.0508 7.4198,-20.18 17.9591,-37.5871 31.6191,-52.2109 13.66,-14.623 30.2701,-25.9898 49.8301,-34.0958 19.56,-8.1068 41.4815,-12.1601 65.7715,-12.1601 z" /></g></svg>
