<?xml version="1.0" encoding="UTF-8" standalone="no"?>
<svg
   width="552"
   height="552"
   xml:space="preserve"
   overflow="hidden"
   version="1.1"
   id="svg25"
   xmlns="http://www.w3.org/2000/svg"
   xmlns:svg="http://www.w3.org/2000/svg"><defs
     id="defs1" /><g
     id="g128"
     transform="translate(-5582,-4557)"><rect
       x="2057"
       y="873"
       width="552"
       height="552"
       fill="#ffffff"
       id="rect12-6"
       style="overflow:hidden"
       transform="translate(3525,3684)" /><path
       d="m 2332.85,1088.35 c -14.06,0 -26.76,2.49 -38.09,7.46 -11.33,4.97 -20.95,11.93 -28.86,20.9 -7.91,8.96 -14.01,19.63 -18.31,32.01 -4.3,12.38 -6.44,25.87 -6.44,40.49 0,14.81 2.14,28.4 6.44,40.78 4.3,12.37 10.4,23.04 18.31,32.01 7.91,8.96 17.53,15.98 28.86,21.05 11.33,5.06 24.03,7.6 38.09,7.6 14.07,0 26.81,-2.54 38.24,-7.6 11.43,-5.07 21.1,-12.09 29.01,-21.05 7.91,-8.97 14.01,-19.64 18.31,-32.01 4.3,-12.38 6.44,-25.97 6.44,-40.78 0,-14.62 -2.14,-28.11 -6.44,-40.49 -4.3,-12.38 -10.4,-23.05 -18.31,-32.01 -7.91,-8.97 -17.58,-15.93 -29.01,-20.9 -11.43,-4.97 -24.17,-7.46 -38.24,-7.46 z m -0.1,-58.35 c 24.04,0 45.82,3.92 65.35,11.76 19.53,7.83 36.06,18.82 49.58,32.95 13.52,14.14 23.96,30.97 31.3,50.48 7.35,19.52 11.02,40.8 11.02,63.85 0,23.36 -3.67,44.79 -11.02,64.31 -7.34,19.51 -17.78,36.34 -31.3,50.47 -13.52,14.14 -30.05,25.2 -49.58,33.19 -19.53,7.99 -41.31,11.99 -65.35,11.99 -24.04,0 -45.74,-4 -65.1,-11.99 -19.37,-7.99 -35.81,-19.05 -49.33,-33.19 -13.52,-14.13 -23.96,-30.96 -31.3,-50.47 -7.35,-19.52 -11.02,-40.95 -11.02,-64.31 0,-23.05 3.67,-44.33 11.02,-63.85 7.34,-19.51 17.78,-36.34 31.3,-50.48 13.52,-14.13 29.96,-25.12 49.33,-32.95 19.36,-7.84 41.06,-11.76 65.1,-11.76 z"
       fill-rule="evenodd"
       id="path13-9"
       style="overflow:hidden"
       transform="translate(3525,3684)" /><path
       d="m 2332.08,925 c 39.89,0 76.04,6.515 108.44,19.545 32.41,13.03 59.83,31.297 82.27,54.801 22.43,23.504 39.74,51.484 51.93,83.924 12.19,32.45 18.28,67.84 18.28,106.16 l -0.06,0.77 H 2593 V 1343 h -64.96 v -152.8 h -0.05 l 0.05,-0.6 c 0,-29.87 -4.58,-57.45 -13.72,-82.74 -9.15,-25.29 -22.15,-47.09 -38.99,-65.41 -16.84,-18.32 -37.42,-32.56 -61.75,-42.717 -24.32,-10.156 -51.45,-15.234 -81.39,-15.234 -29.94,0 -56.97,5.078 -81.09,15.234 -24.11,10.157 -44.59,24.397 -61.43,42.717 -16.84,18.32 -29.84,40.12 -38.98,65.41 -9.15,25.29 -13.73,52.87 -13.73,82.74 l 0.05,0.6 h -0.05 V 1343 H 2072 v -152.8 h 0.06 l -0.06,-0.77 c 0,-38.32 6.09,-73.71 18.28,-106.16 12.19,-32.44 29.5,-60.42 51.94,-83.924 22.43,-23.504 49.71,-41.771 81.84,-54.801 C 2256.19,931.515 2292.2,925 2332.08,925 Z"
       fill-rule="evenodd"
       id="path14-19"
       style="overflow:hidden"
       transform="translate(3525,3684)" /></g></svg>
