<?xml version="1.0" encoding="UTF-8" standalone="no"?>
<svg
   width="552"
   height="552"
   xml:space="preserve"
   overflow="hidden"
   version="1.1"
   id="svg25"
   xmlns="http://www.w3.org/2000/svg"
   xmlns:svg="http://www.w3.org/2000/svg"><defs
     id="defs1" /><g
     id="g137"
     transform="translate(-3721.971,-5207.78)"><path
       d="m 196.971,1523.78 h 552 v 552 h -552 z"
       fill="#ffffff"
       fill-rule="evenodd"
       id="path1"
       style="overflow:hidden"
       transform="translate(3525,3684)" /><path
       d="m 491.368,1584.73 c -11.865,0 -22.575,2.06 -32.133,6.19 -9.558,4.12 -17.672,9.9 -24.346,17.34 -6.674,7.43 -11.824,16.29 -15.448,26.55 -3.626,10.27 -5.439,21.46 -5.439,33.59 0,12.29 1.813,23.57 5.439,33.82 3.624,10.27 8.774,19.12 15.448,26.57 6.674,7.43 14.788,13.25 24.346,17.46 9.558,4.2 20.268,6.3 32.133,6.3 11.864,0 22.616,-2.1 32.256,-6.3 9.64,-4.21 17.797,-10.03 24.471,-17.46 6.673,-7.45 11.823,-16.3 15.447,-26.57 3.626,-10.25 5.439,-21.53 5.439,-33.82 0,-12.13 -1.813,-23.32 -5.439,-33.59 -3.624,-10.26 -8.774,-19.12 -15.447,-26.55 -6.674,-7.44 -14.831,-13.22 -24.471,-17.34 -9.64,-4.13 -20.392,-6.19 -32.256,-6.19 z M 491.256,1527 c 21.821,0 41.596,3.5 59.325,10.49 17.729,7 32.731,16.81 45.005,29.43 12.275,12.62 21.745,27.64 28.413,45.06 3.333,8.71 5.834,17.81 7.501,27.31 l 2.443,29 0.057,0.46 -0.011,0.09 0.011,0.13 -0.034,0.41 -2.346,29.31 c -1.585,9.49 -3.964,18.54 -7.134,27.18 -6.342,17.26 -15.35,32.15 -27.025,44.66 -11.673,12.5 -25.942,22.29 -42.805,29.36 -16.863,7.07 -35.672,10.6 -56.426,10.6 -20.754,0 -39.491,-3.53 -56.209,-10.6 -16.72,-7.07 -30.916,-16.86 -42.59,-29.36 l -0.809,-1.07 -0.495,30.4 c 0.321,15.23 1.234,32.41 3.132,51.42 3.974,39.79 11.428,79.17 21.528,117.3 9.765,36.86 20.321,66.1 26.279,81.84 L 389.907,2073 c -6.497,-16.84 -18.085,-48.19 -28.884,-87.85 -11.166,-41.02 -19.574,-83.76 -24.148,-127.28 -2.187,-20.8 -3.279,-39.71 -3.683,-56.54 -0.816,-33.91 0.957,-67.62 5.549,-100.74 4.53,-32.67 10.877,-57.9 13.3905,-65.385 l 6.8365,-23.225 c 6.668,-17.42 16.138,-32.44 28.413,-45.06 12.274,-12.62 27.2,-22.43 44.778,-29.43 17.577,-6.99 37.276,-10.49 59.097,-10.49 z"
       fill-rule="evenodd"
       id="path2-02"
       style="overflow:hidden"
       transform="translate(3525,3684)" /></g></svg>
