<?xml version="1.0" encoding="UTF-8" standalone="no"?>
<svg
   width="552"
   height="552"
   xml:space="preserve"
   overflow="hidden"
   version="1.1"
   id="svg25"
   xmlns="http://www.w3.org/2000/svg"
   xmlns:svg="http://www.w3.org/2000/svg"><defs
     id="defs1" /><g
     id="g150"
     transform="translate(-10284.534,-3644.176)"><rect
       x="10284.534"
       y="3644.176"
       width="552"
       height="552"
       fill="#ffffff"
       id="rect120"
       style="overflow:hidden" /><path
       d="m 10466.124,3716.0861 v 0 l 18.14,36.96 c 29.73,50 70.81,80.92 116.18,80.92 45.38,0 86.46,-30.92 116.19,-80.92 l 18.14,-36.96 z m -80.59,-55.91 h 428 l -5.75,27.31 -10.52,28.6 -10.31,28.05 c -40.62,88.71 -109.4,147.04 -187.42,147.04 -78.02,0 -146.8,-58.33 -187.42,-147.04 l -10.31,-28.05 -10.52,-28.6 z"
       fill-rule="evenodd"
       id="path120"
       style="overflow:hidden" /><path
       id="path121"
       style="overflow:hidden"
       d="m 10599.533,3910.1758 c -27.36,0 -52.069,4.3897 -74.109,13.1797 -22.04,8.78 -40.761,21.1012 -56.151,36.9511 -15.39,15.85 -27.268,34.7099 -35.628,56.5899 -4.18,10.94 -7.321,22.3805 -9.411,34.3105 l -2.035,24.2637 5.778,41.4063 -48.067,-84.9747 -44.387,-56.3164 -48.99,38.6602 126.051,159.9297 h 73.529 v -80.9395 h 0.34 l -0.359,-4.5898 c 0,-17.38 2.66,-33.4304 7.98,-48.1504 5.32,-14.72 12.88,-27.4103 22.67,-38.0703 9.8,-10.67 21.711,-18.9494 35.731,-24.8594 14.03,-5.91 29.75,-8.8711 47.16,-8.8711 17.42,0 33.2,2.9611 47.34,8.8711 14.15,5.91 26.12,14.1894 35.92,24.8594 9.79,10.66 17.349,23.3503 22.669,38.0703 5.32,14.72 7.981,30.7704 7.981,48.1504 l -0.361,4.5898 h 0.39 v 80.9395 h 45.66 19.299 v -80.9395 h -0.398 l 0.398,-4.7597 c 0,-25.84 -4.179,-49.7001 -12.539,-71.5801 -8.36,-21.88 -20.241,-40.7399 -35.631,-56.5899 -15.39,-15.8499 -34.199,-28.1711 -56.439,-36.9511 -22.23,-8.79 -47.031,-13.1797 -74.391,-13.1797 z" /></g></svg>
