<?xml version="1.0" encoding="UTF-8" standalone="no"?>
<svg
   width="552"
   height="552"
   xml:space="preserve"
   overflow="hidden"
   version="1.1"
   id="svg25"
   xmlns="http://www.w3.org/2000/svg"
   xmlns:svg="http://www.w3.org/2000/svg"><defs
     id="defs1" /><g
     id="g129"
     transform="translate(-6822,-4557)"><rect
       x="3297"
       y="873"
       width="552"
       height="552"
       fill="#ffffff"
       id="rect10-2"
       style="overflow:hidden"
       transform="translate(3525,3684)" /><path
       d="m 3572.66,931.447 c -32.31,0 -61.49,5.344 -87.52,16.034 -26.03,10.689 -48.13,25.675 -66.31,44.956 -18.18,19.283 -32.2,42.233 -42.08,68.853 -9.87,26.62 -14.81,55.64 -14.81,87.08 0,31.86 4.94,61.1 14.81,87.71 9.88,26.62 23.9,49.57 42.08,68.85 18.18,19.29 40.28,34.38 66.31,45.27 26.03,10.9 55.21,16.35 87.52,16.35 32.32,0 61.6,-5.45 87.86,-16.35 26.26,-10.89 48.47,-25.98 66.65,-45.27 18.18,-19.28 32.2,-42.23 42.08,-68.85 9.87,-26.61 14.81,-55.85 14.81,-87.71 0,-31.44 -4.94,-60.46 -14.81,-87.08 -9.88,-26.62 -23.9,-49.57 -42.08,-68.853 -18.18,-19.281 -40.39,-34.267 -66.65,-44.956 -26.26,-10.69 -55.54,-16.034 -87.86,-16.034 z M 3572.56,873 c 42.26,0 80.55,6.78 114.89,20.341 34.33,13.561 63.39,32.573 87.16,57.035 23.77,24.462 42.11,53.574 55.02,87.344 12.91,33.77 19.37,70.6 19.37,110.48 0,40.42 -6.46,77.51 -19.37,111.28 -12.91,33.77 -31.25,62.88 -55.02,87.35 -23.77,24.46 -52.83,43.6 -87.16,57.43 -34.34,13.83 -72.63,20.74 -114.89,20.74 -42.26,0 -80.41,-6.91 -114.45,-20.74 -34.04,-13.83 -62.95,-32.97 -86.72,-57.43 -23.77,-24.47 -42.11,-53.58 -55.02,-87.35 -12.91,-33.77 -19.37,-70.86 -19.37,-111.28 0,-39.88 6.46,-76.71 19.37,-110.48 12.91,-33.77 31.25,-62.882 55.02,-87.344 23.77,-24.462 52.68,-43.474 86.72,-57.035 C 3492.15,879.78 3530.3,873 3572.56,873 Z"
       fill-rule="evenodd"
       id="path10-4"
       style="overflow:hidden"
       transform="translate(3525,3684)" /><path
       d="m 3432.76,1063.9 48.67,48.67 48.67,-48.67 36.61,36.62 -48.67,48.67 48.67,48.67 -36.61,36.61 -48.67,-48.67 -48.67,48.67 -36.61,-36.61 48.67,-48.67 -48.67,-48.67 z"
       fill-rule="evenodd"
       id="path11-34"
       style="overflow:hidden"
       transform="translate(3525,3684)" /><path
       d="m 3616.09,1063.9 48.67,48.67 48.67,-48.67 36.61,36.62 -48.67,48.67 48.67,48.67 -36.61,36.61 -48.67,-48.67 -48.67,48.67 -36.61,-36.61 48.67,-48.67 -48.67,-48.67 z"
       fill-rule="evenodd"
       id="path12-7"
       style="overflow:hidden"
       transform="translate(3525,3684)" /></g></svg>
