<?xml version="1.0" encoding="UTF-8" standalone="no"?>
<svg
   width="552"
   height="552"
   xml:space="preserve"
   overflow="hidden"
   version="1.1"
   id="svg25"
   xmlns="http://www.w3.org/2000/svg"
   xmlns:svg="http://www.w3.org/2000/svg"><defs
     id="defs1" /><g
     id="g126"
     transform="translate(-5582,-5208)"><rect
       x="2057"
       y="1524"
       width="552"
       height="552"
       fill="#ffffff"
       id="rect15-4"
       style="overflow:hidden"
       transform="translate(3525,3684)" /><path
       d="m 2288,1910 c 0,-24.85 20.15,-45 45,-45 24.85,0 45,20.15 45,45 0,24.85 -20.15,45 -45,45 -24.85,0 -45,-20.15 -45,-45 z"
       fill-rule="evenodd"
       id="path16-62"
       style="overflow:hidden;fill:#fe0000;fill-opacity:1"
       transform="translate(3525,3684)" /><path
       d="m 2332.76,1708.43 c -22.67,0 -43.13,3.8 -61.4,11.39 -18.26,7.6 -33.76,18.24 -46.52,31.94 -12.75,13.7 -22.59,30.01 -29.51,48.92 -6.93,18.91 -10.4,39.53 -10.4,61.87 0,22.63 3.47,43.4 10.4,62.31 6.92,18.91 16.76,35.22 29.51,48.92 12.76,13.69 28.26,24.42 46.52,32.16 18.27,7.74 38.73,11.61 61.4,11.61 22.67,0 43.22,-3.87 61.64,-11.61 18.42,-7.74 34,-18.47 46.76,-32.16 12.75,-13.7 22.59,-30.01 29.52,-48.92 6.92,-18.91 10.39,-39.68 10.39,-62.31 0,-22.34 -3.47,-42.96 -10.39,-61.87 -6.93,-18.91 -16.77,-35.22 -29.52,-48.92 -12.76,-13.7 -28.34,-24.34 -46.76,-31.94 -18.42,-7.59 -38.97,-11.39 -61.64,-11.39 z m 159.26,-125.98 c -8.35,0 -15.89,1.43 -22.62,4.3 -6.73,2.88 -12.44,6.9 -17.14,12.08 -4.7,5.18 -8.32,11.35 -10.88,18.5 -2.55,7.15 -3.82,14.95 -3.82,23.4 0,8.55 1.27,16.41 3.82,23.56 2.56,7.15 6.18,13.32 10.88,18.5 4.7,5.18 10.41,9.23 17.14,12.16 6.73,2.93 14.27,4.39 22.62,4.39 8.35,0 15.92,-1.46 22.71,-4.39 6.78,-2.93 12.52,-6.98 17.22,-12.16 4.7,-5.18 8.33,-11.35 10.88,-18.5 2.55,-7.15 3.83,-15.01 3.83,-23.56 0,-8.45 -1.28,-16.25 -3.83,-23.4 -2.55,-7.15 -6.18,-13.32 -10.88,-18.5 -4.7,-5.18 -10.44,-9.2 -17.22,-12.08 -6.79,-2.87 -14.36,-4.3 -22.71,-4.3 z m -318.21,0 c -8.35,0 -15.9,1.43 -22.62,4.3 -6.73,2.88 -12.44,6.9 -17.14,12.08 -4.7,5.18 -8.33,11.35 -10.88,18.5 -2.55,7.15 -3.83,14.95 -3.83,23.4 0,8.55 1.28,16.41 3.83,23.56 2.55,7.15 6.18,13.32 10.88,18.5 4.7,5.18 10.41,9.23 17.14,12.16 6.72,2.93 14.27,4.39 22.62,4.39 8.35,0 15.92,-1.46 22.7,-4.39 6.79,-2.93 12.53,-6.98 17.23,-12.16 4.7,-5.18 8.32,-11.35 10.88,-18.5 2.55,-7.15 3.82,-15.01 3.82,-23.56 0,-8.45 -1.27,-16.25 -3.82,-23.4 -2.56,-7.15 -6.18,-13.32 -10.88,-18.5 -4.7,-5.18 -10.44,-9.2 -17.23,-12.08 -6.78,-2.87 -14.35,-4.3 -22.7,-4.3 z m -0.1,-58.45 c 17.9,0 34.12,2.87 48.66,8.61 14.54,5.75 26.84,13.8 36.91,24.16 10.07,10.36 17.84,22.69 23.31,36.99 5.46,14.31 8.2,29.9 8.2,46.8 l -1.09,13.05 42.96,-3.62 43.64,3.67 -1.09,-13.1 c 0,-16.9 2.74,-32.49 8.21,-46.8 5.46,-14.3 13.23,-26.63 23.3,-36.99 10.07,-10.36 22.31,-18.41 36.73,-24.16 14.41,-5.74 30.57,-8.61 48.47,-8.61 17.9,0 34.12,2.87 48.66,8.61 14.54,5.75 26.85,13.8 36.91,24.16 10.07,10.36 17.84,22.69 23.31,36.99 5.47,14.31 8.2,29.9 8.2,46.8 0,17.11 -2.73,32.82 -8.2,47.13 -5.47,14.3 -13.24,26.63 -23.31,36.99 -10.06,10.36 -22.37,18.47 -36.91,24.32 l -20.57,5.88 11.05,22.23 c 9.96,26.06 14.95,54.49 14.95,85.27 0,31.19 -4.99,59.82 -14.95,85.88 -9.97,26.06 -24.12,48.53 -42.47,67.41 -18.34,18.88 -40.76,33.65 -67.26,44.32 -26.5,10.67 -56.06,16.01 -88.67,16.01 -32.61,0 -62.06,-5.34 -88.33,-16.01 -26.27,-10.67 -48.58,-25.44 -66.92,-44.32 -18.35,-18.88 -32.5,-41.35 -42.47,-67.41 -9.96,-26.06 -14.95,-54.69 -14.95,-85.88 0,-30.78 4.99,-59.21 14.95,-85.27 l 11.01,-22.15 -20.71,-5.96 c -14.42,-5.85 -26.67,-13.96 -36.73,-24.32 -10.07,-10.36 -17.84,-22.69 -23.31,-36.99 -5.47,-14.31 -8.2,-30.02 -8.2,-47.13 0,-16.9 2.73,-32.49 8.2,-46.8 5.47,-14.3 13.24,-26.63 23.31,-36.99 10.06,-10.36 22.31,-18.41 36.73,-24.16 14.41,-5.74 30.57,-8.61 48.47,-8.61 z"
       fill-rule="evenodd"
       id="path17-35"
       style="overflow:hidden;fill:#fe0000;fill-opacity:1"
       transform="translate(3525,3684)" /></g></svg>
