<?xml version="1.0" encoding="UTF-8" standalone="no"?>
<svg
   width="552"
   height="552"
   xml:space="preserve"
   overflow="hidden"
   version="1.1"
   id="svg25"
   xmlns="http://www.w3.org/2000/svg"
   xmlns:svg="http://www.w3.org/2000/svg"><defs
     id="defs1" /><g
     id="g125"
     transform="translate(-6822,-5208)"><rect
       x="3297"
       y="1524"
       width="552"
       height="552"
       fill="#ffffff"
       id="rect17-6"
       style="overflow:hidden"
       transform="translate(3525,3684)" /><path
       d="m 3732.02,1582.45 c -8.35,0 -15.89,1.43 -22.62,4.3 -6.73,2.88 -12.44,6.9 -17.14,12.08 -4.7,5.18 -8.32,11.35 -10.88,18.5 -2.55,7.15 -3.82,14.95 -3.82,23.4 0,8.55 1.27,16.41 3.82,23.56 2.56,7.15 6.18,13.32 10.88,18.5 4.7,5.18 10.41,9.23 17.14,12.16 6.73,2.93 14.27,4.39 22.62,4.39 8.35,0 15.92,-1.46 22.71,-4.39 6.78,-2.93 12.52,-6.98 17.22,-12.16 4.7,-5.18 8.33,-11.35 10.88,-18.5 2.55,-7.15 3.83,-15.01 3.83,-23.56 0,-8.45 -1.28,-16.25 -3.83,-23.4 -2.55,-7.15 -6.18,-13.32 -10.88,-18.5 -4.7,-5.18 -10.44,-9.2 -17.22,-12.08 -6.79,-2.87 -14.36,-4.3 -22.71,-4.3 z m -318.21,0 c -8.35,0 -15.9,1.43 -22.62,4.3 -6.73,2.88 -12.44,6.9 -17.14,12.08 -4.7,5.18 -8.33,11.35 -10.88,18.5 -2.55,7.15 -3.83,14.95 -3.83,23.4 0,8.55 1.28,16.41 3.83,23.56 2.55,7.15 6.18,13.32 10.88,18.5 4.7,5.18 10.41,9.23 17.14,12.16 6.72,2.93 14.27,4.39 22.62,4.39 8.35,0 15.92,-1.46 22.7,-4.39 6.79,-2.93 12.53,-6.98 17.23,-12.16 4.7,-5.18 8.32,-11.35 10.88,-18.5 2.55,-7.15 3.82,-15.01 3.82,-23.56 0,-8.45 -1.27,-16.25 -3.82,-23.4 -2.56,-7.15 -6.18,-13.32 -10.88,-18.5 -4.7,-5.18 -10.44,-9.2 -17.23,-12.08 -6.78,-2.87 -14.35,-4.3 -22.7,-4.3 z m -0.1,-58.45 c 17.89,0 34.12,2.87 48.66,8.61 14.54,5.75 26.84,13.8 36.91,24.16 10.07,10.36 17.84,22.69 23.31,36.99 5.46,14.31 8.2,29.9 8.2,46.8 0,17.11 -2.74,32.82 -8.2,47.13 -5.47,14.3 -13.24,26.63 -23.31,36.99 -10.07,10.36 -22.37,18.47 -36.91,24.32 l -15.36,4.39 v 131.3 0.38 h 0.03 l 2.18,27.52 c 1.48,8.91 3.69,17.41 6.64,25.51 5.89,16.21 14.26,30.19 25.11,41.93 10.85,11.74 24.05,20.93 39.59,27.57 15.53,6.63 32.95,9.95 52.24,9.95 19.29,0 36.77,-3.32 52.44,-9.95 15.68,-6.64 28.94,-15.83 39.79,-27.57 10.85,-11.74 19.22,-25.72 25.11,-41.93 2.95,-8.1 5.16,-16.6 6.64,-25.51 l 2.18,-27.52 h 0.03 v -0.38 -131.22 l -15.54,-4.47 c -14.42,-5.85 -26.66,-13.96 -36.73,-24.32 -10.07,-10.36 -17.84,-22.69 -23.3,-36.99 -5.47,-14.31 -8.21,-30.02 -8.21,-47.13 0,-16.9 2.74,-32.49 8.21,-46.8 5.46,-14.3 13.23,-26.63 23.3,-36.99 10.07,-10.36 22.31,-18.41 36.73,-24.16 14.41,-5.74 30.57,-8.61 48.47,-8.61 17.9,0 34.12,2.87 48.66,8.61 14.54,5.75 26.85,13.8 36.91,24.16 10.07,10.36 17.84,22.69 23.31,36.99 5.47,14.31 8.2,29.9 8.2,46.8 0,17.11 -2.73,32.82 -8.2,47.13 -5.47,14.3 -13.24,26.63 -23.31,36.99 -10.06,10.36 -22.37,18.47 -36.91,24.32 l -16.65,4.76 v 130.76 0.55 h -0.05 l -3.3,39.66 c -2.24,12.83 -5.59,25.09 -10.05,36.77 -8.93,23.36 -21.62,43.5 -38.07,60.42 -16.44,16.92 -36.54,30.17 -60.29,39.73 -23.75,9.57 -50.24,14.35 -79.47,14.35 -29.24,0 -55.63,-4.78 -79.18,-14.35 -23.55,-9.56 -43.54,-22.81 -59.98,-39.73 -16.45,-16.92 -29.14,-37.06 -38.07,-60.42 -4.46,-11.68 -7.81,-23.94 -10.05,-36.77 l -3.3,-39.66 h -0.05 v -0.55 -130.68 l -16.84,-4.84 c -14.41,-5.85 -26.66,-13.96 -36.72,-24.32 -10.07,-10.36 -17.84,-22.69 -23.31,-36.99 -5.47,-14.31 -8.2,-30.02 -8.2,-47.13 0,-16.9 2.73,-32.49 8.2,-46.8 5.47,-14.3 13.24,-26.63 23.31,-36.99 10.06,-10.36 22.31,-18.41 36.72,-24.16 14.42,-5.74 30.58,-8.61 48.48,-8.61 z"
       fill-rule="evenodd"
       id="path18-0"
       style="overflow:hidden"
       transform="translate(3525,3684)" /></g></svg>
