<?xml version="1.0" encoding="UTF-8" standalone="no"?>
<svg
   width="552"
   height="552"
   xml:space="preserve"
   overflow="hidden"
   version="1.1"
   id="svg25"
   xmlns="http://www.w3.org/2000/svg"
   xmlns:svg="http://www.w3.org/2000/svg"><defs
     id="defs1"><clipPath
       clipPathUnits="userSpaceOnUse"
       id="clipPath82"><g
         id="g83"><path
           id="rect82"
           d="m 8341.1953,4272.1938 h 552 v 554 h -552 z" /></g></clipPath><clipPath
       clipPathUnits="userSpaceOnUse"
       id="clipPath83"><g
         id="g84"><rect
           x="8341.1953"
           y="4272.1938"
           width="552"
           height="554"
           id="rect83" /></g></clipPath></defs><g
     id="g85"
     transform="translate(-8341.1953,-4272.1938)"><rect
       x="8341.1953"
       y="4272.1938"
       width="552"
       height="552"
       fill="#ffffff"
       id="rect2-0"
       clip-path="url(#clipPath83)" /><path
       d="m 8689.6963,4615.5396 c 0,0 0.1307,0 0,0 -6.5893,-0.064 -19.7947,-0.8373 -36.024,-5.0671 -11.7043,-3.0505 -24.0349,-7.6821 -34.8565,-14.18 -10.2258,-6.1402 -17.5911,-13.0359 -22.2692,-20.1891 -2.3863,-3.6488 -4.0698,-7.3489 -5.1815,-11.129 -1.158,-3.9376 -1.754,-8.1619 -1.7649,-12.7556 -5e-4,-0.2205 3e-4,-0.4424 0,-0.6658 0.1078,-10.9203 2.805,-19.7228 7.0561,-26.9474 4.5345,-7.706 11.4512,-14.766 21.5212,-20.7052 9.9289,-5.8559 22.8203,-10.4569 38.4547,-12.5794 6.6535,-0.9033 13.789,-1.354 21.3521,-1.2533 9.3223,0.1241 19.265,1.0849 29.6809,3.0122 16.3702,3.0464 31.0001,8.8339 43.4464,17.017 12.1972,8.0195 22.3652,18.3756 30.2561,30.959 7.9788,12.7234 13.8268,28.0377 16.9609,46.1038 1.867,10.7614 2.7647,22.4664 2.5823,35.1225 -0.1351,9.3707 -0.8622,19.272 -2.2475,29.7025 -3.0986,23.4236 -10.5471,42.3288 -20.9553,57.415 -10.5751,15.3279 -24.9995,27.8593 -43.3196,37.113 -18.3502,9.269 -40.8937,15.3705 -67.3646,17.1649 -6.062,0.411 -12.3229,0.5952 -18.7754,0.5396 -21.3309,-0.1838 -44.5169,-2.9881 -69.1935,-8.6068 -29.112,-6.6532 -55.0295,-20.8028 -76.7354,-40.279 -21.6952,-19.4666 -39.1816,-44.2619 -51.2776,-72.111 -11.8975,-27.3921 -18.4804,-57.5058 -18.8682,-88.107 -0.01,-0.4852 -0.011,-0.9711 -0.014,-1.4577 -0.185,-29.6915 5.4816,-61.5081 19.8948,-92.6595 13.7041,-29.6316 34.2541,-54.1002 59.7321,-73.4729 27.3381,-20.787 59.117,-34.7758 91.3675,-43.1923 29.8591,-7.7924 58.7295,-10.4731 83.7948,-10.3923 8.7505,0.028 17.451,0.3886 26.0622,1.0564 25.0618,1.9435 47.7873,6.3623 67.4713,11.7302 19.4229,5.2967 34.5525,11.1604 43.9136,15.0206 0.4169,0.1719 0,0 0,0 l 22.5922,-55.6824 c 0,0 0.4894,0.1958 0,0 -11.0073,-4.4038 -28.7456,-10.8949 -51.3718,-16.6934 -22.9307,-5.8765 -49.2233,-10.6281 -78.2289,-12.7388 -9.9681,-0.7253 -20.0444,-1.1229 -30.1993,-1.1721 -28.9811,-0.1404 -62.8586,2.5132 -98.5144,11.1599 -38.4066,9.3139 -78.169,25.4573 -113.6845,51.2706 -33.3508,24.2399 -61.5785,56.0598 -80.6979,95.7621 -19.4349,40.3466 -27.2824,81.8237 -27.0543,120.3967 0,0.6311 0.01,1.2612 0.018,1.8903 0.5054,39.6542 9.53,78.3901 25.5298,113.3482 16.2622,35.5313 39.8031,67.3237 69.1913,92.3571 29.5176,25.1436 64.8627,43.4035 104.4339,51.7729 28.2961,5.9695 55.5436,9.0491 81.3262,9.278 7.8142,0.069 15.4893,-0.1233 23.0144,-0.5788 32.7096,-1.9802 63.0397,-8.9583 89.7431,-21.3811 26.8958,-12.5124 50.2143,-30.6153 68.0545,-54.5632 17.5971,-23.6217 29.3451,-52.2505 34.1532,-85.2091 1.8818,-12.8728 2.9326,-25.4514 3.126,-37.6942 0.2611,-16.5329 -1.0405,-32.5199 -3.9629,-47.7958 -4.9315,-25.7775 -14.3953,-49.0696 -28.1156,-69.1062 -13.5951,-19.8536 -30.8617,-35.7694 -50.6721,-47.6567 -20.0844,-12.0517 -42.2696,-19.6679 -65.2801,-23.5146 -13.4315,-2.2468 -26.4628,-3.4023 -38.9464,-3.6012 -10.1278,-0.1613 -19.9311,0.3056 -29.3403,1.3626 -21.9339,2.4639 -42.3886,8.2089 -60.2362,17.3317 -18.1531,9.2789 -34.258,22.4048 -45.9588,39.7521 -11.4835,17.0253 -18.3075,37.558 -18.6304,60.6938 -0.01,0.5039 -0.011,1.0073 -0.011,1.5104 0,10.5838 1.4853,21.3212 4.8362,31.9162 3.224,10.1935 7.9982,19.7083 14.1494,28.4308 11.8192,16.7598 27.7221,29.2139 44.3727,38.2484 17.6137,9.5572 36.0534,15.3062 52.0095,18.651 22.5141,4.7196 40.3785,4.8541 50.5667,4.5213 0.194,-0.01 0,0 0,0 z"
       stroke="#000000"
       stroke-width="64.6808"
       stroke-miterlimit="8"
       fill="none"
       fill-rule="evenodd"
       id="path2-97"
       clip-path="url(#clipPath82)"
       style="fill:#000000;fill-rule:nonzero;stroke:none"
       transform="matrix(1,0,0,1.0086711,0,-40.332999)" /></g></svg>
