<?xml version="1.0" encoding="UTF-8" standalone="no"?>
<svg
   width="552"
   height="552"
   xml:space="preserve"
   overflow="hidden"
   version="1.1"
   id="svg25"
   xmlns="http://www.w3.org/2000/svg"
   xmlns:svg="http://www.w3.org/2000/svg"><defs
     id="defs1" /><g
     id="g91"
     transform="translate(-6822,-2604)"><rect
       x="3297"
       y="873"
       width="552"
       height="552"
       fill="#ffffff"
       id="rect14-74"
       style="overflow:hidden"
       transform="translate(3525,1731)" /><path
       d="m 3572.64,873 c 34.75,0 66.25,5.585 94.49,16.756 28.24,11.17 52.13,26.832 71.68,46.982 19.56,20.151 34.64,44.135 45.26,71.952 10.62,27.82 15.93,58.15 15.93,91.01 l -0.05,0.65 H 3800 V 1409 h -64.86 v -308.65 h -0.04 l 0.04,-0.48 c 0,-24.41 -3.79,-46.95 -11.38,-67.61 -7.58,-20.66 -18.36,-38.48 -32.32,-53.449 -13.97,-14.969 -31.03,-26.603 -51.2,-34.901 -20.17,-8.298 -42.67,-12.447 -67.5,-12.447 -24.82,0 -47.24,4.149 -67.23,12.447 -20,8.298 -36.98,19.932 -50.95,34.901 -13.96,14.969 -24.74,32.789 -32.32,53.449 -7.59,20.66 -11.38,43.2 -11.38,67.61 l 0.04,0.48 h -0.04 V 1409 H 3346 v -308.65 h 0.05 l -0.05,-0.65 c 0,-32.86 5.31,-63.19 15.93,-91.01 10.62,-27.817 25.7,-51.801 45.26,-71.952 19.55,-20.15 43.32,-35.812 71.32,-46.982 C 3506.5,878.585 3537.88,873 3572.64,873 Z"
       fill-rule="evenodd"
       id="path15-99"
       style="overflow:hidden"
       transform="translate(3525,1731)" /></g></svg>
