<?xml version="1.0" encoding="UTF-8" standalone="no"?>
<svg
   width="552"
   height="552"
   xml:space="preserve"
   overflow="hidden"
   version="1.1"
   id="svg25"
   xmlns="http://www.w3.org/2000/svg"
   xmlns:svg="http://www.w3.org/2000/svg"><defs
     id="defs1" /><g
     id="g48"
     transform="translate(-3721,-1302)"><rect
       x="196"
       y="1524"
       width="552"
       height="552"
       fill="#ffffff"
       id="rect28"
       style="overflow:hidden"
       transform="translate(3525,-222)" /><path
       d="m 328.248,1705.54 c -28.304,0 -51.248,22.96 -51.248,51.28 v 87.36 c 0,28.32 22.944,51.28 51.248,51.28 h 287.504 c 28.304,0 51.248,-22.96 51.248,-51.28 v -87.36 c 0,-28.32 -22.944,-51.28 -51.248,-51.28 z M 328.198,1647 H 615.802 C 679.976,1647 732,1699.06 732,1763.27 v 74.46 C 732,1901.94 679.976,1954 615.802,1954 H 328.198 C 264.024,1954 212,1901.94 212,1837.73 v -74.46 C 212,1699.06 264.024,1647 328.198,1647 Z"
       fill-rule="evenodd"
       id="path28"
       style="overflow:hidden"
       transform="translate(3525,-222)" /></g></svg>
