<?xml version="1.0" encoding="UTF-8" standalone="no"?>
<svg
   width="552"
   height="552"
   xml:space="preserve"
   overflow="hidden"
   version="1.1"
   id="svg25"
   xmlns="http://www.w3.org/2000/svg"
   xmlns:svg="http://www.w3.org/2000/svg"><defs
     id="defs1" /><g
     id="g79"
     transform="translate(-8049.2187,-3571.4824)"><rect
       x="8049.2188"
       y="3571.4824"
       width="552"
       height="552"
       fill="#ffffff"
       id="rect26"
       style="overflow:hidden" /><path
       id="path27"
       style="fill:#000000;fill-opacity:1;stroke:none;stroke-width:64.924;stroke-miterlimit:3;stroke-dasharray:none;stroke-opacity:1"
       d="m 8117.7947,3633.8183 v 427.3301 l 252.7249,-0.011 c 13.3811,-0.011 37.6432,-3.1536 59.3962,-9.4226 21.8296,-6.2911 40.309,-15.0017 55.4238,-26.1328 15.1147,-11.1306 26.7752,-24.3792 34.9844,-39.7441 8.2092,-15.3655 12.3183,-32.2428 12.3183,-50.6328 0,-18.1479 -4.1091,-34.9042 -12.3183,-50.2696 -8.2092,-15.3654 -19.8697,-28.6135 -34.9844,-39.7441 -15.1148,-11.1306 -33.5942,-19.7826 -55.4238,-25.9531 -21.753,-6.1488 -46.0151,-9.2284 -72.7754,-9.25 v -176.17 h -64.9238 v 234.6504 h 64.9238 c 16.8608,0.012 32.1477,1.6579 45.8535,4.9434 13.7542,3.2969 25.3967,7.9178 34.9199,13.8652 9.5233,5.9472 16.8706,13.0264 22.043,21.2363 5.1723,8.21 7.7617,17.1645 7.7617,26.8614 0,9.8262 -2.5894,18.8445 -7.7617,27.0547 -5.1724,8.2097 -12.5197,15.2872 -22.043,21.2343 -9.5232,5.9476 -21.1657,10.6034 -34.9199,13.9649 -13.7058,3.3496 -28.9927,5.027 -45.8535,5.039 v 0 c -8e-4,0 0,0 0,0 h -174.4199 v -368.8496 z" /></g></svg>
