<?xml version="1.0" encoding="UTF-8" standalone="no"?>
<svg
   width="552"
   height="552"
   xml:space="preserve"
   overflow="hidden"
   version="1.1"
   id="svg25"
   xmlns="http://www.w3.org/2000/svg"
   xmlns:svg="http://www.w3.org/2000/svg"><defs
     id="defs1" /><g
     id="g117"
     transform="translate(-8962.6201,-4563.1187)"><rect
       x="8962.6201"
       y="4563.1187"
       width="552"
       height="552"
       fill="#ffffff"
       id="rect108"
       style="overflow:hidden" /><path
       id="rect109"
       style="fill:#000000;fill-opacity:1;stroke-width:50;stroke-miterlimit:3"
       d="m 9022.25,4612.1191 v 454 h 64.9258 189 c 28.5586,0 54.4409,-3.3014 77.6406,-9.9023 23.1997,-6.6009 42.839,-15.7405 58.9024,-27.4199 16.0632,-11.6789 28.4572,-25.5815 37.1816,-41.7031 8.7244,-16.1223 13.0898,-33.8307 13.0898,-53.127 0,-19.0418 -4.3654,-36.6238 -13.0898,-52.7461 -8.7244,-16.1223 -21.1184,-30.0224 -37.1816,-41.7012 -16.0634,-11.6789 -35.7027,-20.756 -58.9024,-27.2304 -23.1997,-6.4744 -49.082,-9.711 -77.6406,-9.711 v -190.459 H 9211.25 v 248.9395 h 64.9258 v 0 c 18.6335,0 35.5211,1.8014 50.6582,5.4024 15.137,3.6011 27.9508,8.6487 38.4316,15.1445 10.4809,6.4957 18.5674,14.2281 24.2598,23.1953 5.6923,8.9672 8.541,18.7468 8.541,29.3379 0,10.7325 -2.8487,20.5817 -8.541,29.5488 -5.6924,8.9669 -13.7789,16.6976 -24.2598,23.1934 -10.4808,6.4961 -23.2946,11.5805 -38.4316,15.252 -15.1371,3.6714 -32.0247,5.5078 -50.6582,5.5078 h -189 v -395.5196 z" /></g></svg>
