<?xml version="1.0" encoding="UTF-8" standalone="no"?>
<svg
   width="552"
   height="552"
   xml:space="preserve"
   overflow="hidden"
   version="1.1"
   id="svg25"
   xmlns="http://www.w3.org/2000/svg"
   xmlns:svg="http://www.w3.org/2000/svg"><defs
     id="defs1" /><g
     id="g45"
     transform="translate(-6819,-1302)"><rect
       x="3294"
       y="1524"
       width="552"
       height="552"
       fill="#ffffff"
       id="rect32"
       style="overflow:hidden"
       transform="translate(3525,-222)" /><path
       d="m 3569.5,1881.38 c -35.47,0 -64.22,30.5 -64.22,68.12 0,37.62 28.75,68.12 64.22,68.12 35.47,0 64.22,-30.5 64.22,-68.12 0,-37.62 -28.75,-68.12 -64.22,-68.12 z m 0,-58.38 c 69.86,0 126.5,56.64 126.5,126.5 0,69.86 -56.64,126.5 -126.5,126.5 -69.86,0 -126.5,-56.64 -126.5,-126.5 0,-69.86 56.64,-126.5 126.5,-126.5 z"
       fill-rule="evenodd"
       id="path32"
       style="overflow:hidden"
       transform="translate(3525,-222)" /><rect
       x="3537"
       y="1524"
       width="65.000198"
       height="266"
       id="rect33"
       style="overflow:hidden"
       transform="translate(3525,-222)" /></g></svg>
