<?xml version="1.0" encoding="UTF-8" standalone="no"?>
<svg
   width="553"
   height="552"
   xml:space="preserve"
   overflow="hidden"
   version="1.1"
   id="svg25"
   xmlns="http://www.w3.org/2000/svg"
   xmlns:svg="http://www.w3.org/2000/svg"><defs
     id="defs1" /><g
     id="g87"
     transform="translate(-4960.85,-5207.91)"><path
       d="m 1435.85,1523.91 h 553 v 552 h -553 z"
       fill="#ffffff"
       fill-rule="evenodd"
       id="path53"
       style="overflow:hidden"
       transform="translate(3525,3684)" /><path
       d="m 1842.33,1654.91 c -0.17,0 -0.34,0.01 -0.51,0.02 -21.89,0.08 -41.67,3.62 -59.35,10.67 -17.88,7.12 -33.08,17.11 -45.57,29.96 -12.49,12.86 -22.12,28.15 -28.9,45.89 -6.79,17.75 -10.18,37.1 -10.18,58.05 l 0.01,0.14 c 0,0.09 -0.01,0.18 -0.01,0.27 0,5.27 0.63,10.43 1.81,15.47 l 0.7,5.93 c 1.7,6.92 4.24,13.53 7.63,19.83 5.11,9.49 11.84,17.99 20.18,25.51 -2.92,-0.94 -5.82,-1.8 -8.78,-2.83 -31.95,-11.14 -62.06,-26.65 -90.85,-47.13 -28.62,-20.37 -53.46,-43.88 -75.33,-68.15 -29.77,-33.06 -54.07,-67.79 -65.71,-84.74 l -50.62,34.99 c 12.08,17.34 38.5,54.63 71.37,90.56 24.27,26.53 52.53,53.03 85.73,76.28 33.53,23.48 68.78,41.32 106.14,54.06 43.66,14.89 83.81,20.52 113.26,22.85 9.04,1.51 18.5,2.31 28.41,2.35 0.19,0 0.38,0.02 0.57,0.02 0.04,0 0.07,0 0.11,0 0.05,0 0.11,0 0.16,0 0.08,0 0.15,0 0.23,0 v 0 l 0.07,-0.01 c 10.71,-0.01 20.94,-0.89 30.68,-2.62 l 0.77,-0.07 c 10.06,-1.82 19.6,-4.54 28.62,-8.18 18.04,-7.26 33.3,-17.32 45.8,-30.17 12.49,-12.86 22.12,-28.15 28.9,-45.89 6.7,-17.5 10.07,-36.69 10.16,-57.59 0,-0.16 0.02,-0.31 0.02,-0.47 0,-0.05 -0.01,-0.09 -0.01,-0.14 0,-0.09 0.01,-0.18 0.01,-0.27 0,-20.95 -3.39,-40.3 -10.18,-58.05 -6.78,-17.74 -16.41,-33.03 -28.9,-45.89 -12.5,-12.85 -27.76,-22.84 -45.8,-29.96 -18.04,-7.13 -38.16,-10.69 -60.37,-10.69 -0.06,0 -0.11,0 -0.16,0 -0.04,0 -0.07,0 -0.11,0 z m 0.34,58.78 c 12.26,0 23.36,2.12 33.31,6.38 9.96,4.24 18.38,10.2 25.27,17.87 6.89,7.67 12.2,16.79 15.95,27.37 3.74,10.59 5.61,22.13 5.61,34.63 0,12.67 -1.87,24.29 -5.61,34.87 -3.75,10.59 -9.06,19.71 -15.95,27.38 -6.89,7.67 -15.31,13.67 -25.27,18 -9.95,4.33 -21.05,6.5 -33.31,6.5 -12.25,0 -23.3,-2.17 -33.17,-6.5 -9.87,-4.33 -18.25,-10.33 -25.14,-18 -6.89,-7.67 -12.2,-16.79 -15.95,-27.38 -3.74,-10.58 -5.62,-22.2 -5.62,-34.87 0,-12.5 1.88,-24.04 5.62,-34.63 3.75,-10.58 9.06,-19.7 15.95,-27.37 6.89,-7.67 15.27,-13.63 25.14,-17.87 9.87,-4.26 20.92,-6.38 33.17,-6.38 z"
       fill-rule="evenodd"
       id="path54"
       style="overflow:hidden"
       transform="translate(3525,3684)" /></g></svg>
