<?xml version="1.0" encoding="UTF-8" standalone="no"?>
<svg
   width="553"
   height="552.00073"
   xml:space="preserve"
   overflow="hidden"
   version="1.1"
   id="svg25"
   xmlns="http://www.w3.org/2000/svg"
   xmlns:svg="http://www.w3.org/2000/svg"><defs
     id="defs1" /><g
     id="g1"
     transform="translate(-4961,-1953)"><rect
       x="4961"
       y="1953.0007"
       width="553"
       height="552"
       fill="#ffffff"
       id="rect23-7-6"
       style="overflow:hidden" /><path
       id="path24-3-8"
       style="overflow:hidden"
       d="m 5276.4697,1953 c -24.8497,0 -47.279,3.8302 -67.289,11.4902 -20.02,7.66 -37.0103,18.4105 -50.9903,32.2305 -13.9697,13.82 -24.7596,30.2696 -32.3496,49.3496 -7.59,19.08 -11.3808,39.8899 -11.3808,62.4199 0,22.84 3.7908,43.7911 11.3808,62.8711 7.59,19.08 18.3799,35.5296 32.3496,49.3496 l 11.3829,9.0547 19.4687,7.1973 -19.9863,6.1425 0.01,-0.1445 -10.8711,8.9805 c -13.9697,14.4 -24.7596,31.5404 -32.3496,51.4101 -7.59,19.88 -11.3808,41.5496 -11.3808,65.0196 l 0.2109,2.5703 h -0.2109 v 4.7226 l 6.9843,50.0371 -47.5546,-84.0703 -44.959,-57.0703 -48.9297,38.6309 L 5105.9036,2483 h 73.461 v -112.0586 h 0.1894 l -0.1894,-2.4004 c 0,-15.02 2.2798,-28.8916 6.8398,-41.6113 4.55,-12.72 11.0202,-23.6885 19.4102,-32.8985 8.38,-9.22 18.5798,-16.3802 30.5898,-21.4902 12.01,-5.1 25.4694,-7.6602 40.3691,-7.6602 14.91,0 28.4213,2.5602 40.5313,7.6602 12.11,5.11 22.36,12.2702 30.75,21.4902 8.38,9.21 14.8502,20.1785 19.4102,32.8985 4.55,12.7197 6.83,26.5913 6.83,41.6113 l -0.1914,2.4004 h 0.1914 V 2483 h 22.959 41.9512 v -112.0586 h -0.2109 l 0.2109,-2.5703 c 0,-23.47 -3.8006,-45.1396 -11.3906,-65.0196 -7.59,-19.8697 -18.3699,-37.0101 -32.3496,-51.4101 l -11.3614,-9.3594 v 0.012 l -19.5097,-7.2129 19.9882,-6.1425 v 0.1093 l 10.8868,-8.6367 c 13.9797,-13.82 24.7596,-30.2696 32.3496,-49.3496 7.59,-19.08 11.3906,-40.0311 11.3906,-62.8711 0,-22.53 -3.8006,-43.3399 -11.3906,-62.4199 -7.59,-19.08 -18.3699,-35.5296 -32.3496,-49.3496 -13.97,-13.82 -31.0603,-24.5705 -51.2403,-32.2305 -20.19,-7.66 -42.7108,-11.4902 -67.5508,-11.4902 z m 0.1,58.4804 c 14.91,0 28.4213,2.3897 40.5313,7.1797 12.11,4.79 22.36,11.5007 30.75,20.1407 8.38,8.6397 14.8502,18.9196 19.4102,30.8496 4.55,11.92 6.83,24.9197 6.83,39.0097 0,14.27 -2.28,27.3713 -6.83,39.291 -4.56,11.93 -11.0302,22.2097 -19.4102,30.8497 -8.39,8.6397 -18.64,15.3995 -30.75,20.2792 -12.11,4.88 -25.6213,7.3204 -40.5313,7.3204 -14.8997,0 -28.3591,-2.4404 -40.3691,-7.3204 -12.01,-4.8797 -22.2098,-11.6395 -30.5898,-20.2792 -8.39,-8.64 -14.8602,-18.9197 -19.4102,-30.8497 -4.56,-11.9197 -6.8398,-25.021 -6.8398,-39.291 0,-14.09 2.2798,-27.0897 6.8398,-39.0097 4.55,-11.93 11.0202,-22.2099 19.4102,-30.8496 8.38,-8.64 18.5798,-15.3507 30.5898,-20.1407 12.01,-4.79 25.4694,-7.1797 40.3691,-7.1797 z" /></g></svg>
