<?xml version="1.0" encoding="UTF-8" standalone="no"?>
<svg
   width="552.17981"
   height="552"
   xml:space="preserve"
   overflow="hidden"
   version="1.1"
   id="svg25"
   xmlns="http://www.w3.org/2000/svg"
   xmlns:svg="http://www.w3.org/2000/svg"><defs
     id="defs1" /><g
     id="g151"
     transform="translate(-10904.534,-3644.176)"><rect
       x="10904.534"
       y="3644.176"
       width="552"
       height="552"
       fill="#ffffff"
       id="rect146"
       style="overflow:hidden" /><path
       id="path146"
       style="overflow:hidden"
       d="m 11219.533,3838.1758 c -27.36,0 -52.069,4.3899 -74.109,13.1699 -22.04,8.78 -40.761,21.0899 -56.151,36.9199 -15.39,15.84 -27.268,34.6908 -35.628,56.5508 -8.36,21.86 -12.541,45.6996 -12.541,71.5195 l 0.169,2 h -0.119 v 49.6524 l 6.823,48.8887 -47.834,-84.5645 -44.62,-56.5664 -48.99,38.6191 126.051,159.8106 h 61.76 11.769 v -155.8399 h 0.121 l -0.14,-1.83 c 0,-17.37 2.66,-33.4094 7.98,-48.1094 5.32,-14.71 12.88,-27.391 22.67,-38.041 9.8,-10.66 21.711,-18.9399 35.731,-24.8399 14.03,-5.91 29.75,-8.8594 47.16,-8.8594 17.42,0 33.2,2.9494 47.34,8.8594 14.15,5.9 26.12,14.1799 35.92,24.8399 9.79,10.65 17.349,23.331 22.669,38.041 5.32,14.7 7.981,30.7394 7.981,48.1094 l -0.141,1.83 h 0.17 v 155.8399 h 64.959 v -155.8399 h -0.17 l 0.17,-2 c 0,-25.8199 -4.179,-49.6595 -12.539,-71.5195 -8.36,-21.86 -20.241,-40.7108 -35.631,-56.5508 -15.39,-15.83 -34.199,-28.1399 -56.439,-36.9199 -22.23,-8.78 -47.031,-13.1699 -74.391,-13.1699 z" /><rect
       x="11187.534"
       y="3644.176"
       width="65"
       height="135"
       id="rect147"
       style="overflow:hidden" /><path
       d="m 11402.704,3676.1361 54.01,31.18 -67.89,117.59 -54.01,-31.18 z"
       fill-rule="evenodd"
       id="path147"
       style="overflow:hidden" /><rect
       x="-7720.0308"
       y="8702.001"
       width="62.362179"
       height="135.78096"
       transform="matrix(-0.8660253,0.50000017,0.50000017,0.8660253,0,0)"
       id="rect148"
       style="overflow:hidden" /></g></svg>
