<?xml version="1.0" encoding="UTF-8" standalone="no"?>
<svg
   width="552"
   height="553.27942"
   xml:space="preserve"
   overflow="hidden"
   version="1.1"
   id="svg25"
   xmlns="http://www.w3.org/2000/svg"
   xmlns:svg="http://www.w3.org/2000/svg"><defs
     id="defs1"><clipPath
       clipPathUnits="userSpaceOnUse"
       id="clipPath167"><g
         id="g168"><rect
           x="7448.4663"
           y="5468.9941"
           width="2413"
           height="1239"
           id="rect167" /></g></clipPath><clipPath
       clipPathUnits="userSpaceOnUse"
       id="clipPath168"><g
         id="g169"><rect
           x="7448.4663"
           y="5468.9941"
           width="2413"
           height="1239"
           id="rect168" /></g></clipPath><clipPath
       clipPathUnits="userSpaceOnUse"
       id="clipPath169"><g
         id="g170"><rect
           x="7448.4663"
           y="5468.9941"
           width="2413"
           height="1239"
           id="rect169" /></g></clipPath></defs><g
     id="g63"
     transform="translate(-8689.4658,-6121.994)"><rect
       x="8689.4658"
       y="6121.9941"
       width="552"
       height="552"
       fill="#ffffff"
       id="rect12-50"
       clip-path="url(#clipPath169)" /><path
       d="m 8815.4661,6166.994 c 0,-24.85 19.92,-45 44.5,-45 24.58,0 44.5,20.15 44.5,45 0,24.85 -19.92,45 -44.5,45 -24.58,0 -44.5,-20.15 -44.5,-45 z"
       fill-rule="evenodd"
       id="path13-94"
       clip-path="url(#clipPath168)" /><path
       d="m 9026.4661,6166.994 c 0,-24.85 19.92,-45 44.5,-45 24.58,0 44.5,20.15 44.5,45 0,24.85 -19.92,45 -44.5,45 -24.58,0 -44.5,-20.15 -44.5,-45 z"
       fill-rule="evenodd"
       id="path14-7"
       clip-path="url(#clipPath167)" /><path
       id="path16-61"
       style="color:#000000;fill:#000000;fill-rule:evenodd;stroke-miterlimit:8;-inkscape-stroke:none"
       d="m 8933.5045,6232.4941 v 68.5215 h -94.5918 v 59.9356 h 94.5918 v 62.9648 h -94.5918 v 59.9356 h 94.5918 v 62.9648 h -94.5918 v 59.9356 h 94.5918 v 68.5214 h 64.9239 v -68.5214 h 94.5918 v -59.9356 h -94.5918 v -62.9648 h 94.5918 v -59.9356 h -94.5918 v -62.9648 h 94.5918 v -59.9356 h -94.5918 v -68.5215 z"
       transform="translate(0.056)" /></g></svg>
