<?xml version="1.0" encoding="UTF-8" standalone="no"?>
<svg
   width="552"
   height="552"
   xml:space="preserve"
   overflow="hidden"
   version="1.1"
   id="svg25"
   xmlns="http://www.w3.org/2000/svg"
   xmlns:svg="http://www.w3.org/2000/svg"><defs
     id="defs1"><clipPath
       clipPathUnits="userSpaceOnUse"
       id="clipPath161"><g
         id="g162"><rect
           x="7448.4663"
           y="5468.9941"
           width="2413"
           height="1239"
           id="rect161" /></g></clipPath></defs><g
     id="g205"
     transform="translate(-3101.021,-5859.0923)"><rect
       x="9309.4658"
       y="6121.9941"
       width="552"
       height="552"
       fill="#ffffff"
       id="rect193"
       clip-path="url(#clipPath161)"
       transform="translate(-6208.4448,-262.90186)" /><path
       style="color:#000000;fill:#000000;stroke-miterlimit:8;-inkscape-stroke:none"
       d="m 9368.2305,6147.7578 v 501.4727 h 435.4707 v -501.4727 z m 45.4707,45.4727 h 344.5293 v 410.5273 h -344.5293 z"
       id="rect194"
       transform="translate(-6208.4448,-262.90186)" /><path
       style="color:#000000;fill:#000000;fill-rule:evenodd;stroke-miterlimit:8;-inkscape-stroke:none"
       d="m 9527.7764,6315.5378 c -17.6418,6.5685 -33.1471,16.0097 -45.8793,28.251 -12.7322,12.2414 -22.6266,26.9674 -29.4066,43.5315 -6.8438,16.72 -10.1738,34.8671 -10.1738,53.836 0,19.1558 3.3146,37.4148 10.1362,54.0744 6.8215,16.6596 16.7159,31.3856 29.3931,43.5799 12.7696,12.2836 28.229,21.7434 45.6719,28.3613 17.8199,6.7648 37.384,9.9785 58.2734,9.9785 20.8821,0 40.4897,-3.2177 58.4062,-9.957 17.5744,-6.6107 33.1208,-16.0711 45.92,-28.3828 12.6761,-12.1933 22.5696,-26.918 29.3906,-43.5763 6.821,-16.6582 10.1329,-34.9159 10.1329,-54.0702 0,-18.9689 -3.3301,-37.116 -10.1739,-53.836 -6.78,-16.5641 -16.6744,-31.2901 -29.3515,-43.4844 v 0 0 c -12.8169,-12.3169 -28.4094,-21.7585 -46.043,-28.2636 -17.8868,-6.5986 -37.4416,-9.7383 -58.2916,-9.7422 -20.8501,0 -40.3629,3.1315 -58.0046,9.6999 z m 101.2822,40.679 c 12.7254,4.6945 22.8149,10.9714 31.0176,18.8535 8.3198,8.0045 14.6443,17.3369 19.2832,28.6699 4.5762,11.1801 6.9453,23.4527 6.9453,37.4239 0,14.2241 -2.3865,26.6251 -6.985,37.8554 -4.5984,11.2304 -10.9247,20.5646 -19.2475,28.5703 -8.2206,7.9078 -18.3554,14.2475 -31.1406,19.0567 -12.4435,4.6806 -26.6964,7.1836 -43.1543,7.1836 -16.4691,0 -30.6415,-2.506 -43.0995,-7.2342 -12.458,-4.7282 -22.5564,-11.0678 -30.8067,-19.0042 -8.3228,-8.0057 -14.6511,-17.3399 -19.291,-28.6757 v 0 0 c -4.5569,-11.1249 -6.9433,-23.5259 -6.9433,-37.75 0,-13.9712 2.3691,-26.2438 6.9453,-37.4239 4.6384,-11.3321 10.9643,-20.6639 19.2832,-28.6679 v 0 l 0.01,-0.01 c 8.2313,-7.9081 18.2834,-14.1832 30.8769,-18.8692 v 0 0 c 12.2889,-4.5757 26.5159,-7.0391 43.0217,-7.0399 16.5058,-8e-4 30.8115,2.4603 43.2847,7.0617 z"
       id="path195"
       transform="matrix(1.0501594,0,0,1.0491029,-6689.5183,-576.90848)" /><path
       style="color:#000000;fill:#000000;fill-rule:evenodd;stroke-miterlimit:8;-inkscape-stroke:none"
       d="m 9567.3047,6219.4941 v 68.1407 h 43.3223 v -68.1407 z"
       id="path196"
       transform="matrix(1.0501594,0,0,1.0491029,-6689.5183,-576.90848)" /><path
       style="color:#000000;fill:#000000;fill-rule:evenodd;stroke-miterlimit:8;-inkscape-stroke:none"
       d="m 9477.6895,6229.0391 -35.4454,24.9101 41.4688,59.0098 35.4453,-24.9102 z"
       id="path197"
       transform="matrix(1.0501594,0,0,1.0491029,-6689.5183,-576.90848)" /><path
       style="color:#000000;fill:#000000;fill-rule:evenodd;stroke-miterlimit:8;-inkscape-stroke:none"
       d="m 9694.7129,6229.0391 -41.4707,59.0156 35.4473,24.9082 41.4687,-59.0156 z"
       id="path198"
       transform="matrix(1.0501594,0,0,1.0491029,-6689.5183,-576.90848)" /><path
       style="color:#000000;fill:#000000;fill-rule:evenodd;stroke-miterlimit:8;-inkscape-stroke:none"
       d="m 9510.0996,6430.4746 c 5.8824,33.0914 25.5594,61.6358 51.6296,70.1276 26.0701,8.4918 49.5378,2.8061 66.5702,-10.6588 17.0324,-13.465 28.7321,-34.0324 33.3066,-58.2188 l -42.5664,-8.0508 c -2.8755,15.2036 -10.0874,26.3382 -17.6074,32.2832 -7.5156,5.9415 -14.2383,7.3767 -23.6045,4.3256 -9.3662,-3.051 -21.3883,-16.706 -25.0654,-37.392 -14.2208,2.5283 -28.4418,5.0561 -42.6627,7.584 z"
       id="path199"
       transform="matrix(1.0501594,0,0,1.0491029,-6689.5183,-576.90848)" /></g></svg>
