<?xml version="1.0" encoding="UTF-8" standalone="no"?>
<svg
   width="552"
   height="552"
   xml:space="preserve"
   overflow="hidden"
   version="1.1"
   id="svg25"
   sodipodi:docname="nasin Koko.svg"
   inkscape:version="1.3.2 (091e20e, 2023-11-25, custom)"
   inkscape:export-filename="nasin Koko.png"
   inkscape:export-xdpi="96"
   inkscape:export-ydpi="96"
   xmlns:inkscape="http://www.inkscape.org/namespaces/inkscape"
   xmlns:sodipodi="http://sodipodi.sourceforge.net/DTD/sodipodi-0.dtd"
   xmlns="http://www.w3.org/2000/svg"
   xmlns:svg="http://www.w3.org/2000/svg"><sodipodi:namedview
     id="namedview25"
     pagecolor="#ffffff"
     bordercolor="#111111"
     borderopacity="1"
     inkscape:showpageshadow="0"
     inkscape:pageopacity="0"
     inkscape:pagecheckerboard="1"
     inkscape:deskcolor="#d1d1d1"
     inkscape:zoom="0.062500002"
     inkscape:cx="8927.9998"
     inkscape:cy="7767.9998"
     inkscape:window-width="1920"
     inkscape:window-height="991"
     inkscape:window-x="-9"
     inkscape:window-y="-9"
     inkscape:window-maximized="1"
     inkscape:current-layer="svg25"
     inkscape:export-bgcolor="#ffffff00"
     showgrid="false" /><defs
     id="defs1"><clipPath
       clipPathUnits="userSpaceOnUse"
       id="clipPath161"><g
         id="g162"><rect
           x="7448.4663"
           y="5468.9941"
           width="2413"
           height="1239"
           id="rect161" /></g></clipPath></defs><g
     id="g4"
     inkscape:label="pu"
     transform="translate(-9300.8689,-6846.5354)"
     inkscape:export-filename="svg\g4.svg"
     inkscape:export-xdpi="96"
     inkscape:export-ydpi="96"><rect
       x="9309.4658"
       y="6121.9941"
       width="552"
       height="552"
       fill="#ffffff"
       id="rect199"
       clip-path="url(#clipPath161)"
       transform="translate(-8.596942,724.54127)" /><path
       style="color:#000000;fill:#000000;stroke-miterlimit:8;-inkscape-stroke:none"
       d="m 9366.8242,6146.3535 v 504.2813 h 438.2832 v -504.2813 z m 48.2832,48.2813 h 341.7168 v 407.7187 h -341.7168 z"
       id="rect200"
       transform="matrix(1.0380533,0,0,1.0330725,-373.87458,512.42707)" /><path
       style="color:#000000;fill:#000000;fill-rule:evenodd;stroke-miterlimit:8;-inkscape-stroke:none"
       d="m 9585.7754,6303.6758 c -21.0601,0 -40.8353,3.1701 -58.9004,9.8965 h 0.01 c -17.7466,6.6033 -33.5251,16.2026 -46.5391,28.7089 v 0 0 c -12.894,12.4027 -22.965,27.3981 -29.8516,44.2226 -6.9567,16.9958 -10.334,35.4347 -10.334,54.6524 0,19.4014 3.36,37.9528 10.3379,54.9882 6.8865,16.8219 16.9554,31.8157 29.8477,44.2168 12.9947,12.5002 28.7212,22.116 46.4023,28.8243 18.0969,6.8699 37.9296,10.1191 59.0391,10.1191 21.1024,0 40.977,-3.2539 59.166,-10.0957 17.8133,-6.7005 33.6289,-16.3161 46.6563,-28.8477 12.8925,-12.4013 22.963,-27.3946 29.8496,-44.2168 v -0.01 c 6.9763,-17.0339 10.334,-35.5832 10.334,-54.9824 0,-19.2177 -3.3773,-37.6566 -10.334,-54.6524 -6.8866,-16.8245 -16.9576,-31.8199 -29.8515,-44.2226 v 0 0 c -13.0466,-12.5376 -28.9131,-22.1371 -46.791,-28.7324 -18.1563,-6.698 -37.9721,-9.873 -59.0234,-9.873 z m 0,47.6367 c 16.2886,0 30.3335,2.4257 42.5371,6.9277 12.4811,4.6044 22.2946,10.7234 30.2676,18.3848 8.103,7.7959 14.2509,16.8589 18.7832,27.9316 4.4633,10.9043 6.7851,22.8851 6.7851,36.6075 0,13.9785 -2.3411,26.087 -6.7832,36.9316 v 0 0 c -4.5334,11.0755 -10.6831,20.1403 -18.7891,27.9375 -7.9926,7.6884 -17.8576,13.8723 -30.4043,18.5918 -12.171,4.5781 -26.1569,7.0449 -42.3945,7.0449 -16.2489,0 -30.1528,-2.4705 -42.1348,-7.0196 v 0 0 c -12.4189,-4.7117 -22.2521,-10.8954 -30.2774,-18.6152 -8.106,-7.7972 -14.2556,-16.862 -18.789,-27.9375 v 0 0 c -4.4421,-10.8446 -6.7832,-22.9531 -6.7832,-36.9316 0,-13.7224 2.3219,-25.7032 6.7852,-36.6075 4.5319,-11.0718 10.6792,-20.1342 18.7812,-27.9296 v 0 c 0,0 0,0 0.01,-0.01 8.0045,-7.6901 17.7855,-13.8072 30.1348,-18.4023 v 0 0 c 12.0149,-4.4736 25.9794,-6.9023 42.2793,-6.9023 z"
       id="path200"
       transform="matrix(1.0501594,0,0,1.0491029,-489.67052,410.53465)" /><path
       style="color:#000000;fill:#000000;fill-rule:evenodd;stroke-miterlimit:8;-inkscape-stroke:none"
       d="m 9565.1484,6219.4941 v 68.1407 h 47.6348 v -68.1407 z"
       id="path201"
       transform="matrix(1.0501594,0,0,1.0491029,-489.67052,410.53465)" /><path
       style="color:#000000;fill:#000000;fill-rule:evenodd;stroke-miterlimit:8;-inkscape-stroke:none"
       d="m 9479.4531,6227.7988 -38.9746,27.3907 41.4707,59.0097 38.9746,-27.3906 z"
       id="path202"
       transform="matrix(1.0501594,0,0,1.0491029,-489.67052,410.53465)" /><path
       style="color:#000000;fill:#000000;fill-rule:evenodd;stroke-miterlimit:8;-inkscape-stroke:none"
       d="m 9692.9492,6227.8008 -41.4707,59.0137 38.9746,27.3886 41.4707,-59.0156 z"
       id="path203"
       transform="matrix(1.0501594,0,0,1.0491029,-489.67052,410.53465)" /><path
       style="color:#000000;fill:#000000;fill-rule:evenodd;stroke-miterlimit:8;-inkscape-stroke:none"
       d="m 9554.877,6422.5156 -46.9004,8.3379 c 5.9921,33.7089 26.0486,62.9933 57.1132,73.125 h 0.01 0.01 c 22.7174,7.3934 47.0194,1.4956 64.5254,-12.3437 17.5059,-13.8394 29.4288,-34.8742 34.0879,-59.5078 l -46.8047,-8.8536 c -2.791,14.7564 -9.7797,25.4216 -16.8262,30.9922 -7.0418,5.567 -12.9307,6.7902 -20.2266,4.42 v 0 c -9.7745,-3.1904 -21.4131,-16.1035 -24.9804,-36.1719 z"
       id="path204"
       transform="matrix(1.0501594,0,0,1.0491029,-489.67052,410.53465)" /></g></svg>
