<?xml version="1.0" encoding="UTF-8" standalone="no"?>
<svg
   width="582.66809"
   height="733.89069"
   xml:space="preserve"
   overflow="hidden"
   version="1.1"
   id="svg25"
   xmlns="http://www.w3.org/2000/svg"
   xmlns:svg="http://www.w3.org/2000/svg"><defs
     id="defs1" /><g
     id="g228"
     transform="matrix(-1,0,0,1,10229.299,484.24224)"><rect
       x="9646.6318"
       y="-393.29697"
       width="552"
       height="552"
       fill="#ffffff"
       id="rect227"
       style="overflow:hidden" /><path
       id="path227"
       style="overflow:hidden;fill:#000000;fill-opacity:1;stroke-width:0.999999"
       d="m 10013.576,-484.24219 c -56.2743,0 -107.0754,9.01351 -152.4041,27.04297 -45.3316,18.02946 -83.8236,43.30559 -115.4766,75.82813 -31.6542,32.52242 -56.0774,71.2327 -73.2715,116.1289 -17.1954,44.89622 -25.7929,93.85867 -25.7929,146.88477 0,53.734887 8.5975,103.049001 25.7929,147.945311 17.1941,44.89481 41.6173,83.604429 73.2715,116.126949 31.653,32.52374 70.145,57.97762 115.4766,76.35938 45.3287,18.38176 96.1298,27.57422 152.4041,27.57422 h 215.723 v -58.47852 h -215.723 v -0.002 c -46.3176,0 -88.1306,-7.72741 -125.4393,-23.17969 -37.3109,-15.45228 -68.9905,-36.84899 -95.0429,-64.18945 -26.0536,-27.339459 -46.1568,-59.881121 -60.3086,-97.6210956 -14.153,-37.7412364 -21.2286,-79.1959644 -21.2286,-124.3671844 0,-44.57539 7.0756,-85.73346 21.2286,-123.47461 14.1518,-37.74115 34.255,-70.28172 60.3086,-97.6211 26.0524,-27.33946 57.732,-48.588 95.0429,-63.74414 37.3087,-15.15612 79.1217,-22.73242 125.4393,-22.73242 h 215.723 v -58.48047 z" /></g></svg>
