<?xml version="1.0" encoding="UTF-8" standalone="no"?>
<svg
   width="552"
   height="552.24359"
   xml:space="preserve"
   overflow="hidden"
   version="1.1"
   id="svg25"
   xmlns="http://www.w3.org/2000/svg"
   xmlns:svg="http://www.w3.org/2000/svg"><defs
     id="defs1" /><g
     id="g60"
     transform="translate(-6202,-5208)"><rect
       x="6202"
       y="5208"
       width="552"
       height="552"
       fill="#ffffff"
       id="rect39"
       style="overflow:hidden" /><path
       id="path59"
       style="stroke-width:64.924;stroke-miterlimit:3"
       d="m 6479.1367,5208.7871 h -0.01 c -14.03,0.1346 -28.572,1.3186 -43.375,3.6328 -21.435,3.351 -41.1645,8.7136 -58.4805,14.9922 -17.1389,6.2144 -30.1065,12.6747 -38.1445,17.0469 l 29.0059,52.6269 c 6.12,-3.4308 16.2274,-8.7574 29.8554,-13.9882 13.818,-5.3037 29.7495,-9.93 47.0645,-12.8086 11.936,-1.9845 23.5497,-2.9723 34.5137,-3.0254 14.3379,-0.069 28.3678,1.4723 41.2148,4.791 10.602,2.7387 20.1489,6.6251 28.2539,11.5996 7.618,4.6757 13.8797,10.2553 18.6817,16.748 4.4939,6.0754 8.0888,13.4533 10.1738,22.6348 1.244,5.479 2.0034,11.8305 1.9804,19.1953 -0.01,4.3533 -0.3018,9.2651 -1.0078,14.7774 -1.476,11.507 -5.2983,23.1917 -12.2793,35.0976 -6.37,10.8633 -15.2987,21.7808 -27.1367,32.6328 -11.301,10.359 -24.776,20.2213 -40.0267,29.5002 -15.2506,9.279 -31.7078,17.6264 -48.7623,25.16 -5.384,2.3783 -10.7895,4.6294 -16.1914,6.8164 v 114.5977 h 64.9257 v -75.5274 c 0,0 21.7716,-11.1228 32.2246,-17.3672 18.194,-10.8687 35.2214,-23.0235 50.2344,-36.6289 15.766,-14.2891 29.0672,-29.961 39.1992,-47.1211 11.264,-19.0786 17.9941,-38.9561 20.5371,-59.2324 1.017,-8.1107 1.4519,-15.6964 1.4239,-22.7832 -0.05,-12.0031 -1.4264,-23.274 -4.0254,-33.793 -4.431,-17.9361 -12.2898,-33.239 -22.4278,-45.9609 -10.6549,-13.3706 -23.539,-23.5388 -37.0839,-31.1543 -14.301,-8.0404 -29.6365,-13.4125 -44.8145,-16.875 -18.409,-4.1996 -37.3264,-5.7624 -55.5254,-5.5879 z" /><path
       d="m 6422.3474,5715.2436 c 0,-24.85 19.923,-45 44.5,-45 24.577,0 44.5,20.15 44.5,45 0,24.85 -19.923,45 -44.5,45 -24.577,0 -44.5,-20.15 -44.5,-45 z"
       fill-rule="evenodd"
       id="path41"
       style="overflow:hidden" /></g></svg>
