<?xml version="1.0" encoding="UTF-8" standalone="no"?>
<svg
   width="553.06201"
   height="552"
   xml:space="preserve"
   overflow="hidden"
   version="1.1"
   id="svg25"
   xmlns="http://www.w3.org/2000/svg"
   xmlns:svg="http://www.w3.org/2000/svg"><defs
     id="defs1" /><g
     id="g268"
     transform="translate(-15447.688,-5707.0029)"><rect
       x="15448.75"
       y="5707.0029"
       width="552"
       height="552"
       fill="#ffffff"
       id="rect263"
       style="overflow:hidden" /><path
       id="path263"
       style="fill:#000000;fill-rule:nonzero;stroke:none;stroke-width:64.9241;stroke-linejoin:bevel;stroke-miterlimit:3;stroke-dasharray:none;stroke-opacity:1"
       d="m 15785.016,5881.7773 c 0.462,27.6748 1.229,77.6906 -0.168,122.9707 -1.042,33.7298 -3.263,65.961 -7.664,92.6036 -2.039,12.3487 -4.453,22.9331 -7.221,31.7597 -2.783,8.8713 -5.698,15.2417 -8.449,19.6719 -1.372,2.2081 -2.617,3.7964 -3.666,4.9277 -1.06,1.1423 -1.925,1.8246 -2.551,2.2364 -0.634,0.4165 -1.189,0.668 -1.746,0.8281 -0.593,0.1704 -1.414,0.3019 -2.584,0.2734 -0.01,-4e-4 -0.03,0 -0.04,0 -4.659,-0.1283 -8.06,-0.9497 -10.584,-2.0097 -2.477,-1.04 -4.541,-2.4849 -6.432,-4.4141 -1.959,-1.9984 -3.967,-4.7428 -5.98,-8.6641 -2.031,-3.9547 -3.975,-8.9572 -5.723,-15.2304 -3.547,-12.7271 -5.886,-29.1619 -7.209,-49.7989 -1.315,-20.5181 -1.562,-44.0223 -1.367,-70.5332 v -0.4765 h -64.924 c 0,26.6425 -0.651,50.5511 -2.043,71.6035 -1.401,21.1848 -3.681,38.2782 -7.133,51.5879 -1.704,6.5708 -3.586,11.7867 -5.539,15.8769 -1.94,4.0616 -3.83,6.758 -5.463,8.5371 -1.563,1.7032 -3.099,2.8086 -4.818,3.5352 -1.764,0.7455 -4.366,1.3651 -8.289,1.2715 h -0.05 c -4.558,-0.1156 -7.869,-0.8451 -10.369,-1.8125 -2.421,-0.9365 -4.322,-2.2002 -5.99,-3.7832 -1.696,-1.6089 -3.477,-3.8655 -5.252,-7.0762 -1.801,-3.2561 -3.575,-7.4579 -5.201,-12.8496 -3.312,-10.978 -5.595,-25.4508 -6.891,-44.1289 -1.288,-18.5528 -1.534,-40.0523 -1.266,-64.6758 v -0.4922 l -64.922,-0.037 v 0.037 c 0,20.8097 -4.039,47.0438 -15.404,73.6758 -6.948,16.2813 -15.74,30.3458 -25.642,42.2852 -9.817,11.8378 -19.576,20.1921 -26.748,25.6191 l 36.812,49.5176 c 0.111,-0.082 0.251,-0.1949 0.363,-0.2774 9.869,-9.9075 23.408,-25.024 37.217,-46.6386 4.478,-7.0084 8.775,-14.4503 12.901,-22.2383 2.187,6.4025 4.623,12.6141 7.41,18.5058 4.982,10.5346 11.019,20.1718 18.33,28.3204 7.352,8.1949 15.629,14.481 24.761,18.748 2.725,1.2731 5.494,2.3275 8.295,3.2207 6.534,1.5288 13.251,2.3676 20.118,2.541 h 0.132 c 5.885,0.1406 11.679,-0.3243 17.366,-1.3301 4.344,-1.0789 8.621,-2.6387 12.8,-4.7949 9.742,-5.0255 18.269,-12.7007 25.582,-22.4238 4.722,-6.2774 8.768,-13.3004 12.346,-20.7149 3.465,6.4536 7.29,12.5461 11.619,18.0215 7.469,9.4464 16.008,16.8634 25.586,21.9532 8.501,4.5174 17.441,6.8991 26.655,7.6699 v 0.1172 c 1.115,0.066 2.218,0.1821 3.341,0.2129 0.07,0 0.15,-3e-4 0.223,0.01 6.07,0.1483 12.303,-0.4515 18.562,-2.039 6.063,-1.5377 11.886,-3.9367 17.383,-7.1954 5.297,-3.1398 10.092,-6.9575 14.414,-11.2988 4.208,-4.2266 7.938,-8.9178 11.256,-13.9238 6.474,-9.7675 11.586,-21.0404 15.727,-33.1563 4.16,-12.174 7.483,-25.6176 10.177,-39.8906 5.768,-30.5309 8.844,-65.8907 10.59,-100.7031 2.37,-47.2244 2.424,-97.5732 2.287,-125.5274 v 0 z" /><path
       style="color:#000000;fill:#000000;stroke-miterlimit:3;-inkscape-stroke:none"
       d="m 15919.824,5761.0977 v 443.8105 h 64.924 v -443.8105 z"
       id="path264" /></g></svg>
