<?xml version="1.0" encoding="UTF-8" standalone="no"?>
<svg
   width="552"
   height="552"
   xml:space="preserve"
   overflow="hidden"
   version="1.1"
   id="svg25"
   xmlns="http://www.w3.org/2000/svg"
   xmlns:svg="http://www.w3.org/2000/svg"><defs
     id="defs1" /><g
     id="g34"
     transform="translate(-2481,-651)"><rect
       x="2677"
       y="873"
       width="552"
       height="552"
       fill="#ffffff"
       id="rect11"
       transform="translate(-196,-222)" /><path
       d="m 2952.66,931.447 c -32.31,0 -61.49,5.344 -87.52,16.034 -26.03,10.689 -48.13,25.675 -66.31,44.956 -18.18,19.283 -32.2,42.233 -42.08,68.853 -9.87,26.62 -14.81,55.64 -14.81,87.08 0,31.86 4.94,61.1 14.81,87.71 9.88,26.62 23.9,49.57 42.08,68.85 18.18,19.29 40.28,34.38 66.31,45.27 26.03,10.9 55.21,16.35 87.52,16.35 32.32,0 61.6,-5.45 87.86,-16.35 26.26,-10.89 48.47,-25.98 66.65,-45.27 18.18,-19.28 32.2,-42.23 42.08,-68.85 9.87,-26.61 14.81,-55.85 14.81,-87.71 0,-31.44 -4.94,-60.46 -14.81,-87.08 -9.88,-26.62 -23.9,-49.57 -42.08,-68.853 -18.18,-19.281 -40.39,-34.267 -66.65,-44.956 -26.26,-10.69 -55.54,-16.034 -87.86,-16.034 z M 2952.56,873 c 42.26,0 80.55,6.78 114.89,20.341 34.33,13.561 63.39,32.573 87.16,57.035 23.77,24.462 42.11,53.574 55.02,87.344 12.91,33.77 19.37,70.6 19.37,110.48 0,40.42 -6.46,77.51 -19.37,111.28 -12.91,33.77 -31.25,62.88 -55.02,87.35 -23.77,24.46 -52.83,43.6 -87.16,57.43 -34.34,13.83 -72.63,20.74 -114.89,20.74 -42.26,0 -80.41,-6.91 -114.45,-20.74 -34.04,-13.83 -62.95,-32.97 -86.72,-57.43 -23.77,-24.47 -42.11,-53.58 -55.02,-87.35 -12.91,-33.77 -19.37,-70.86 -19.37,-111.28 0,-39.88 6.46,-76.71 19.37,-110.48 12.91,-33.77 31.25,-62.882 55.02,-87.344 23.77,-24.462 52.68,-43.474 86.72,-57.035 C 2872.15,879.78 2910.3,873 2952.56,873 Z"
       fill-rule="evenodd"
       id="path12"
       transform="translate(-196,-222)" /><path
       d="m 2952.87,1059.5 c -12.72,0 -24.21,2.2 -34.46,6.6 -10.24,4.39 -18.95,10.56 -26.1,18.49 -7.16,7.93 -12.68,17.38 -16.57,28.33 -3.88,10.95 -5.83,22.89 -5.83,35.82 0,13.11 1.95,25.14 5.83,36.09 3.89,10.95 9.41,20.39 16.57,28.32 7.15,7.93 15.86,14.14 26.1,18.62 10.25,4.49 21.74,6.73 34.46,6.73 12.72,0 24.25,-2.24 34.58,-6.73 10.34,-4.48 19.09,-10.69 26.24,-18.62 7.16,-7.93 12.68,-17.37 16.57,-28.32 3.88,-10.95 5.83,-22.98 5.83,-36.09 0,-12.93 -1.95,-24.87 -5.83,-35.82 -3.89,-10.95 -9.41,-20.4 -16.57,-28.33 -7.15,-7.93 -15.9,-14.1 -26.24,-18.49 -10.33,-4.4 -21.86,-6.6 -34.58,-6.6 z m -0.11,-58.5 c 22.66,0 43.2,3.64 61.61,10.91 18.41,7.27 33.99,17.46 46.74,30.58 12.74,13.12 22.58,28.73 29.5,46.84 6.93,18.11 10.39,37.85 10.39,59.24 0,21.67 -3.46,41.56 -10.39,59.67 -6.92,18.11 -16.76,33.72 -29.5,46.84 -12.75,13.12 -28.33,23.38 -46.74,30.8 -18.41,7.41 -38.95,11.12 -61.61,11.12 -22.66,0 -43.11,-3.71 -61.37,-11.12 -18.25,-7.42 -33.75,-17.68 -46.5,-30.8 -12.74,-13.12 -22.58,-28.73 -29.5,-46.84 -6.93,-18.11 -10.39,-38 -10.39,-59.67 0,-21.39 3.46,-41.13 10.39,-59.24 6.92,-18.11 16.76,-33.72 29.5,-46.84 12.75,-13.12 28.25,-23.31 46.5,-30.58 18.26,-7.27 38.71,-10.91 61.37,-10.91 z"
       fill-rule="evenodd"
       id="path13"
       transform="translate(-196,-222)" /></g></svg>
