<?xml version="1.0" encoding="UTF-8" standalone="no"?>
<svg
   width="551.99902"
   height="552"
   xml:space="preserve"
   overflow="hidden"
   version="1.1"
   id="svg25"
   xmlns="http://www.w3.org/2000/svg"
   xmlns:svg="http://www.w3.org/2000/svg"><defs
     id="defs1" /><g
     id="g123"
     transform="translate(-4340.971,-5207.78)"><path
       d="m 815.971,1523.78 h 551.999 v 552 H 815.971 Z"
       fill="#ffffff"
       fill-rule="evenodd"
       id="path20-5"
       style="overflow:hidden"
       transform="translate(3525,3684)" /><path
       d="m 1091.88,1813.8 c -14.42,0 -27.43,2.45 -39.04,7.36 -11.61,4.91 -21.47,11.78 -29.58,20.63 -8.11,8.86 -14.37,19.39 -18.77,31.61 -4.41,12.22 -6.608,25.54 -6.608,39.98 0,14.62 2.198,28.04 6.608,40.26 4.4,12.22 10.66,22.75 18.77,31.6 8.11,8.85 17.97,15.78 29.58,20.78 11.61,5 24.62,7.51 39.04,7.51 14.41,0 27.48,-2.51 39.19,-7.51 11.71,-5 21.62,-11.93 29.73,-20.78 8.11,-8.85 14.37,-19.38 18.77,-31.6 4.4,-12.22 6.61,-25.64 6.61,-40.26 0,-14.44 -2.21,-27.76 -6.61,-39.98 -4.4,-12.22 -10.66,-22.75 -18.77,-31.61 -8.11,-8.85 -18.02,-15.72 -29.73,-20.63 -11.71,-4.91 -24.78,-7.36 -39.19,-7.36 z m -25.26,-289.8 50.49,34.8 c -9.63,13.9 -25.75,37.89 -42.05,67.31 -16.71,30.16 -32.22,63.44 -44.82,100.42 -6.32,18.54 -11.51,36.82 -15.74,54.83 l -2.38,12.63 12.84,-11.74 c 7.46,-5.43 15.58,-10.08 24.36,-13.96 17.56,-7.74 37.24,-11.62 59.04,-11.62 21.8,0 41.55,3.88 59.26,11.62 17.72,7.75 32.7,18.61 44.97,32.58 12.26,13.98 21.72,30.61 28.38,49.9 6.66,19.29 9.99,40.33 9.99,63.11 l -0.01,0.1 0.05,0.36 -0.22,1.74 -2.61,31.01 c -1.85,10.59 -4.64,20.71 -8.36,30.36 -7.43,19.29 -17.99,35.92 -31.67,49.89 -13.68,13.98 -30.4,24.91 -50.17,32.81 -19.76,7.9 -41.8,11.85 -66.12,11.85 -24.33,0 -46.29,-3.95 -65.88,-11.85 -19.59,-7.9 -36.233,-18.83 -49.915,-32.81 -13.682,-13.97 -24.239,-30.6 -31.671,-49.89 -3.716,-9.65 -6.503,-19.77 -8.361,-30.36 l -2.749,-32.75 0.023,-0.18 -0.297,-0.01 c 0.67,-19.2 2.394,-51.26 8.088,-88.77 5.827,-38.4 15.108,-78.19 29.466,-119.18 14.312,-40.85 31.736,-77.34 50.186,-110.03 17.95,-31.79 35.55,-57.53 45.88,-72.17 z"
       fill-rule="evenodd"
       id="path21-98"
       style="overflow:hidden"
       transform="translate(3525,3684)" /></g></svg>
