<?xml version="1.0" encoding="UTF-8" standalone="no"?>
<svg
   width="553"
   height="552"
   xml:space="preserve"
   overflow="hidden"
   version="1.1"
   id="svg25"
   xmlns="http://www.w3.org/2000/svg"
   xmlns:svg="http://www.w3.org/2000/svg"><defs
     id="defs1" /><g
     id="g31"
     transform="translate(-1240,-1302)"><rect
       x="1436"
       y="1524"
       width="553"
       height="552"
       fill="#ffffff"
       id="rect15"
       transform="translate(-196,-222)" /><path
       d="m 1571,1793.5 c 0,-24.58 17.46,-44.5 39,-44.5 21.54,0 39,19.92 39,44.5 0,24.58 -17.46,44.5 -39,44.5 -21.54,0 -39,-19.92 -39,-44.5 z"
       fill-rule="evenodd"
       id="path16"
       transform="translate(-196,-222)" /><path
       d="m 1777,1793.5 c 0,-24.58 17.24,-44.5 38.5,-44.5 21.26,0 38.5,19.92 38.5,44.5 0,24.58 -17.24,44.5 -38.5,44.5 -21.26,0 -38.5,-19.92 -38.5,-44.5 z"
       fill-rule="evenodd"
       id="path17"
       transform="translate(-196,-222)" /><path
       d="m 1674,1793.5 c 0,-24.58 17.46,-44.5 39,-44.5 21.54,0 39,19.92 39,44.5 0,24.58 -17.46,44.5 -39,44.5 -21.54,0 -39,-19.92 -39,-44.5 z"
       fill-rule="evenodd"
       id="path18"
       transform="translate(-196,-222)" /><path
       d="m 1550.07,1598.48 v 403.04 h 324.86 V 1598.48 Z M 1485,1540 h 455 v 0.19 519.81 h -455 v -519.81 z"
       fill-rule="evenodd"
       id="path19"
       transform="translate(-196,-222)" /></g></svg>
