<?xml version="1.0" encoding="UTF-8" standalone="no"?>
<svg
   width="552"
   height="552.00098"
   xml:space="preserve"
   overflow="hidden"
   version="1.1"
   id="svg25"
   xmlns="http://www.w3.org/2000/svg"
   xmlns:svg="http://www.w3.org/2000/svg"><defs
     id="defs1" /><g
     id="g318"
     transform="translate(-6839.5122,-7311.0215)"><rect
       x="6839.5122"
       y="7311.0215"
       width="552"
       height="552"
       fill="#ffffff"
       id="rect315" /><path
       id="path315"
       style="stroke-width:0.942029"
       d="m 7115.0987,7311.0226 c -39.811,0 -75.75,6.3853 -107.817,19.1601 -32.068,12.7749 -59.297,30.6847 -81.689,53.7286 -22.393,23.0436 -39.67,50.4738 -51.834,82.2851 -12.164,31.8114 -18.246,66.5026 -18.246,104.0742 0,0.2533 0.019,0.499 0.019,0.752 h -0.019 v 58.4785 h 227.539 v 63.5195 h -100.78 v 58.4805 h 100.78 v 111.5215 h 64.924 v -111.5215 h 100.777 v -58.4805 h -100.777 v -63.5195 h 227.537 v -58.4785 h -0.02 c 0,-0.253 0.02,-0.4987 0.02,-0.752 0,-37.5716 -6.085,-72.2628 -18.246,-104.0742 -12.162,-31.8113 -29.44,-59.2415 -51.832,-82.2851 -22.392,-23.0439 -49.768,-40.9537 -82.108,-53.7286 -32.34,-12.7748 -68.418,-19.1601 -108.228,-19.1601 z m 0.103,58.4785 v 0 c 29.869,2e-4 56.937,4.9522 81.201,14.8535 24.264,9.9015 44.805,23.7818 61.606,41.6426 16.801,17.8608 29.761,39.1192 38.886,63.7754 9.125,24.6563 13.692,51.5449 13.692,80.666 0,0.1967 -0.01,0.3875 -0.01,0.584 h -390.129 c 0,-0.1965 -0.01,-0.3873 -0.01,-0.584 0,-29.1211 4.565,-56.0097 13.692,-80.666 9.126,-24.6562 22.088,-45.9146 38.889,-63.7754 16.8,-17.8608 37.232,-31.7411 61.292,-41.6426 24.059,-9.9013 51.02,-14.8533 80.889,-14.8535 z" /></g></svg>
