<?xml version="1.0" encoding="UTF-8" standalone="no"?>
<svg
   width="552"
   height="552"
   xml:space="preserve"
   overflow="hidden"
   version="1.1"
   id="svg25"
   xmlns="http://www.w3.org/2000/svg"
   xmlns:svg="http://www.w3.org/2000/svg"><defs
     id="defs1" /><g
     id="g109"
     transform="translate(-1861,-3906)"><rect
       x="2057"
       y="222"
       width="552"
       height="552"
       fill="#ffffff"
       id="rect19-0"
       style="overflow:hidden"
       transform="translate(-196,3684)" /><path
       d="m 2214.33,438.99 v 263.02 h 236.34 V 438.99 Z M 2152,383 h 62.33 236.34 62.33 V 438.99 702.01 758 H 2450.67 2214.33 2152 V 702.01 438.99 Z"
       fill-rule="evenodd"
       id="path20-82"
       style="overflow:hidden"
       transform="translate(-196,3684)" /><rect
       x="2300"
       y="222"
       width="65"
       height="136"
       id="rect20-3"
       style="overflow:hidden"
       transform="translate(-196,3684)" /><path
       d="m 2487.01,222.095 54,31.181 -67.89,117.59 -54,-31.181 z"
       fill-rule="evenodd"
       id="path21-3"
       style="overflow:hidden"
       transform="translate(-196,3684)" /><rect
       x="0"
       y="0"
       width="62.362202"
       height="135.78101"
       transform="matrix(-0.866025,0.5,0.5,0.866025,1977.66,3906.095)"
       id="rect21-1"
       style="overflow:hidden" /><rect
       x="2300"
       y="222"
       width="65"
       height="136"
       id="rect22-98"
       style="overflow:hidden"
       transform="translate(-196,3684)" /></g></svg>
