<?xml version="1.0" encoding="UTF-8" standalone="no"?>
<svg
   width="552"
   height="552"
   xml:space="preserve"
   overflow="hidden"
   version="1.1"
   id="svg25"
   xmlns="http://www.w3.org/2000/svg"
   xmlns:svg="http://www.w3.org/2000/svg"><defs
     id="defs1" /><g
     id="g227"
     transform="translate(-13768.453,-4190.8804)"><rect
       x="13768.453"
       y="4190.8804"
       width="552"
       height="552"
       fill="#ffffff"
       id="rect198"
       style="overflow:hidden" /><rect
       style="fill:#000000;fill-opacity:1;stroke:none;stroke-width:64.9241;stroke-miterlimit:3;stroke-opacity:1"
       id="rect201"
       width="51.982288"
       height="195.26601"
       x="13784.453"
       y="4531.6147" /><rect
       style="fill:#000000;fill-opacity:1;stroke:none;stroke-width:64.9241;stroke-miterlimit:3;stroke-opacity:1"
       id="rect202"
       width="51.982288"
       height="195.26601"
       x="13888.418"
       y="4531.6147" /><rect
       style="fill:#000000;fill-opacity:1;stroke:none;stroke-width:64.9241;stroke-miterlimit:3;stroke-opacity:1"
       id="rect203"
       width="51.982288"
       height="195.26601"
       x="13992.382"
       y="4531.6147" /><path
       id="rect204"
       style="fill:#000000;fill-opacity:1;stroke:none;stroke-width:64.9241;stroke-miterlimit:3;stroke-opacity:1"
       d="m 13784.453,4206.8809 v 58.4804 h 363.877 c 16.368,0 31.202,3.2696 44.498,9.8106 13.297,6.5412 24.552,15.7107 33.758,27.5097 9.206,11.7991 16.309,25.8447 21.31,42.1329 5,16.2882 7.502,34.0511 7.502,53.289 0,19.4948 -2.502,37.3856 -7.502,53.6738 -5.001,16.2878 -12.104,30.3317 -21.31,42.1309 -9.206,11.7996 -20.461,21.0343 -33.758,27.7031 -13.296,6.669 -28.13,10.0039 -44.498,10.0039 h -51.92 v 195.2657 h 51.981 v -136.7891 c 26.268,-0.01 50.077,-4.8036 71.42,-14.3945 21.359,-9.5983 39.439,-22.8903 54.228,-39.8731 14.789,-16.9824 26.199,-37.1959 34.232,-60.6387 8.032,-23.4432 12.051,-49.1931 12.051,-77.2519 0,-27.6886 -4.019,-53.2539 -12.051,-76.6973 -8.033,-23.4431 -19.443,-43.6565 -34.232,-60.6386 -14.789,-16.9823 -32.869,-30.1815 -54.228,-39.5957 -21.359,-9.4144 -45.188,-14.1211 -71.481,-14.1211 z" /><path
       d="m 14101.703,4398.4876 c 0,-24.85 19.923,-45 44.5,-45 24.577,0 44.5,20.15 44.5,45 0,24.85 -19.923,45 -44.5,45 -24.577,0 -44.5,-20.15 -44.5,-45 z"
       fill-rule="evenodd"
       id="path225"
       style="overflow:hidden" /><path
       d="m 13973.341,4398.4876 c 0,-24.85 19.923,-45 44.5,-45 24.577,0 44.5,20.15 44.5,45 0,24.85 -19.923,45 -44.5,45 -24.577,0 -44.5,-20.15 -44.5,-45 z"
       fill-rule="evenodd"
       id="path226"
       style="overflow:hidden" /></g></svg>
