<?xml version="1.0" encoding="UTF-8" standalone="no"?>
<svg
   width="552"
   height="552"
   xml:space="preserve"
   overflow="hidden"
   version="1.1"
   id="svg25"
   xmlns="http://www.w3.org/2000/svg"
   xmlns:svg="http://www.w3.org/2000/svg"><defs
     id="defs1" /><g
     id="g230"
     transform="translate(-2725.9775,-6284.0654)"><rect
       x="2725.9775"
       y="6284.0654"
       width="552"
       height="552"
       fill="#ffffff"
       id="rect222"
       style="overflow:hidden" /><rect
       style="fill:#000000;fill-opacity:1;stroke:none;stroke-width:64.9241;stroke-miterlimit:3;stroke-opacity:1"
       id="rect223"
       width="51.982288"
       height="177.56271"
       x="2741.9775"
       y="6624.7993" /><rect
       style="fill:#000000;fill-opacity:1;stroke:none;stroke-width:64.9241;stroke-miterlimit:3;stroke-opacity:1"
       id="rect224"
       width="51.982288"
       height="177.56271"
       x="2845.9424"
       y="6624.7993" /><rect
       style="fill:#000000;fill-opacity:1;stroke:none;stroke-width:64.9241;stroke-miterlimit:3;stroke-opacity:1"
       id="rect225"
       width="51.982288"
       height="177.56271"
       x="2949.9062"
       y="6624.7993" /><path
       id="rect226"
       style="fill:#000000;fill-opacity:1;stroke:none;stroke-width:64.9241;stroke-miterlimit:3;stroke-opacity:1"
       d="m 3105.8535,6317.7676 v 0 h -259.9121 v 58.4785 h 259.9121 c 16.368,0 31.2021,3.0541 44.4981,9.1602 13.2969,6.1063 24.5537,14.6651 33.7597,25.6797 9.206,11.0146 16.3076,24.1249 21.3086,39.3301 5,15.2053 7.502,31.7873 7.502,49.7461 0,18.1985 -2.502,34.9001 -7.502,50.1054 -5.001,15.2049 -12.1026,28.3154 -21.3086,39.3301 -9.206,11.015 -20.4628,19.6359 -33.7597,25.8613 -13.296,6.2256 -28.1301,9.3379 -44.4981,9.3379 h -51.9824 v 177.5625 h 51.9824 v -119.082 c 26.293,0 50.1236,-4.5774 71.4824,-13.7324 21.359,-9.1549 39.4376,-21.833 54.2266,-38.0313 14.789,-16.1978 26.1994,-35.4761 34.2324,-57.8359 8.032,-22.3604 12.0508,-46.9211 12.0508,-73.6836 0,-26.4095 -4.0188,-50.7939 -12.0508,-73.1543 -8.033,-22.3603 -19.4434,-41.6402 -34.2324,-57.8379 -14.789,-16.1978 -32.8676,-28.7881 -54.2266,-37.7676 -21.3588,-8.9795 -45.1894,-13.4687 -71.4824,-13.4687 z" /><path
       d="m 3059.2274,6500.5239 c 0,-24.85 19.923,-45 44.5,-45 24.577,0 44.5,20.15 44.5,45 0,24.85 -19.923,45 -44.5,45 -24.577,0 -44.5,-20.15 -44.5,-45 z"
       fill-rule="evenodd"
       id="path229"
       style="overflow:hidden" /><path
       d="m 2930.8654,6500.5239 c 0,-24.85 19.923,-45 44.5,-45 24.577,0 44.5,20.15 44.5,45 0,24.85 -19.923,45 -44.5,45 -24.577,0 -44.5,-20.15 -44.5,-45 z"
       fill-rule="evenodd"
       id="path230"
       style="overflow:hidden" /></g></svg>
