<?xml version="1.0" encoding="UTF-8" standalone="no"?>
<svg
   width="582.66736"
   height="733.89062"
   xml:space="preserve"
   overflow="hidden"
   version="1.1"
   id="svg25"
   xmlns="http://www.w3.org/2000/svg"
   xmlns:svg="http://www.w3.org/2000/svg"><defs
     id="defs1" /><g
     id="g237"
     transform="translate(-9666.4307,501.21289)"><rect
       x="9666.4307"
       y="-410.26755"
       width="552"
       height="552"
       fill="#ffffff"
       id="rect237"
       style="overflow:hidden" /><path
       id="path237"
       style="stroke-width:1"
       d="m 10249.098,-501.21289 c -56.275,0 -107.078,9.01349 -152.407,27.04297 -45.331,18.02948 -83.821,43.30556 -115.4742,75.82812 -31.6542,32.52247 -56.0794,71.23265 -73.2734,116.12891 -17.1954,44.89625 -25.7911,93.85862 -25.7911,146.88477 0,53.734938 8.5957,103.048952 25.7911,147.945308 17.194,44.894855 41.6192,83.604381 73.2734,116.126952 31.6532,32.52377 70.1432,57.97759 115.4742,76.35938 45.329,18.38178 96.132,27.57421 152.407,27.57421 v -58.48046 c -46.318,0 -88.133,-7.72742 -125.442,-23.17969 -37.311,-15.45229 -68.991,-36.84899 -95.043,-64.189455 -26.054,-27.339455 -46.1564,-59.881118 -60.3083,-97.621094 -14.153,-37.741236 -21.2285,-79.195966 -21.2285,-124.367191 0,-44.57538 7.0755,-85.73345 21.2285,-123.47461 14.1519,-37.74115 34.2543,-70.28172 60.3083,-97.62109 26.052,-27.33946 57.732,-48.58801 95.043,-63.74414 37.309,-15.15612 79.124,-22.73242 125.442,-22.73242 z" /></g></svg>
