<?xml version="1.0" encoding="UTF-8" standalone="no"?>
<svg
   width="552"
   height="552.00262"
   xml:space="preserve"
   overflow="hidden"
   version="1.1"
   id="svg25"
   xmlns="http://www.w3.org/2000/svg"
   xmlns:svg="http://www.w3.org/2000/svg"><defs
     id="defs1" /><g
     id="g121"
     transform="translate(-6822,-3906.0004)"><path
       d="M 0,4.19948e-4 H 552 V 552 H 0 Z"
       fill="#ffffff"
       fill-rule="evenodd"
       transform="matrix(-1,0,0,1,7374,3906)"
       id="path24-2"
       style="overflow:hidden" /><path
       d="M 509.496,0.00304501 550.002,46.5323 c -0.463,0.4363 -1.087,1.0331 -1.828,1.7463 -12.548,15.4226 -26.475,32.5326 -40.118,49.27 C 459.794,162.144 423.789,230.825 393.516,302.686 362.6,376.071 337.419,453.534 312.617,529.203 l -7.075,21.583 -22.951,0.186 c -2.657,0.021 -5.21,0.032 -7.588,0.031 -2.369,-0.001 -4.926,-0.017 -7.589,-0.043 l -22.959,-0.225 -7.058,-21.536 C 212.557,453.394 187.406,376.025 156.511,302.676 126.086,230.443 90.061,161.88 41.9762,97.5154 27.356,79.5615 13.1752,62.1227 1.86953,48.22 1.49238,47.8607 1.1792,47.5675 0.944574,47.3547 0.448583,46.9044 0.159527,46.6696 0.00230742,46.5323 L 40.5088,0.00304501 C 40.6661,0.140175 40.9399,0.396796 41.4533,0.827297 42.1478,1.40973 43.5811,2.53429 45.379,3.94486 l 1.4888,1.16823 2.0916,2.5198 C 61.438,22.6697 75.9796,40.1927 90.9314,58.235 l 0.4039,0.4864 0.4624,0.6173 C 144.022,128.969 182.584,202.468 214.545,278.144 c 22.666,53.67 42.2,109.167 60.45,163.609 18.234,-54.407 37.774,-109.938 60.441,-163.619 31.791,-75.287 70.325,-148.927 122.739,-218.8187 l 0.459,-0.6134 0.409,-0.4943 c 14.61,-17.6472 29.023,-35.0307 41.95,-50.61776 l 2.074,-2.50216 1.515,-1.19553 c 2.114,-1.67024 3.897,-3.065588 4.914,-3.88910499 z"
       fill-rule="evenodd"
       transform="matrix(-1,0,0,1,7373,3907)"
       id="path25-31"
       style="overflow:hidden" /></g></svg>
