<?xml version="1.0" encoding="UTF-8" standalone="no"?>
<svg
   width="552"
   height="552"
   xml:space="preserve"
   overflow="hidden"
   version="1.1"
   id="svg25"
   xmlns="http://www.w3.org/2000/svg"
   xmlns:svg="http://www.w3.org/2000/svg"><defs
     id="defs1" /><g
     id="g65"
     transform="translate(-1861.021,-3255)"><rect
       x="2057"
       y="1524"
       width="552"
       height="552"
       fill="#ffffff"
       id="rect24-0"
       style="overflow:hidden"
       transform="translate(-195.979,1731)" /><path
       d="m 2332.81,1673.25 c -18.4,0 -35,3.11 -49.82,9.34 -14.82,6.23 -27.4,14.96 -37.75,26.19 -10.35,11.24 -18.33,24.61 -23.95,40.12 -5.62,15.5 -8.43,32.42 -8.43,50.73 0,18.57 2.81,35.6 8.43,51.11 5.62,15.51 13.6,28.88 23.95,40.11 10.35,11.24 22.93,20.03 37.75,26.38 14.82,6.35 31.42,9.52 49.82,9.52 18.39,0 35.06,-3.17 50.01,-9.52 14.95,-6.35 27.59,-15.14 37.94,-26.38 10.35,-11.23 18.33,-24.6 23.95,-40.11 5.62,-15.51 8.43,-32.54 8.43,-51.11 0,-18.31 -2.81,-35.23 -8.43,-50.73 -5.62,-15.51 -13.6,-28.88 -23.95,-40.12 -10.35,-11.23 -22.99,-19.96 -37.94,-26.19 -14.95,-6.23 -31.62,-9.34 -50.01,-9.34 z M 2300.53,1533 h 64.94 v 84.51 l 7.75,0.65 c 12.84,2.28 25.02,5.69 36.53,10.24 23.02,9.1 42.51,21.86 58.45,38.28 15.94,16.42 28.24,35.96 36.89,58.63 4.33,11.33 7.58,23.18 9.75,35.54 l 0.83,9.9 H 2609 v 58.5 h -93.4 l -0.76,9.23 c -2.17,12.45 -5.42,24.34 -9.75,35.68 -8.65,22.66 -20.95,42.2 -36.89,58.62 -15.94,16.42 -35.43,29.27 -58.45,38.55 -11.51,4.64 -23.69,8.12 -36.53,10.44 l -7.75,0.67 V 2067 h -64.94 v -84.52 l -8.27,-0.71 c -12.79,-2.32 -24.89,-5.8 -36.3,-10.44 -22.83,-9.28 -42.22,-22.13 -58.16,-38.55 -15.94,-16.42 -28.24,-35.96 -36.89,-58.62 -4.33,-11.34 -7.58,-23.23 -9.74,-35.68 l -0.77,-9.23 H 2057 v -58.5 h 93.33 l 0.84,-9.9 c 2.16,-12.36 5.41,-24.21 9.74,-35.54 8.65,-22.67 20.95,-42.21 36.89,-58.63 15.94,-16.42 35.33,-29.18 58.16,-38.28 11.41,-4.55 23.51,-7.96 36.3,-10.24 l 8.27,-0.7 z"
       fill-rule="evenodd"
       id="path25-3"
       style="overflow:hidden"
       transform="translate(-195.979,1731)" /></g></svg>
