<?xml version="1.0" encoding="UTF-8" standalone="no"?>
<svg
   width="552"
   height="552"
   xml:space="preserve"
   overflow="hidden"
   version="1.1"
   id="svg25"
   xmlns="http://www.w3.org/2000/svg"
   xmlns:svg="http://www.w3.org/2000/svg"><defs
     id="defs1" /><g
     id="g79"
     transform="translate(-13537.388,-7113.6343)"><rect
       x="13537.388"
       y="7113.6343"
       width="552"
       height="552"
       fill="#ffffff"
       id="rect75"
       style="overflow:hidden" /><path
       id="path75"
       style="fill:#000000;fill-rule:nonzero;stroke:none;stroke-width:64.924;stroke-miterlimit:3"
       d="m 13856.238,7272.4314 c -30.881,0.3423 -61.039,6.7294 -90.835,19.3691 -27.606,11.7102 -52.615,27.8093 -75.534,45.6953 -28.632,22.3455 -55.032,48.4487 -74.851,68.4473 -1.245,1.2558 -1.616,1.6319 -2.826,2.8554 l 9.796,-104.1289 h -64.923 v 141.5215 58.4785 h 200 v -58.4805 l -110.899,11.2871 c 3.624,-3.7074 5.333,-5.4897 10.328,-10.5644 19.678,-19.9889 43.711,-43.7982 69.116,-63.6895 20.145,-15.7734 40.761,-28.8423 62.408,-37.9707 23.069,-9.728 45.732,-14.3083 68.629,-14.3437 45.682,-0.07 89.251,16.4509 121.121,49.2597 16.019,16.4911 27.417,35.4287 34.886,54.9805 10.579,27.6899 12.158,53.5655 11.811,71.0898 l 64.922,0.6172 c 0.04,-22.6832 -2.731,-57.4787 -18.121,-95.0371 -10.919,-26.646 -27.337,-52.5182 -50.139,-74.9238 -21.93,-21.5486 -48.135,-38.2612 -77.199,-49.2617 -29.088,-11.0097 -58.94,-15.5253 -87.69,-15.2031 z" /></g></svg>
