<?xml version="1.0" encoding="UTF-8" standalone="no"?>
<svg
   width="552"
   height="552.00201"
   xml:space="preserve"
   overflow="hidden"
   version="1.1"
   id="svg25"
   xmlns="http://www.w3.org/2000/svg"
   xmlns:svg="http://www.w3.org/2000/svg"><defs
     id="defs1" /><g
     id="g111"
     transform="translate(-1860.78,-4556.908)"><path
       d="m 2056.78,872.908 h 552 v 552.002 h -552 z"
       fill="#ffffff"
       fill-rule="evenodd"
       id="path15-4"
       style="overflow:hidden"
       transform="translate(-196,3684)" /><path
       d="m 124.781,0.0716799 c 0,0 0.404,-0.1742149 0,0 C 110.735,6.12113 88.4108,16.7074 67.2792,32.1243 52.0276,43.2513 38.2498,56.2326 27.1868,71.5104 16.3835,86.4294 9.29461,101.984 5.08396,117.754 c -3.81731,14.297 -4.981942,27.701 -5.0576395,39.177 -0.02295148,3.464 0.0508512,6.875 0.2049845,10.221 0.759925,15.484 3.838375,28.997 8.390235,40.916 4.83786,12.668 11.31926,23.473 18.34186,32.78 7.1869,9.526 15.196,17.815 23.1206,25.155 7.8065,7.231 15.9146,13.89 23.7067,20.22 8.0485,6.539 14.8871,12.054 21.4433,17.932 6.522,5.847 12.228,11.594 17.062,17.655 4.654,5.834 8.685,12.189 11.752,19.451 2.85,6.749 5.156,14.95 6.064,25.209 0.162,1.619 0.256,3.276 0.277,4.97 0.083,6.7 -0.946,14.701 -4.121,23.668 -3.353,9.469 -8.86,19.31 -16.763,28.873 -9.8629,11.934 -22.0269,21.718 -34.7733,29.215 -12.6091,7.417 -24.1147,11.626 -31.6903,14.004 -0.2529,0.08 0,0 0,0 l 17.6109,55.746 c 0,0 -0.349,0.109 0,0 10.4098,-3.269 26.3654,-9.172 43.9347,-19.611 17.698,-10.515 35.248,-24.585 49.959,-42.47 11.849,-14.404 20.834,-30.06 26.65,-46.269 5.556,-15.488 7.72,-30.067 7.823,-43.104 0.025,-3.259 -0.076,-6.474 -0.294,-9.641 -1.187,-16.182 -4.584,-30.218 -9.318,-42.509 -5.064,-13.147 -11.687,-24.374 -18.847,-34.055 -7.344,-9.929 -15.484,-18.542 -23.584,-26.163 -7.953,-7.481 -16.157,-14.276 -24.085,-20.719 C 104.71,231.757 97.9671,226.406 91.3548,220.617 84.8609,214.931 79.3053,209.501 74.685,203.882 70.2432,198.481 66.5528,192.769 63.8552,186.37 61.3416,180.407 59.4016,173.18 58.86,164.067 c -0.1435,-2.273 -0.2149,-4.543 -0.2055,-6.807 0.0317,-7.549 0.9388,-15.652 3.352,-23.817 2.6138,-8.845 6.9203,-17.54 13.5941,-26.079 6.9487,-8.8907 16.1333,-17.1846 27.5424,-24.9477 16.136,-10.9796 33.865,-18.9257 46.311,-24.0029 0.345,-0.1407 0,0 0,0 z"
       fill-rule="evenodd"
       transform="matrix(0,1,1,0,1875,4641)"
       id="path16-9"
       style="overflow:hidden" /><path
       d="m 2535.36,1192.27 c 0,0 0.14,-0.34 0,0 -5.07,12.37 -13.02,30.01 -24,46.06 -7.76,11.35 -16.05,20.49 -24.95,27.4 -8.53,6.64 -17.23,10.93 -26.08,13.52 -8.15,2.4 -16.26,3.31 -23.81,3.34 -2.27,0.01 -4.54,-0.07 -6.81,-0.21 -9.11,-0.54 -16.34,-2.46 -22.3,-4.97 -6.4,-2.68 -12.11,-6.35 -17.51,-10.77 -5.62,-4.6 -11.05,-10.12 -16.74,-16.58 -5.78,-6.58 -11.14,-13.29 -17.79,-21.43 -6.44,-7.88 -13.24,-16.04 -20.71,-23.95 -7.63,-8.06 -16.24,-16.16 -26.17,-23.46 -9.68,-7.12 -20.91,-13.71 -34.05,-18.75 -12.3,-4.71 -26.33,-8.09 -42.52,-9.27 -3.16,-0.22 -6.37,-0.32 -9.63,-0.29 -13.04,0.1 -27.62,2.26 -43.11,7.78 -16.21,5.79 -31.86,14.73 -46.27,26.51 -17.88,14.63 -31.95,32.09 -42.46,49.69 -10.45,17.48 -16.35,33.35 -19.62,43.71 -0.11,0.34 0,0 0,0 l 55.74,17.52 c 0,0 -0.07,0.25 0,0 2.38,-7.54 6.59,-18.98 14.01,-31.53 7.5,-12.68 17.28,-24.78 29.22,-34.58 9.56,-7.86 19.4,-13.34 28.87,-16.68 8.96,-3.15 16.97,-4.18 23.67,-4.1 1.69,0.02 3.35,0.12 4.97,0.28 10.25,0.91 18.46,3.19 25.21,6.03 7.26,3.05 13.61,7.06 19.45,11.69 6.06,4.81 11.81,10.49 17.65,16.97 5.88,6.52 11.4,13.33 17.94,21.33 6.33,7.75 12.98,15.82 20.22,23.58 7.34,7.89 15.62,15.85 25.15,23 9.31,6.98 20.11,13.44 32.78,18.25 11.91,4.53 25.43,7.59 40.91,8.35 3.35,0.15 6.76,0.22 10.23,0.2 11.48,-0.08 24.88,-1.24 39.18,-5.03 15.76,-4.19 31.32,-11.24 46.24,-21.99 15.27,-11.01 28.26,-24.71 39.39,-39.88 15.41,-21.03 26,-43.23 32.04,-57.2 0.18,-0.4 0,0 0,0 z"
       fill-rule="evenodd"
       id="path17-55"
       style="overflow:hidden"
       transform="translate(-196,3684)" /></g></svg>
