<?xml version="1.0" encoding="UTF-8" standalone="no"?>
<svg
   width="552"
   height="552"
   xml:space="preserve"
   overflow="hidden"
   version="1.1"
   id="svg25"
   xmlns="http://www.w3.org/2000/svg"
   xmlns:svg="http://www.w3.org/2000/svg"><defs
     id="defs1" /><g
     id="g27"
     transform="translate(0,-1302)"><rect
       x="196"
       y="1524"
       width="552"
       height="552"
       fill="#ffffff"
       id="rect22"
       transform="translate(-196,-222)" /><path
       d="m 471.663,1582.45 c -32.315,0 -61.488,5.34 -87.52,16.03 -26.032,10.69 -48.136,25.68 -66.313,44.96 -18.178,19.28 -32.204,42.23 -42.077,68.85 -9.875,26.62 -14.812,55.64 -14.812,87.08 0,31.86 4.937,61.1 14.812,87.71 9.873,26.62 23.899,49.57 42.077,68.85 18.177,19.29 40.281,34.38 66.313,45.27 26.032,10.9 55.205,16.35 87.52,16.35 32.315,0 61.601,-5.45 87.857,-16.35 26.256,-10.89 48.473,-25.98 66.65,-45.27 18.178,-19.28 32.204,-42.23 42.078,-68.85 9.874,-26.61 14.811,-55.85 14.811,-87.71 0,-31.44 -4.937,-60.46 -14.811,-87.08 -9.874,-26.62 -23.9,-49.57 -42.078,-68.85 -18.177,-19.28 -40.394,-34.27 -66.65,-44.96 -26.256,-10.69 -55.542,-16.03 -87.857,-16.03 z M 471.56,1524 c 42.258,0 80.555,6.78 114.889,20.34 34.336,13.56 63.388,32.57 87.158,57.04 23.771,24.46 42.113,53.57 55.024,87.34 12.913,33.77 19.369,70.6 19.369,110.48 0,40.42 -6.456,77.51 -19.369,111.28 -12.911,33.77 -31.253,62.88 -55.024,87.35 -23.77,24.46 -52.822,43.6 -87.158,57.43 -34.334,13.83 -72.631,20.74 -114.889,20.74 -42.259,0 -80.409,-6.91 -114.45,-20.74 -34.042,-13.83 -62.947,-32.97 -86.717,-57.43 -23.771,-24.47 -42.112,-53.58 -55.024,-87.35 C 202.456,1876.71 196,1839.62 196,1799.2 c 0,-39.88 6.456,-76.71 19.369,-110.48 12.912,-33.77 31.253,-62.88 55.024,-87.34 23.77,-24.47 52.675,-43.48 86.717,-57.04 34.041,-13.56 72.191,-20.34 114.45,-20.34 z"
       fill-rule="evenodd"
       id="path23"
       transform="translate(-196,-222)" /><path
       d="m 443,1638 h 58.628 v 166.96 H 600 V 1857 H 443 Z"
       fill-rule="evenodd"
       id="path24"
       transform="translate(-196,-222)" /></g></svg>
