<?xml version="1.0" encoding="UTF-8" standalone="no"?>
<svg
   width="552"
   height="552"
   xml:space="preserve"
   overflow="hidden"
   version="1.1"
   id="svg25"
   xmlns="http://www.w3.org/2000/svg"
   xmlns:svg="http://www.w3.org/2000/svg"><defs
     id="defs1" /><g
     id="g115"
     transform="translate(-2481,-3906)"><rect
       x="2677"
       y="222"
       width="552"
       height="552"
       fill="#ffffff"
       id="rect6-8"
       style="overflow:hidden"
       transform="translate(-196,3684)" /><rect
       x="2929"
       y="222"
       width="65"
       height="136"
       id="rect7-59"
       style="overflow:hidden"
       transform="translate(-196,3684)" /><path
       d="m 3125.48,236.442 54.01,31.181 -67.89,117.591 -54.01,-31.181 z"
       fill-rule="evenodd"
       id="path7-7"
       style="overflow:hidden"
       transform="translate(-196,3684)" /><rect
       x="0"
       y="0"
       width="62.362202"
       height="135.78101"
       transform="matrix(-0.866025,0.5,0.5,0.866025,2597.01,3920.442)"
       id="rect8-58"
       style="overflow:hidden" /><path
       d="m 2952.78,453.408 c -21.12,0 -40.19,3.22 -57.2,9.661 -17.01,6.441 -31.46,15.471 -43.34,27.09 -11.88,11.619 -21.04,25.448 -27.5,41.487 -6.45,16.04 -9.68,33.531 -9.68,52.475 0,19.197 3.23,36.815 9.68,52.854 6.46,16.039 15.62,29.868 27.5,41.487 11.88,11.619 26.33,20.713 43.34,27.28 17.01,6.567 36.08,9.851 57.2,9.851 21.12,0 40.26,-3.284 57.42,-9.851 17.16,-6.567 31.68,-15.661 43.56,-27.28 11.88,-11.619 21.04,-25.448 27.5,-41.487 6.45,-16.039 9.68,-33.657 9.68,-52.854 0,-18.944 -3.23,-36.435 -9.68,-52.475 -6.46,-16.039 -15.62,-29.868 -27.5,-41.487 -11.88,-11.619 -26.4,-20.649 -43.56,-27.09 -17.16,-6.441 -36.3,-9.661 -57.42,-9.661 z M 2952.68,395 c 31.08,0 59.25,4.655 84.5,13.966 25.25,9.311 46.62,22.364 64.1,39.16 17.49,16.795 30.98,36.786 40.47,59.972 9.5,23.185 14.25,48.47 14.25,75.854 0,27.75 -4.75,53.218 -14.25,76.403 -9.49,23.185 -22.98,43.176 -40.47,59.971 -17.48,16.797 -38.85,29.941 -64.1,39.434 -25.25,9.493 -53.42,14.24 -84.5,14.24 -31.09,0 -59.14,-4.747 -84.18,-14.24 -25.04,-9.493 -46.3,-22.637 -63.78,-39.434 -17.49,-16.795 -30.98,-36.786 -40.47,-59.971 -9.5,-23.185 -14.25,-48.653 -14.25,-76.403 0,-27.384 4.75,-52.669 14.25,-75.854 9.49,-23.186 22.98,-43.177 40.47,-59.972 17.48,-16.796 38.74,-29.849 63.78,-39.16 25.04,-9.311 53.09,-13.966 84.18,-13.966 z"
       fill-rule="evenodd"
       id="path8-2"
       style="overflow:hidden"
       transform="translate(-196,3684)" /></g></svg>
