<?xml version="1.0" encoding="UTF-8" standalone="no"?>
<svg
   width="552"
   height="552"
   xml:space="preserve"
   overflow="hidden"
   version="1.1"
   id="svg25"
   xmlns="http://www.w3.org/2000/svg"
   xmlns:svg="http://www.w3.org/2000/svg"><defs
     id="defs1" /><g
     id="g315"
     transform="translate(-17858.318,-8250.0098)"><rect
       x="17858.318"
       y="8250.0098"
       width="552"
       height="552"
       fill="#ffffff"
       id="rect312"
       style="overflow:hidden" /><path
       id="path312"
       style="stroke-width:0.550439"
       d="m 18319.047,8277.7578 -101.625,101.625 c -5.957,-3.223 -12.241,-6.1216 -18.904,-8.6445 -19.302,-7.3079 -40.836,-10.9629 -64.596,-10.9629 -23.76,0 -45.209,3.655 -64.348,10.9629 -6.573,2.5097 -12.78,5.3931 -18.672,8.5957 l -101.314,-101.3145 -45.908,45.9082 99.31,99.3106 c -5.125,7.8143 -9.494,16.2482 -13.107,25.3047 -7.26,18.1977 -10.891,38.0441 -10.891,59.5371 0,21.7804 3.631,41.7691 10.891,59.9668 7.26,18.1972 17.57,33.8859 30.935,47.0683 13.364,13.1828 29.616,23.5005 48.756,30.9512 10.066,3.9186 20.789,6.7789 32.133,8.6367 v 147.3067 h 64.924 v -147.3711 c 11.226,-1.8601 21.863,-4.7033 31.887,-8.5723 19.301,-7.4507 35.639,-17.7684 49.003,-30.9512 13.365,-13.1824 23.676,-28.8711 30.934,-47.0683 7.259,-18.1977 10.893,-38.1864 10.893,-59.9668 0,-21.493 -3.634,-41.3394 -10.893,-59.5371 -3.609,-9.0486 -7.975,-17.4746 -13.094,-25.2832 l 99.594,-99.5938 z m -185.022,140.4981 c 13.819,0 26.344,2.2177 37.571,6.6523 11.225,4.4345 20.729,10.6513 28.502,18.6504 7.773,7.9993 13.77,17.5198 17.992,28.5625 4.222,11.0426 6.334,23.0848 6.334,36.1269 0,13.2167 -2.112,25.3462 -6.334,36.3887 -4.222,11.0424 -10.219,20.5632 -17.992,28.5625 -7.773,7.9995 -17.277,14.2601 -28.502,18.7813 -11.227,4.5212 -23.752,6.7832 -37.571,6.7832 -13.82,0 -26.294,-2.262 -37.425,-6.7832 -11.132,-4.5212 -20.585,-10.7818 -28.358,-18.7813 -7.773,-7.9993 -13.77,-17.5201 -17.992,-28.5625 -4.223,-11.0425 -6.334,-23.172 -6.334,-36.3887 0,-13.0421 2.111,-25.0843 6.334,-36.1269 4.222,-11.0427 10.219,-20.5632 17.992,-28.5625 7.773,-7.9991 17.226,-14.2159 28.358,-18.6504 11.131,-4.4346 23.605,-6.6523 37.425,-6.6523 z" /></g></svg>
