<?xml version="1.0" encoding="UTF-8" standalone="no"?>
<svg
   width="552"
   height="552.00049"
   xml:space="preserve"
   overflow="hidden"
   version="1.1"
   id="svg25"
   xmlns="http://www.w3.org/2000/svg"
   xmlns:svg="http://www.w3.org/2000/svg"><defs
     id="defs1" /><g
     id="g215"
     transform="translate(-14280.659,-5150.0757)"><rect
       x="14280.659"
       y="5150.0762"
       width="552"
       height="552"
       fill="#ffffff"
       id="rect214"
       style="overflow:hidden" /><path
       id="path214"
       style="fill:#000000;fill-opacity:1;fill-rule:nonzero;stroke:none;stroke-width:61.702;stroke-miterlimit:3;stroke-opacity:1"
       d="m 14399.575,5150.0815 c -8.605,0.067 -16.649,0.7148 -24.147,1.8594 -16.604,2.5348 -31.307,7.6285 -43.955,15.1192 -13.72,8.1262 -25.828,19.567 -34.91,34.8144 -9.187,15.5102 -15.119,33.7654 -15.83,54.5098 -0.06,1.7154 -0.08,3.4467 -0.07,5.1933 0.122,15.2584 3.046,31.7162 9.416,49.1192 6.026,16.4654 14.885,33.0832 26.365,49.5097 10.734,15.3584 23.542,30.2373 37.892,44.2403 21.757,21.23 46.05,39.4712 70.51,54.0625 -0.631,9.505 -1.052,18.8087 -1.137,27.6953 -0.111,11.7048 0.222,23.0277 0.95,33.8926 1.595,23.7812 5.112,45.7133 10.281,65.3398 5.581,21.1931 13.29,40.4675 23.262,57.002 10.288,17.0588 23.526,32.0844 40.263,42.8496 8.298,5.337 17.418,9.5958 27.352,12.4902 9.666,2.8159 19.958,4.2972 30.842,4.2969 10.875,-4e-4 21.168,-1.4794 30.842,-4.2988 9.927,-2.8933 19.046,-7.1524 27.349,-12.4942 16.729,-10.7625 29.967,-25.7851 40.258,-42.8515 9.978,-16.5488 17.68,-35.8272 23.256,-56.9981 5.177,-19.6569 8.689,-41.5948 10.285,-65.3379 0.768,-11.4277 1.096,-23.3512 0.934,-35.6855 -0.11,-8.3462 -0.495,-17.0336 -1.084,-25.9141 24.267,-14.4893 48.571,-32.6872 70.464,-54.0625 14.39,-14.0484 27.184,-28.9306 37.885,-44.2422 11.607,-16.6078 20.407,-33.2234 26.371,-49.5 6.733,-18.3742 9.431,-35.1545 9.44,-50.0429 0,-1.432 -0.02,-2.8536 -0.07,-4.2637 -0.711,-20.8186 -6.682,-39.0684 -15.834,-54.5117 -9.083,-15.2408 -21.195,-26.6753 -34.92,-34.7989 -12.588,-7.451 -27.273,-12.5652 -43.947,-15.1152 -7.014,-1.0725 -14.517,-1.7132 -22.523,-1.8477 -7.579,-0.1272 -15.618,0.2012 -24.123,1.0586 -14.785,1.4905 -30.744,4.5622 -47.588,9.4239 -28.459,8.2141 -58.773,21.4428 -86.998,38.9687 -28.223,-17.5225 -58.534,-30.7511 -86.99,-38.9668 -16.843,-4.8626 -32.8,-7.9359 -47.586,-9.4297 -7.898,-0.7978 -15.399,-1.1396 -22.504,-1.084 z m 0.777,58.8262 c 4.825,-0.1061 10.151,0.092 15.981,0.6778 10.941,1.1017 23.371,3.5527 37.001,7.6933 16.822,5.1103 34.617,12.702 51.946,22.1777 -8.176,8.1076 -15.613,16.6771 -21.957,25.6426 -11.254,15.9955 -20.656,34.4625 -28.367,53.7871 -8.096,20.2913 -14.465,41.8661 -19.258,63.3594 -0.578,2.5887 -1.08,5.165 -1.612,7.7461 -12.433,-9.3371 -24.518,-19.7209 -35.681,-31.0469 -11.633,-11.8027 -21.57,-23.8624 -29.58,-35.7246 -8.572,-12.6959 -14.474,-24.4703 -18.223,-34.998 -3.921,-11.0107 -5.304,-20.1204 -5.447,-27.4239 -0.02,-0.8478 -0.02,-1.6763 0,-2.4882 0.173,-9.4381 2.4,-17.4928 6.072,-24.6055 3.034,-6.0553 7.021,-10.816 12.19,-14.5488 4.869,-3.5161 11.765,-6.8138 21.556,-8.6934 4.427,-0.8499 9.535,-1.4263 15.379,-1.5547 z m 313.713,0.021 c 5.397,0.1696 10.141,0.7222 14.283,1.5156 9.832,1.8828 16.721,5.1956 21.563,8.6973 5.172,3.7396 9.151,8.5071 12.179,14.5625 3.653,7.0848 5.895,15.138 6.071,24.6055 0.01,0.6674 0.01,1.3471 0,2.039 -0.09,7.0381 -1.32,16.2986 -5.436,27.8789 -3.697,10.4019 -9.555,22.1794 -18.217,35.0078 -7.986,11.8277 -17.916,23.8902 -29.588,35.7247 -11.243,11.4009 -23.366,21.7896 -35.781,31.0976 -0.537,-2.6126 -0.931,-5.1924 -1.515,-7.8125 -4.792,-21.4952 -11.162,-43.0711 -19.258,-63.3613 -7.712,-19.3256 -17.115,-37.7925 -28.369,-53.7871 -6.345,-8.964 -13.781,-17.531 -21.955,-25.6367 17.329,-9.4753 35.124,-17.0663 51.945,-22.1778 13.63,-4.142 26.06,-6.5945 37,-7.6992 6.278,-0.6339 11.969,-0.815 17.078,-0.6543 z m -157.404,66.8379 c 0.432,0.4029 0.902,0.7991 1.328,1.2031 8.783,8.3286 15.78,16.5444 20.894,24.2813 7.506,11.2125 14.453,25.1876 20.555,41.2363 6.364,16.7362 11.546,35.029 15.529,53.7734 2.062,9.6993 3.66,19.3014 5.051,28.8164 -9.66,4.2657 -18.546,7.5404 -26.332,9.8614 -22.343,6.6609 -34.676,6.2853 -36.512,6.2968 h -0.519 v 0 c -7.707,-0.1095 -20.106,-1.231 -37.039,-6.2734 -7.987,-2.3783 -16.855,-5.6747 -26.327,-9.8594 1.391,-9.5196 2.992,-19.1282 5.055,-28.8379 3.982,-18.7433 9.164,-37.0381 15.529,-53.7754 6.102,-16.0481 13.049,-30.0217 20.557,-41.2343 5.114,-7.7362 12.112,-15.9532 20.897,-24.2813 0.426,-0.4043 0.897,-0.7999 1.33,-1.2031 z m -68.457,212.2715 c 5.322,1.7889 10.549,3.4308 15.56,4.7754 22.607,6.0656 40.325,7.3723 52.893,7.2597 v 0 c 0.137,0 0.298,-0.01 0.822,-0.01 2.899,-0.013 22.524,0.6905 52.074,-7.2305 4.939,-1.3239 10.176,-2.9682 15.545,-4.7715 0.125,9.741 -0.02,19.1527 -0.492,28.0723 -1.06,20.269 -3.552,38.3048 -7.1,53.8105 -3.842,16.7901 -8.908,30.5682 -14.773,41.3789 -6.037,11.127 -12.75,18.9186 -20.053,24.0371 -3.577,2.5067 -7.436,4.4575 -11.668,5.7911 -4.123,1.2998 -8.858,2.096 -14.353,2.0957 -5.499,-3e-4 -10.236,-0.7986 -14.356,-2.0977 -4.234,-1.3354 -8.091,-3.2873 -11.664,-5.793 -7.306,-5.1232 -14.011,-12.914 -20.045,-24.039 -5.857,-10.7997 -10.923,-24.5735 -14.769,-41.377 -3.542,-15.4781 -6.039,-33.51 -7.104,-53.8086 -0.468,-8.9286 -0.643,-18.327 -0.519,-28.0937 z" /></g></svg>
