<?xml version="1.0" encoding="UTF-8" standalone="no"?>
<svg
   width="553"
   height="552"
   xml:space="preserve"
   overflow="hidden"
   version="1.1"
   id="svg25"
   xmlns="http://www.w3.org/2000/svg"
   xmlns:svg="http://www.w3.org/2000/svg"><defs
     id="defs1" /><g
     id="g94"
     transform="translate(-4961,-2604)"><rect
       x="1436"
       y="873"
       width="553"
       height="552"
       fill="#ffffff"
       id="rect10-8"
       style="overflow:hidden"
       transform="translate(3525,1731)" /><path
       d="m 1550.24,1022.93 12.92,28.03 c 36.21,69.52 89.69,113.5 149.34,113.5 59.65,0 113.13,-43.98 149.34,-113.5 l 12.92,-28.03 z M 1472,967 h 22.39 37.15 361.92 33.24 26.3 l -4.04,19.645 C 1910,1125.54 1818.8,1223 1712.5,1223 1606.2,1223 1515,1125.54 1476.04,986.645 Z"
       fill-rule="evenodd"
       id="path11-4"
       style="overflow:hidden"
       transform="translate(3525,1731)" /><path
       d="m 1668,1320.5 c 0,-24.58 19.92,-44.5 44.5,-44.5 24.58,0 44.5,19.92 44.5,44.5 0,24.58 -19.92,44.5 -44.5,44.5 -24.58,0 -44.5,-19.92 -44.5,-44.5 z"
       fill-rule="evenodd"
       id="path12-8"
       style="overflow:hidden"
       transform="translate(3525,1731)" /></g></svg>
