<?xml version="1.0" encoding="UTF-8" standalone="no"?>
<svg
   width="552"
   height="552.00049"
   xml:space="preserve"
   overflow="hidden"
   version="1.1"
   id="svg25"
   xmlns="http://www.w3.org/2000/svg"
   xmlns:svg="http://www.w3.org/2000/svg"><defs
     id="defs1" /><g
     id="g116"
     transform="translate(-1861.0208,-5859.0918)"><rect
       x="1861.0208"
       y="5859.0918"
       width="552"
       height="552"
       fill="#ffffff"
       id="rect93"
       style="overflow:hidden" /><path
       d="m 2053.6793,6085.7693 c 0,-24.85 19.923,-45 44.5,-45 24.577,0 44.5,20.15 44.5,45 0,24.85 -19.923,45 -44.5,45 -24.577,0 -44.5,-20.15 -44.5,-45 z"
       fill-rule="evenodd"
       id="path94"
       style="overflow:hidden" /><path
       d="m 1933.3173,6087.6275 c 0,-24.85 19.923,-45 44.5,-45 24.577,0 44.5,20.15 44.5,45 0,24.85 -19.923,45 -44.5,45 -24.577,0 -44.5,-20.15 -44.5,-45 z"
       fill-rule="evenodd"
       id="path95"
       style="overflow:hidden" /><path
       id="path99"
       style="stroke-width:61.702;stroke-miterlimit:3"
       d="m 2093.4233,5859.0923 -47.154,39.7929 235.9,279.543 h 0.07 v 0.088 l -0.07,-0.088 h -230.088 v 0.8418 0 231.8223 h 64.924 v -174.1836 h 223.719 v -84.7637 z" /><path
       d="m 2289.531,6178.8852 v -0.088 h -0.07 z"
       style="stroke-width:61.702;stroke-miterlimit:3"
       id="path113" /></g></svg>
