<?xml version="1.0" encoding="UTF-8" standalone="no"?>
<svg
   width="552"
   height="552"
   xml:space="preserve"
   overflow="hidden"
   version="1.1"
   id="svg25"
   xmlns="http://www.w3.org/2000/svg"
   xmlns:svg="http://www.w3.org/2000/svg"><defs
     id="defs1" /><g
     id="g191"
     transform="translate(-2481,-5859.0923)"><rect
       x="2481"
       y="5859.0923"
       width="552"
       height="552"
       fill="#ffffff"
       id="rect134"
       style="overflow:hidden" /><path
       style="color:#000000;fill:#000000;stroke-miterlimit:3;-inkscape-stroke:none"
       d="m 2968.467,5898.8337 -40.063,344.0058 64.489,7.5098 40.062,-344.0059 z"
       id="path137" /><path
       style="color:#000000;fill:#000000;stroke-miterlimit:3;-inkscape-stroke:none"
       d="m 2545.533,5898.8337 -64.488,7.5097 40.062,344.0059 64.489,-7.5098 z"
       id="path139" /><path
       id="path142"
       style="stroke-width:1"
       d="m 2756.756,6048.2868 c -23.424,0 -44.571,4.0807 -63.438,12.2441 -18.869,8.1635 -34.889,19.6083 -48.064,34.334 -13.176,14.7257 -23.343,32.2537 -30.5,52.5821 -7.157,20.3283 -10.736,42.4983 -10.736,66.5078 0,24.3303 3.579,46.6579 10.736,66.9863 7.157,20.3278 17.324,37.8563 30.5,52.582 13.175,14.7264 29.195,26.2512 48.064,34.5743 18.867,8.3229 40.014,12.4843 63.438,12.4843 23.424,0 44.653,-4.1614 63.682,-12.4843 19.027,-8.3231 35.135,-19.8479 48.31,-34.5743 13.175,-14.7257 23.342,-32.2542 30.498,-52.582 7.155,-20.3284 10.736,-42.656 10.736,-66.9863 0,-24.0095 -3.581,-46.1795 -10.736,-66.5078 -7.156,-20.3284 -17.323,-37.8564 -30.498,-52.5821 -13.175,-14.7257 -29.283,-26.1705 -48.31,-34.334 -19.029,-8.1634 -40.258,-12.2441 -63.682,-12.2441 z m 0.103,58.4805 c 13.483,0 25.703,2.6435 36.657,7.9336 10.952,5.2902 20.224,12.7074 27.808,22.25 7.584,9.5427 13.436,20.9009 17.555,34.0742 4.119,13.1733 6.18,27.539 6.18,43.0976 0,15.7667 -2.061,30.2369 -6.18,43.4102 -4.119,13.1729 -9.971,24.5297 -17.555,34.0723 -7.584,9.5431 -16.856,17.0126 -27.808,22.4062 -10.954,5.3935 -23.174,8.0899 -36.657,8.0899 -13.484,0 -25.653,-2.6964 -36.513,-8.0899 -10.862,-5.3936 -20.084,-12.8631 -27.668,-22.4062 -7.584,-9.5426 -13.438,-20.8994 -17.557,-34.0723 -4.12,-13.1733 -6.18,-27.6435 -6.18,-43.4102 0,-15.5586 2.06,-29.9243 6.18,-43.0976 4.119,-13.1733 9.973,-24.5315 17.557,-34.0742 7.584,-9.5426 16.806,-16.9598 27.668,-22.25 10.86,-5.2901 23.029,-7.9336 36.513,-7.9336 z" /></g></svg>
