<?xml version="1.0" encoding="UTF-8" standalone="no"?>
<svg
   width="552"
   height="552"
   xml:space="preserve"
   overflow="hidden"
   version="1.1"
   id="svg25"
   xmlns="http://www.w3.org/2000/svg"
   xmlns:svg="http://www.w3.org/2000/svg"><defs
     id="defs1" /><g
     id="g99"
     transform="translate(-13240.071,-7830.9263)"><rect
       x="13240.071"
       y="7830.9263"
       width="552"
       height="552"
       fill="#ffffff"
       id="rect94"
       style="overflow:hidden" /><path
       id="path96"
       style="fill:#000000;fill-rule:nonzero;stroke:none;stroke-width:64.924;stroke-miterlimit:3"
       d="m 13379.529,7884.4389 c -12.12,8.0207 -28.957,20.3031 -46.755,37.8262 -17.957,17.6799 -35.299,39.1232 -50.17,64.7012 -23.008,39.5725 -36.155,82.2864 -40.323,123.25 -0.95,9.329 -1.408,18.3288 -1.459,26.9433 -0.187,32.093 5.338,63.3235 16.577,91.2578 7.118,17.6918 16.637,34.3273 28.699,49.0176 11.803,14.3758 26.104,26.9574 42.963,36.6953 12.748,7.3022 26.177,12.0232 40.06,14.086 4.755,0.7065 9.524,1.0944 14.293,1.1777 0.06,0 0.125,0 0.188,0 h -0.188 c 8.53,0.1718 16.992,-0.7866 25.324,-2.7578 12.468,-2.9497 24.484,-8.1308 35.858,-14.9961 11.043,-6.666 21.504,-14.9317 31.215,-24.3183 14.724,-14.2315 27.877,-31.2393 38.777,-49.4473 11.298,18.3633 24.942,35.5066 40.174,49.8125 9.944,9.3387 20.625,17.5475 31.857,24.1582 11.564,6.8065 23.738,11.9329 36.317,14.8418 6.252,1.4458 12.566,2.2696 18.912,2.5567 l 10.326,-0.01 c -3.45,0.2043 -6.892,0.1612 -10.326,0.01 h -0.496 c 3.599,0.1566 7.206,0.2032 10.822,0.017 3.558,-0.1828 7.113,-0.5332 10.658,-1.0586 13.96,-2.069 27.453,-6.7899 40.238,-14.1289 16.857,-9.7518 31.141,-22.3394 42.922,-36.6972 12.072,-14.711 21.578,-31.3464 28.684,-48.9922 12.163,-30.2017 17.613,-64.1257 16.51,-98.666 -0.201,-6.3072 -0.625,-12.8146 -1.301,-19.5 -4.117,-40.7009 -17.163,-83.4657 -40.303,-123.2598 -14.867,-25.5653 -32.213,-47.0161 -50.199,-64.7148 -17.822,-17.5387 -34.671,-29.814 -46.746,-37.8028 l -34.299,51.2891 c 9.618,6.519 22.895,16.5501 36.828,30.7519 14.055,14.3264 27.534,31.6251 39.043,52.1582 17.978,32.0758 27.821,66.1064 31.043,98.1016 0.527,5.2328 0.866,10.303 1.047,15.1934 0.998,26.916 -2.59,52.2017 -10.383,73.8164 -4.538,12.588 -10.496,23.9184 -17.801,33.6113 -7.099,9.4209 -15.562,17.4197 -25.447,23.5605 -6.29,3.9947 -12.532,6.361 -18.748,7.3965 -1.606,0.2675 -3.228,0.4497 -4.869,0.5449 -4.512,0.2622 -9.246,-0.1232 -14.203,-1.2187 -6.502,-1.4369 -13.36,-4.0909 -20.42,-8.041 -6.865,-3.8405 -13.748,-8.8099 -20.436,-14.7754 -13.228,-11.7997 -24.824,-26.7247 -33.347,-42.1875 -4.227,-7.6678 -7.535,-15.1743 -9.909,-22.1738 -2.421,-7.14 -3.739,-13.3609 -4.251,-18.4942 h -64.606 c -0.526,5.2923 -1.837,11.6237 -4.189,18.8086 -2.315,7.0703 -5.522,14.6111 -9.594,22.2774 -8.241,15.5131 -19.41,30.3824 -32.133,42.0859 -6.444,5.9278 -13.069,10.8447 -19.678,14.6348 -6.796,3.8976 -13.398,6.504 -19.664,7.9062 -4.172,0.9336 -8.192,1.3341 -12.062,1.2403 -2.169,-0.053 -4.313,-0.2604 -6.43,-0.6231 -6.081,-1.0416 -12.271,-3.4099 -18.596,-7.4395 -9.863,-6.1423 -18.312,-14.1392 -25.406,-23.5624 -7.279,-9.6691 -13.24,-20.9846 -17.789,-33.586 -7.2,-19.9444 -10.874,-43.1381 -10.594,-68.0215 0.08,-6.6515 0.439,-13.6495 1.168,-20.9531 3.218,-32.2066 13.144,-66.2162 31.026,-98.1133 11.518,-20.5447 25.002,-37.8346 39.041,-52.1406 13.92,-14.1843 27.194,-24.2159 36.849,-30.7578 z" /></g></svg>
